<svg width="58" height="56" viewBox="0 0 58 56" fill="none" xmlns="http://www.w3.org/2000/svg">
<path fill-rule="evenodd" clip-rule="evenodd" d="M28.1386 49.954C28.0548 52.8783 25.8434 55.295 23.0574 55.295C20.4622 55.295 18.3654 53.1966 18.0219 50.5458C17.3592 50.9203 16.6492 51.1827 15.917 51.314C14.147 51.6313 12.2649 51.2203 10.7111 49.9966C8.03136 47.886 7.15682 44.1284 8.38376 40.9666C5.44796 40.417 3.24697 37.6337 3.24697 34.3488C3.24697 33.2822 3.48677 32.2773 3.89713 31.3771C0.556161 28.8348 -0.562782 23.9617 1.37922 19.9733C1.8961 18.9117 2.58722 18.0075 3.39558 17.2829C2.21763 15.1728 2.12148 12.4676 3.35133 10.2003C4.89728 7.35051 8.11897 6.13889 10.9231 7.19677C10.9267 7.17523 10.9303 7.1537 10.9338 7.13216C10.9528 7.01823 10.9716 6.90442 10.998 6.79055C11.7695 3.45127 14.9484 1.34573 18.0817 2.2166C18.3938 2.30336 18.6886 2.42437 18.9747 2.56041C19.8908 1.14692 21.4026 0.207031 23.1379 0.207031C25.9065 0.207031 28.1072 2.59393 28.2168 5.4936C28.2242 5.5367 28.2276 5.58037 28.227 5.62409V5.71487V5.71827V5.72621L28.21 14.669C28.21 14.6925 28.2089 14.7171 28.2066 14.7405C28.2075 16.6621 27.4596 18.4295 26.2323 19.6697C27.419 20.876 28.1481 22.5726 28.1817 24.4411V24.4456C28.1887 24.4869 28.1921 24.5286 28.1919 24.5704V24.6658V24.6703V24.6748L28.1681 37.2487C28.1683 37.2836 28.1661 37.3185 28.1613 37.3531C28.1432 39.0484 27.5475 40.6016 26.5613 41.783C27.5022 42.9254 28.0843 44.4106 28.1352 46.029V46.0324C28.1461 46.0839 28.1515 46.1364 28.1511 46.189L28.1443 49.7111C28.1462 49.7353 28.147 49.7595 28.1465 49.7838C28.1465 49.7918 28.146 49.8001 28.1454 49.8083C28.1449 49.8161 28.1443 49.8238 28.1443 49.8314V49.8609C28.1444 49.892 28.1425 49.9231 28.1386 49.954ZM19.4196 49.7838C19.4196 52.0689 21.0779 53.8426 23.0574 53.8426C25.0226 53.8426 26.6681 52.0935 26.6918 49.8324L26.6929 49.4761L26.6986 46.401L26.6963 46.3863C26.6944 46.3621 26.6936 46.3379 26.6941 46.3136C26.722 43.3598 24.5901 41.018 22.0009 40.9885C19.4118 40.959 17.2393 43.2498 17.2114 46.2036C17.2111 46.2994 17.1919 46.3943 17.1549 46.4827C17.1178 46.571 17.0636 46.6512 16.9954 46.7185C16.9272 46.7859 16.8463 46.839 16.7575 46.875C16.6687 46.9109 16.5736 46.9289 16.4778 46.9279C16.3819 46.927 16.2872 46.907 16.1991 46.8693C16.111 46.8316 16.0313 46.7768 15.9645 46.7081C15.8977 46.6393 15.8451 46.5581 15.8098 46.469C15.7746 46.3799 15.7573 46.2847 15.759 46.1889C15.7724 44.7703 16.1988 43.4517 16.9118 42.366C15.6484 41.1511 14.9918 39.4856 14.9556 37.7977C14.9407 37.7972 14.9259 37.7967 14.911 37.7962C14.7669 37.7913 14.6228 37.7865 14.479 37.7955C12.8989 37.8942 11.3645 38.7421 10.3431 40.302C8.54661 43.0459 9.13449 46.9076 11.6094 48.8568C14.0843 50.8059 17.4393 50.2104 19.2358 47.4667C19.2874 47.3857 19.3546 47.3157 19.4336 47.2608C19.5125 47.2059 19.6015 47.1672 19.6955 47.147C19.7894 47.1268 19.8865 47.1254 19.981 47.143C20.0755 47.1605 20.1656 47.1967 20.246 47.2493C20.3264 47.302 20.3956 47.37 20.4495 47.4496C20.5034 47.5292 20.541 47.6187 20.5601 47.7129C20.5792 47.8071 20.5793 47.9042 20.5606 47.9985C20.5419 48.0927 20.5047 48.1824 20.451 48.2621C20.1364 48.7426 19.7735 49.1644 19.3798 49.5387C19.4071 49.6175 19.4205 49.7004 19.4196 49.7838ZM17.4996 34.4372C15.9216 36.426 16.0948 39.4773 17.8446 41.242C18.9504 40.1725 20.4088 39.5177 22.0186 39.5361C23.3303 39.551 24.5343 40.0074 25.5225 40.7672C26.2707 39.8291 26.7281 38.5869 26.7151 37.219C26.7147 37.1997 26.715 37.1804 26.7162 37.1612L26.7287 30.8646L26.74 24.6512C26.7616 23.0141 26.1046 21.558 25.0845 20.5822C24.3597 21.0317 23.5401 21.3248 22.6585 21.423C22.7162 22.4683 22.4466 23.5402 21.8234 24.4504C21.7582 24.5485 21.6701 24.6294 21.5667 24.6859C21.4633 24.7425 21.3477 24.773 21.2299 24.7749C21.0959 24.777 20.9639 24.7419 20.8485 24.6736C20.7331 24.6054 20.639 24.5065 20.5763 24.3879C20.5137 24.2694 20.4851 24.1358 20.4937 24.0021C20.5024 23.8683 20.5478 23.7395 20.6251 23.63C21.5871 22.2252 21.3146 20.1863 20.0566 19.1502C19.8599 18.9882 19.6536 18.8605 19.4416 18.7644C19.3532 18.726 19.2734 18.6705 19.2067 18.601C19.14 18.5315 19.0878 18.4494 19.0532 18.3595C19.0185 18.2696 19.0021 18.1737 19.0048 18.0774C19.0076 17.9811 19.0295 17.8864 19.0692 17.7986C19.1089 17.7109 19.1657 17.6319 19.2363 17.5663C19.3068 17.5007 19.3897 17.4498 19.4801 17.4165C19.5706 17.3833 19.6667 17.3684 19.7629 17.3726C19.8592 17.3769 19.9536 17.4003 20.0407 17.4414C20.3701 17.5907 20.6856 17.7875 20.9791 18.0291C21.6233 18.5598 22.0839 19.2448 22.3611 19.9956C24.891 19.7935 26.8823 17.3969 26.757 14.4923C26.7555 14.4624 26.7559 14.4324 26.7581 14.4026L26.7751 5.71891V5.7155C26.7734 3.43201 25.1169 1.66006 23.1384 1.66006C23.0147 1.66006 22.8928 1.66694 22.7719 1.68048C20.9586 1.88371 19.5005 3.57659 19.5005 5.7189C19.5007 5.73593 19.5004 5.75296 19.4994 5.76996C19.4884 5.95938 19.4037 6.13698 19.2634 6.26475C19.1231 6.39252 18.9384 6.46032 18.7488 6.45365C18.5592 6.44697 18.3797 6.36636 18.2487 6.22905C18.1178 6.09173 18.0458 5.90863 18.0481 5.7189C18.0481 5.07199 18.1575 4.45041 18.35 3.86933C18.1391 3.76916 17.9225 3.68009 17.6929 3.61629C17.5483 3.5761 17.404 3.54461 17.2595 3.52098C16.9705 3.47373 16.6816 3.45844 16.3983 3.47446C16.2566 3.48246 16.1162 3.49904 15.9773 3.52212C14.31 3.79901 12.871 5.14191 12.4143 7.11801C11.8055 9.7531 13.2685 12.3914 15.5824 13.0346L15.596 13.0391C15.8767 12.478 16.2675 11.9678 16.7715 11.5527C17.065 11.311 17.3817 11.1154 17.7111 10.966C17.7985 10.922 17.8939 10.8962 17.9915 10.89C18.0892 10.8839 18.1871 10.8975 18.2793 10.9301C18.3716 10.9627 18.4563 11.0136 18.5284 11.0798C18.6005 11.1459 18.6584 11.226 18.6988 11.3151C18.7392 11.4042 18.7612 11.5005 18.7634 11.5984C18.7656 11.6962 18.7481 11.7934 18.7118 11.8843C18.6755 11.9752 18.6212 12.0577 18.5522 12.1271C18.4832 12.1965 18.4009 12.2512 18.3102 12.2879C18.0982 12.384 17.8919 12.5117 17.6952 12.6737C16.4372 13.7098 16.1647 15.7487 17.1267 17.1535C17.1784 17.2269 17.2161 17.3092 17.2379 17.3963C17.2436 17.4199 17.2482 17.4438 17.2515 17.4678C17.2663 17.5699 17.2592 17.6741 17.2307 17.7732C17.2021 17.8724 17.1527 17.9644 17.0859 18.043C17.019 18.1216 16.9361 18.185 16.8428 18.229C16.7494 18.2731 16.6478 18.2967 16.5446 18.2984C16.4227 18.3005 16.3023 18.2718 16.1944 18.2151C16.0866 18.1584 15.9947 18.0754 15.9273 17.9739C15.1987 16.9099 14.954 15.6252 15.1512 14.42C12.6543 13.7047 10.9947 11.3598 10.837 8.74083C8.59799 7.61416 5.94524 8.46551 4.62767 10.8945C3.67812 12.6449 3.73454 14.7545 4.58228 16.4057C5.07802 16.1023 5.59854 15.8507 6.1402 15.6659C7.24456 15.2892 8.43171 15.4186 9.49779 15.9757C10.5639 16.5327 11.5274 17.4925 12.3583 18.7909C12.382 18.8264 12.4025 18.864 12.4196 18.9032C12.8726 18.7539 13.3553 18.6794 13.8584 18.7046C14.2319 18.7234 14.5937 18.7928 14.9353 18.9077C15.0257 18.9381 15.1093 18.986 15.1812 19.0487C15.2532 19.1114 15.312 19.1877 15.3545 19.2731C15.397 19.3586 15.4222 19.4516 15.4287 19.5468C15.4352 19.642 15.423 19.7375 15.3926 19.828C15.3622 19.9184 15.3142 20.002 15.2515 20.0739C15.1888 20.1459 15.1126 20.2047 15.0271 20.2472C14.9417 20.2897 14.8487 20.3149 14.7535 20.3214C14.6583 20.3279 14.5628 20.3157 14.4723 20.2853C14.2538 20.2118 14.0248 20.1668 13.7858 20.1548C12.2572 20.0781 10.9148 21.3807 10.8402 23.1708C10.8348 23.3632 10.7533 23.5456 10.6135 23.678C10.4737 23.8103 10.2871 23.8817 10.0947 23.8766C9.9976 23.874 9.90203 23.8519 9.81363 23.8118C9.72522 23.7716 9.64577 23.7141 9.57997 23.6427C9.51417 23.5713 9.46336 23.4874 9.43054 23.396C9.39772 23.3046 9.38357 23.2076 9.38891 23.1106C9.44886 21.6721 10.1286 20.3962 11.1466 19.5908L11.1352 19.5737C10.4055 18.4334 9.5974 17.6671 8.82494 17.2635C8.05249 16.8599 7.33406 16.7937 6.60884 17.0411C4.99742 17.5907 3.5615 18.8097 2.68505 20.6097C0.916822 24.2413 2.18862 28.7706 5.44918 30.6802C6.99275 31.5842 8.68615 31.7449 10.2444 31.2997C10.2616 30.7442 10.3922 30.1843 10.6529 29.6623C10.7911 29.3857 10.9582 29.1342 11.1499 28.9101C11.2108 28.8344 11.2863 28.7716 11.3719 28.7256C11.4575 28.6796 11.5514 28.6513 11.6482 28.6422C11.7449 28.6332 11.8425 28.6437 11.9351 28.673C12.0277 28.7023 12.1135 28.75 12.1874 28.8131C12.2613 28.8762 12.3218 28.9535 12.3652 29.0404C12.4087 29.1272 12.4343 29.222 12.4405 29.3189C12.4467 29.4159 12.4334 29.5131 12.4014 29.6049C12.3693 29.6966 12.3192 29.781 12.254 29.853C12.1403 29.9859 12.0384 30.1387 11.9522 30.3114C11.4008 31.4152 11.791 32.8167 12.7487 33.3921C12.884 33.4711 12.9901 33.5917 13.0511 33.736C13.1122 33.8802 13.125 34.0404 13.0876 34.1925C13.0502 34.3446 12.9646 34.4806 12.8436 34.5801C12.7227 34.6796 12.5727 34.7373 12.4163 34.7446C12.2701 34.7513 12.1254 34.7138 12.001 34.6368C11.2649 34.1947 10.7443 33.5156 10.468 32.743C9.61388 32.9643 8.72535 33.0443 7.83659 32.9563C6.91913 32.8655 6.00637 32.5936 5.13486 32.1507C5.12994 32.1626 5.12424 32.1739 5.11855 32.1853C5.11229 32.1977 5.10604 32.2102 5.10082 32.2233C4.84293 32.8718 4.69913 33.5904 4.69913 34.3498C4.69913 37.1619 6.65094 39.3919 9.07224 39.6C9.08147 39.5855 9.08986 39.5706 9.09826 39.5557C9.10772 39.5389 9.11718 39.5221 9.12784 39.5058C9.39735 39.0942 9.6996 38.72 10.0276 38.3847C10.137 38.273 10.2486 38.1655 10.3635 38.0625C11.6937 36.8703 13.3828 36.2705 15.0759 36.3446C15.2729 35.3396 15.6991 34.3713 16.3626 33.5351C16.6685 33.1497 17.0117 32.8165 17.3793 32.5297C17.0025 31.5921 16.83 30.5448 16.9175 29.4638C16.9609 28.9281 17.0652 28.4126 17.2227 27.9251C17.2505 27.8326 17.2965 27.7465 17.3579 27.6719C17.4194 27.5974 17.4951 27.5358 17.5807 27.4909C17.6662 27.4459 17.7599 27.4185 17.8562 27.4103C17.9525 27.402 18.0494 27.413 18.1414 27.4427C18.2334 27.4724 18.3185 27.5201 18.3918 27.5831C18.465 27.6461 18.525 27.723 18.5682 27.8095C18.6113 27.896 18.6368 27.9902 18.6431 28.0866C18.6494 28.183 18.6364 28.2797 18.6048 28.3711C18.4818 28.7517 18.3997 29.1566 18.3654 29.5807C18.1458 32.2929 19.959 34.6193 22.33 34.8502C22.518 34.8652 22.6929 34.9527 22.8175 35.0943C22.9422 35.2359 23.0068 35.4204 22.9978 35.6088C22.9888 35.7972 22.9069 35.9747 22.7693 36.1038C22.6318 36.2329 22.4494 36.3034 22.2608 36.3003C22.2369 36.3 22.2131 36.2985 22.1893 36.2958C20.5761 36.1387 19.1887 35.2872 18.2394 34.0468C18.2061 34.0033 18.1756 33.9575 18.1451 33.9118C18.1268 33.8844 18.1085 33.857 18.0897 33.8301C18.0663 33.8505 18.0425 33.87 18.0187 33.8896C17.9766 33.9243 17.9345 33.9589 17.8945 33.998C17.7567 34.1328 17.625 34.2791 17.4996 34.4372Z" fill="#EC5E0E"/>
<path fill-rule="evenodd" clip-rule="evenodd" d="M29.8092 49.954C29.893 52.8783 32.1044 55.295 34.8904 55.295C37.4856 55.295 39.5824 53.1966 39.9259 50.5458C40.5885 50.9203 41.2986 51.1827 42.0307 51.314C43.8007 51.6313 45.6829 51.2203 47.2367 49.9966C49.9164 47.886 50.7909 44.1284 49.564 40.9666C52.4998 40.417 54.7008 37.6337 54.7008 34.3488C54.7008 33.2822 54.461 32.2773 54.0506 31.3771C57.3916 28.8348 58.5105 23.9617 56.5685 19.9733C56.0517 18.9117 55.3605 18.0075 54.5522 17.2829C55.7301 15.1728 55.8263 12.4676 54.5964 10.2003C53.0505 7.35051 49.8288 6.13889 47.0247 7.19677C47.0211 7.17523 47.0175 7.1537 47.0139 7.13216C46.995 7.01823 46.9761 6.90442 46.9498 6.79055C46.1783 3.45127 42.9994 1.34573 39.8661 2.2166C39.5539 2.30336 39.2591 2.42437 38.9731 2.56041C38.057 1.14692 36.5452 0.207031 34.8099 0.207031C32.0413 0.207031 29.8406 2.59393 29.7309 5.4936C29.7236 5.5367 29.7202 5.58037 29.7207 5.62409V5.71487V5.71827V5.72621L29.7377 14.669C29.7377 14.6925 29.7389 14.7171 29.7411 14.7405C29.7403 16.6621 30.4881 18.4295 31.7155 19.6697C30.5288 20.876 29.7997 22.5726 29.7661 24.4411V24.4456C29.7591 24.4869 29.7556 24.5286 29.7558 24.5704V24.6658V24.6703V24.6748L29.7797 37.2487C29.7794 37.2836 29.7817 37.3185 29.7865 37.3531C29.8045 39.0484 30.4003 40.6016 31.3864 41.783C30.4455 42.9254 29.8635 44.4106 29.8126 46.029V46.0324C29.8016 46.0839 29.7963 46.1364 29.7967 46.189L29.8035 49.7111C29.8015 49.7353 29.8008 49.7595 29.8012 49.7838C29.8012 49.7918 29.8018 49.8001 29.8024 49.8083C29.8029 49.8161 29.8034 49.8238 29.8035 49.8314V49.8609C29.8034 49.892 29.8053 49.9231 29.8092 49.954ZM38.5282 49.7838C38.5282 52.0689 36.8698 53.8426 34.8904 53.8426C32.9252 53.8426 31.2797 52.0935 31.256 49.8324L31.2548 49.4761L31.2492 46.401L31.2514 46.3863C31.2534 46.3621 31.2542 46.3379 31.2537 46.3136C31.2258 43.3598 33.3576 41.018 35.9468 40.9885C38.5359 40.959 40.7084 43.2498 40.7364 46.2036C40.7366 46.2994 40.7558 46.3943 40.7929 46.4827C40.83 46.571 40.8842 46.6512 40.9524 46.7185C41.0206 46.7859 41.1014 46.839 41.1903 46.875C41.2791 46.9109 41.3742 46.9289 41.47 46.9279C41.5658 46.927 41.6605 46.907 41.7486 46.8693C41.8367 46.8316 41.9165 46.7768 41.9833 46.7081C42.0501 46.6393 42.1027 46.5581 42.1379 46.469C42.1732 46.3799 42.1905 46.2847 42.1888 46.1889C42.1754 44.7703 41.7489 43.4517 41.0359 42.366C42.2993 41.1511 42.956 39.4856 42.9921 37.7977C43.007 37.7972 43.0219 37.7967 43.0368 37.7962C43.1809 37.7913 43.325 37.7865 43.4687 37.7955C45.0489 37.8942 46.5833 38.7421 47.6047 40.302C49.4011 43.0459 48.8133 46.9076 46.3383 48.8568C43.8634 50.8059 40.5085 50.2104 38.712 47.4667C38.6603 47.3857 38.5931 47.3157 38.5142 47.2608C38.4353 47.2059 38.3463 47.1672 38.2523 47.147C38.1583 47.1268 38.0613 47.1254 37.9668 47.143C37.8723 47.1605 37.7822 47.1967 37.7018 47.2493C37.6213 47.302 37.5521 47.37 37.4982 47.4496C37.4443 47.5292 37.4067 47.6187 37.3877 47.7129C37.3686 47.8071 37.3684 47.9042 37.3871 47.9985C37.4058 48.0927 37.4431 48.1824 37.4967 48.2621C37.8113 48.7426 38.1742 49.1644 38.5679 49.5387C38.5407 49.6175 38.5273 49.7004 38.5282 49.7838ZM40.4481 34.4372C42.0262 36.426 41.853 39.4773 40.1032 41.242C38.9973 40.1725 37.539 39.5177 35.9292 39.5361C34.6174 39.551 33.4135 40.0074 32.4252 40.7672C31.677 39.8291 31.2197 38.5869 31.2327 37.219C31.2331 37.1997 31.2327 37.1804 31.2316 37.1612L31.2191 30.8646L31.2077 24.6512C31.1862 23.0141 31.8431 21.558 32.8633 20.5822C33.5881 21.0317 34.4077 21.3248 35.2893 21.423C35.2316 22.4683 35.5011 23.5402 36.1244 24.4504C36.1896 24.5485 36.2776 24.6294 36.381 24.6859C36.4844 24.7425 36.6 24.773 36.7179 24.7749C36.8519 24.777 36.9839 24.7419 37.0993 24.6736C37.2146 24.6054 37.3088 24.5065 37.3714 24.3879C37.434 24.2694 37.4626 24.1358 37.454 24.0021C37.4454 23.8683 37.3999 23.7395 37.3226 23.63C36.3607 22.2252 36.6332 20.1863 37.8911 19.1502C38.0879 18.9882 38.2942 18.8605 38.5061 18.7644C38.5945 18.726 38.6744 18.6705 38.741 18.601C38.8077 18.5315 38.8599 18.4494 38.8946 18.3595C38.9292 18.2696 38.9457 18.1737 38.9429 18.0774C38.9402 17.9811 38.9183 17.8864 38.8785 17.7986C38.8388 17.7109 38.782 17.6319 38.7115 17.5663C38.6409 17.5007 38.558 17.4498 38.4676 17.4165C38.3772 17.3833 38.2811 17.3684 38.1848 17.3726C38.0886 17.3769 37.9942 17.4003 37.907 17.4414C37.5776 17.5907 37.2621 17.7875 36.9687 18.0291C36.3244 18.5598 35.8639 19.2448 35.5866 19.9956C33.0567 19.7935 31.0655 17.3969 31.1908 14.4923C31.1922 14.4624 31.1919 14.4324 31.1896 14.4026L31.1726 5.71891V5.7155C31.1743 3.43201 32.8309 1.66006 34.8094 1.66006C34.9331 1.66006 35.055 1.66694 35.1759 1.68048C36.9891 1.88371 38.4472 3.57659 38.4472 5.7189C38.447 5.73593 38.4474 5.75296 38.4484 5.76996C38.4594 5.95938 38.5441 6.13698 38.6844 6.26475C38.8246 6.39252 39.0093 6.46032 39.199 6.45365C39.3886 6.44697 39.5681 6.36636 39.699 6.22905C39.83 6.09173 39.902 5.90863 39.8996 5.7189C39.8996 5.07199 39.7903 4.45041 39.5978 3.86933C39.8087 3.76916 40.0253 3.68009 40.2548 3.61629C40.3994 3.5761 40.5438 3.54461 40.6883 3.52098C40.9773 3.47373 41.2662 3.45844 41.5495 3.47446C41.6912 3.48246 41.8315 3.49904 41.9705 3.52212C43.6378 3.79901 45.0768 5.14191 45.5334 7.11801C46.1423 9.7531 44.6793 12.3914 42.3654 13.0346L42.3517 13.0391C42.0711 12.478 41.6802 11.9678 41.1762 11.5527C40.8828 11.311 40.5661 11.1154 40.2367 10.966C40.1492 10.922 40.0539 10.8962 39.9562 10.89C39.8586 10.8839 39.7607 10.8975 39.6684 10.9301C39.5762 10.9627 39.4915 11.0136 39.4194 11.0798C39.3473 11.1459 39.2893 11.226 39.2489 11.3151C39.2085 11.4042 39.1866 11.5005 39.1843 11.5984C39.1821 11.6962 39.1997 11.7934 39.236 11.8843C39.2723 11.9752 39.3266 12.0577 39.3956 12.1271C39.4646 12.1965 39.5469 12.2512 39.6376 12.2879C39.8496 12.384 40.0558 12.5117 40.2526 12.6737C41.5106 13.7098 41.783 15.7487 40.8211 17.1535C40.7693 17.2269 40.7316 17.3092 40.7099 17.3963C40.7041 17.4199 40.6996 17.4438 40.6963 17.4678C40.6814 17.5699 40.6885 17.6741 40.7171 17.7732C40.7456 17.8724 40.795 17.9644 40.8619 18.043C40.9288 18.1216 41.0117 18.185 41.105 18.229C41.1983 18.2731 41.3 18.2967 41.4032 18.2984C41.525 18.3005 41.6454 18.2718 41.7533 18.2151C41.8612 18.1584 41.9531 18.0754 42.0205 17.9739C42.7491 16.9099 42.9938 15.6252 42.7966 14.42C45.2934 13.7047 46.953 11.3598 47.1107 8.74083C49.3498 7.61416 52.0025 8.46551 53.3201 10.8945C54.2696 12.6449 54.2132 14.7545 53.3655 16.4057C52.8697 16.1023 52.3492 15.8507 51.8075 15.6659C50.7032 15.2892 49.516 15.4186 48.45 15.9757C47.3839 16.5327 46.4203 17.4925 45.5894 18.7909C45.5657 18.8264 45.5452 18.864 45.5281 18.9032C45.0751 18.7539 44.5924 18.6794 44.0893 18.7046C43.7159 18.7234 43.3541 18.7928 43.0125 18.9077C42.922 18.9381 42.8385 18.986 42.7665 19.0487C42.6946 19.1114 42.6357 19.1877 42.5933 19.2731C42.5508 19.3586 42.5256 19.4516 42.519 19.5468C42.5125 19.642 42.5248 19.7375 42.5552 19.828C42.5856 19.9184 42.6335 20.002 42.6962 20.0739C42.7589 20.1459 42.8352 20.2047 42.9206 20.2472C43.0061 20.2897 43.0991 20.3149 43.1942 20.3214C43.2894 20.3279 43.385 20.3157 43.4754 20.2853C43.694 20.2118 43.923 20.1668 44.1619 20.1548C45.6906 20.0781 47.033 21.3807 47.1076 23.1708C47.113 23.3632 47.1945 23.5456 47.3343 23.678C47.4741 23.8103 47.6607 23.8817 47.8531 23.8766C47.9502 23.874 48.0457 23.8519 48.1341 23.8118C48.2225 23.7716 48.302 23.7141 48.3678 23.6427C48.4336 23.5713 48.4844 23.4874 48.5172 23.396C48.55 23.3046 48.5642 23.2076 48.5588 23.1106C48.4989 21.6721 47.8192 20.3962 46.8012 19.5908L46.8125 19.5737C47.5422 18.4334 48.3504 17.6671 49.1228 17.2635C49.8953 16.8599 50.6137 16.7937 51.3389 17.0411C52.9503 17.5907 54.3863 18.8097 55.2627 20.6097C57.0309 24.2413 55.7591 28.7706 52.4986 30.6802C50.955 31.5842 49.2616 31.7449 47.7033 31.2997C47.6862 30.7442 47.5555 30.1843 47.2948 29.6623C47.1566 29.3857 46.9895 29.1342 46.7978 28.9101C46.7369 28.8344 46.6614 28.7716 46.5759 28.7256C46.4903 28.6796 46.3963 28.6513 46.2996 28.6422C46.2029 28.6332 46.1053 28.6437 46.0127 28.673C45.92 28.7023 45.8342 28.75 45.7603 28.8131C45.6865 28.8762 45.626 28.9535 45.5825 29.0404C45.539 29.1272 45.5134 29.222 45.5072 29.3189C45.501 29.4159 45.5143 29.5131 45.5464 29.6049C45.5784 29.6966 45.6285 29.781 45.6938 29.853C45.8074 29.9859 45.9094 30.1387 45.9956 30.3114C46.5469 31.4152 46.1568 32.8167 45.199 33.3921C45.0638 33.4711 44.9577 33.5917 44.8966 33.736C44.8356 33.8802 44.8228 34.0404 44.8602 34.1925C44.8975 34.3446 44.9831 34.4806 45.1041 34.5801C45.2251 34.6796 45.375 34.7373 45.5315 34.7446C45.6776 34.7513 45.8224 34.7138 45.9468 34.6368C46.6828 34.1947 47.2035 33.5156 47.4798 32.743C48.3339 32.9643 49.2224 33.0443 50.1112 32.9563C51.0286 32.8655 51.9414 32.5936 52.8129 32.1507C52.8178 32.1626 52.8235 32.1739 52.8292 32.1853C52.8355 32.1977 52.8417 32.2102 52.8469 32.2233C53.1048 32.8718 53.2486 33.5904 53.2486 34.3498C53.2486 37.1619 51.2968 39.3919 48.8755 39.6C48.8663 39.5855 48.8579 39.5706 48.8495 39.5557C48.84 39.5389 48.8306 39.5221 48.8199 39.5058C48.5504 39.0942 48.2482 38.72 47.9201 38.3847C47.8108 38.273 47.6992 38.1655 47.5842 38.0625C46.2541 36.8703 44.565 36.2705 42.8718 36.3446C42.6748 35.3396 42.2486 34.3713 41.5851 33.5351C41.2793 33.1497 40.9361 32.8165 40.5684 32.5297C40.9452 31.5921 41.1178 30.5448 41.0302 29.4638C40.9869 28.9281 40.8825 28.4126 40.725 27.9251C40.6972 27.8326 40.6513 27.7465 40.5898 27.6719C40.5284 27.5974 40.4526 27.5358 40.3671 27.4909C40.2815 27.4459 40.1879 27.4185 40.0916 27.4103C39.9953 27.402 39.8983 27.413 39.8064 27.4427C39.7144 27.4724 39.6293 27.5201 39.556 27.5831C39.4827 27.6461 39.4227 27.723 39.3796 27.8095C39.3364 27.896 39.3109 27.9902 39.3047 28.0866C39.2984 28.183 39.3114 28.2797 39.343 28.3711C39.4659 28.7517 39.548 29.1566 39.5824 29.5807C39.8019 32.2929 37.9887 34.6193 35.6177 34.8502C35.4297 34.8652 35.2549 34.9527 35.1302 35.0943C35.0056 35.2359 34.9409 35.4204 34.9499 35.6088C34.9589 35.7972 35.0409 35.9747 35.1784 36.1038C35.316 36.2329 35.4983 36.3034 35.687 36.3003C35.7108 36.3 35.7347 36.2985 35.7584 36.2958C37.3717 36.1387 38.759 35.2872 39.7083 34.0468C39.7416 34.0033 39.7722 33.9575 39.8027 33.9118C39.821 33.8844 39.8392 33.857 39.8581 33.8301C39.8815 33.8505 39.9053 33.87 39.929 33.8896C39.9711 33.9243 40.0133 33.9589 40.0533 33.998C40.1911 34.1328 40.3227 34.2791 40.4481 34.4372Z" fill="#EC5E0E"/>
</svg>
