<svg version="1.2" xmlns="http://www.w3.org/2000/svg" viewBox="0 0 263 176" width="263" height="176">
	<title>3hmd_4h4p_230323-ai</title>
	<defs>
		<clipPath clipPathUnits="userSpaceOnUse" id="cp1">
			<path d="m0 0h263v176h-263z"/>
		</clipPath>
	</defs>
	<style>
		.s0 { fill: #000000 } 
		.s1 { fill: #c6db60 } 
		.s2 { mix-blend-mode: multiply;fill: #c6db60 } 
	</style>
	<g id="Artboard 4" clip-path="url(#cp1)">
		<g id="&lt;Group&gt;">
			<path id="&lt;Path&gt;" class="s0" d="m228 42c-2.1-4.7-5.3-9.3-10.5-10.5-0.7-0.1-1.5 0.1-1.8 0.7-4 8-11.3 14-18.4 19.3-5.4 4.1-10.9 8.2-17.1 11-1.7 0.8-4.4 2.1-6.5 1.9q-0.1-0.4-0.4-0.8c-14.6-18.8-40.9-18.5-61.5-11.7-11.9 4-22.9 10.3-32.5 18.4-9.9 8.3-18.3 18.4-25.7 29.1-4.2 6.2-8.4 12.5-11.9 19.1-3.7 6.7-6.9 14.1-7.2 21.8-0.1 1.3 1.4 1.8 2.4 1.4 5.1-2.5 10.2-5.4 15.7-6.9 6.2-1.8 12.8-1.6 19.1-0.8 6.7 0.7 13.3 2.2 19.9 3.7 5.6 1.2 11.3 2.3 17.1 3.3 18.7 3.3 39.3 6.7 57.4-1.1 9-3.9 17.1-11 21.9-19.6 5-8.9 6.5-19.9 4.6-29.9-1.6-8.7-6.8-17-14.3-21.8 6.6-1.2 12.9-4.6 19-7.1 7.1-3 14.3-5.8 20.8-9.8 3.6-2.1 7-4.6 9.6-7.8 0.5-0.6 0.6-1.2 0.3-1.9z"/>
			<path id="&lt;Path&gt;" class="s1" d="m188.2 86.2c3.2 9.3 2.6 20-1.2 29-3.7 8.8-11.2 16.3-19.7 20.6-16.8 8.7-37.1 5.7-55 2.6-5.1-0.9-10.3-1.8-15.4-2.8-6.4-1.4-12.7-2.9-19.2-4-6.2-1-12.6-1.8-18.8-1.2-5.7 0.5-10.9 2.4-16 4.8q-2.5 1.2-5 2.5c0.8-5.7 3.1-11 5.7-16 3-5.9 6.6-11.4 10.2-16.9 6.9-10.5 14.7-20.5 24-29 16.7-15.3 39.3-26.1 62.2-25 11.6 0.5 22.4 4.9 29.9 13.7q-0.1 0.3-0.1 0.6c-8.7-2.1-18.2-0.3-26.8 1.6q-4.1 0.9-8.2 2.1-0.2-0.1-0.4-0.1c-1.8 0.2-3.7-1-5.3-1.7-2-0.9-4.2-1.4-6.4-1.9-4.6-1.2-9.4-2.2-13.6-4.5-1.8-1-3.4 1.7-1.6 2.7 4.5 2.5 9.5 3.6 14.4 4.8 2.2 0.6 4.4 1.1 6.5 2q0.4 0.2 0.7 0.4-2.7 0.8-5.5 1.8c-6.2 2.1-12.3 4.2-18.2 7q-3.8 1.9-7.5 4c-0.4-0.1-0.8-0.1-1.2 0.1q0 0 0 0-0.1 0.1-0.1 0.1-0.2 0.1-0.5 0.1-0.5 0.2-1 0.2c-0.7 0.2-1.6 0.2-2.4 0.2-2 0.1-4.1 0-6.2-0.2-3.5-0.3-7.2-0.7-10.5-1.9-1.9-0.8-2.7 2.3-0.8 3 3.6 1.4 7.8 1.8 11.6 2.1 1.4 0.1 3 0.3 4.6 0.3-5.4 3.6-10.6 7.5-15.6 11.6q-3.5 2.8-6.9 5.8c-1.6 1.3 0.7 3.5 2.2 2.2 8.9-7.6 18-14.9 28.2-20.8 4.5-2.6 9.2-4.8 14-6.7-1.3 2.2-2.4 4.6-3.5 6.9-1.6 3.3-3.3 6.5-4.8 9.8-1.5 3.1-2.9 6.2-4.4 9.2-1.5 2.9-3 5.8-5.1 8.2-1.4 1.5 0.9 3.8 2.2 2.3 4.5-5.1 7-11.8 9.8-17.8 1.6-3.3 3.3-6.5 4.9-9.9 1.7-3.6 3.4-7.2 5.6-10.5q0.1 0 0.1-0.1c5.2-1.9 10.5-3.6 15.7-5.2 5.9-1.7 12-3.1 18-4.1-3.7 5.2-5.4 11.7-8 17.4-1.7 3.7-3.4 7.4-5.1 11.1-1.8 4-3.7 7.9-6.2 11.5-1.1 1.7 1.6 3.3 2.8 1.6 4.6-6.8 7.6-14.8 11.1-22.3 1.5-3.2 2.7-6.6 4.1-9.9 1.3-3.1 2.8-6.4 5.1-9q0.4-0.4 0.4-0.9c4.1-0.5 8.3-0.6 12.4 0.3 9.3 1.9 16.8 9.4 19.8 18.2z"/>
			<path id="&lt;Path&gt;" class="s2" d="m73 94.9c-2.2 2.6-5.1 6.2-4.8 9.9q0.5-0.1 0.9-0.3 3.3-2.9 6.7-5.6c5-4.1 10.2-8 15.6-11.6-1.6 0-3.2-0.2-4.6-0.3-1.5-0.1-3.1-0.3-4.7-0.5-3.2 2.6-6.3 5.3-9.1 8.4z"/>
			<path id="&lt;Path&gt;" class="s2" d="m95.6 76.9c-3.4 2.1-6.7 4.4-9.8 6.8q0.3 0.1 0.7 0.1c2.1 0.2 4.2 0.3 6.2 0.2 0.8 0 1.7 0 2.4-0.2q0.5 0 1-0.2 0.3 0 0.5-0.1 0 0 0.1-0.1 0 0 0 0c0.4-0.2 0.8-0.2 1.2-0.1q3.7-2.1 7.5-4c5.9-2.8 12-4.9 18.2-7q2.8-1 5.5-1.8-0.3-0.2-0.7-0.4c-2.1-0.9-4.3-1.4-6.5-2q-1.8-0.4-3.6-0.9-2 0.6-4 1.3c-6.5 2.1-12.9 4.8-18.7 8.4z"/>
			<path id="&lt;Path&gt;" class="s2" d="m111.7 57.5c4.6-0.6 9.3-1.1 13.9-0.8 3.9 0.3 8.3 1.1 11 4.1 0.4 0.4 0.3 1.1-0.3 1.2-4 1.2-8 2.3-12 3.5 1.6 0.4 3.3 0.8 4.8 1.5 1.6 0.7 3.5 1.9 5.3 1.7q0.2 0 0.4 0.1 4.1-1.2 8.2-2.1c8.6-1.9 18.1-3.7 26.8-1.6q0-0.3 0.1-0.6c-7.5-8.8-18.3-13.2-29.9-13.7-12.9-0.6-25.8 2.6-37.5 8.2q4.6-0.9 9.2-1.5z"/>
			<path id="&lt;Path&gt;" class="s2" d="m188.2 86.2c-3-8.8-10.5-16.3-19.8-18.2-4.1-0.9-8.3-0.8-12.4-0.3q0 0.5-0.4 0.9c-2.3 2.6-3.8 5.9-5.1 9q-0.3 0.5-0.5 1.1c3.4 0.5 6.6 1.3 9.6 2.9 5.6 2.7 9.7 8 10.5 14.2 0.8 7.3-3.5 14-8.1 19.1-4.9 5.6-11 10.3-17.1 14.5-5.9 4.1-12 7.9-18.3 11.2 13.8 1.7 28.2 1.6 40.7-4.8 8.5-4.3 16-11.8 19.7-20.6 3.8-9 4.4-19.7 1.2-29z"/>
			<path id="&lt;Path&gt;" class="s2" d="m111.2 83.3q1-2 2.1-3.9c-4.8 1.9-9.5 4.1-14 6.7q-3.5 2.1-6.9 4.3 3.9-1.9 8-3.4 5.3-2 10.8-3.7z"/>
			<path id="&lt;Path&gt;" class="s2" d="m140.7 78.2q3-0.1 6 0.1c1.4-3.5 2.9-7 5.1-10.1-6 1-12.1 2.4-18 4.1-5.2 1.6-10.5 3.3-15.7 5.2q0 0.1-0.1 0.1c-1 1.5-1.8 3-2.7 4.6q2.4-0.7 4.8-1.2c6.8-1.6 13.7-2.7 20.6-2.8z"/>
			<path id="&lt;Path&gt;" class="s1" d="m207.7 53.6c-3.3 1.5-6.7 2.9-10.1 4.3-3.6 1.5-7.1 3.2-10.7 4.6q0.9-0.5 1.8-1c2.9-1.9 5.8-3.9 8.6-6 3.9-2.9 7.7-5.9 11.2-9.2 3.6-3.3 6.9-7.1 9.3-11.4 3.4 1.3 5.4 4.4 6.9 7.6-4.5 5.1-10.9 8.3-17 11.1z"/>
		</g>
	</g>
</svg>