<svg version="1.2" xmlns="http://www.w3.org/2000/svg" viewBox="972 1541 332 322" width="332" height="322">
	<title>3hmd_4h4p_230323-ai</title>
	<defs>
		<clipPath clipPathUnits="userSpaceOnUse" id="cp1">
			<path d="m972 1541h332v322h-332z"/>
		</clipPath>
	</defs>
	<style>
		.s0 { fill: #000000 } 
		.s1 { fill: #faa831 } 
		.s2 { fill: #ffdf60 } 
	</style>
	<g id="Artboard 8" clip-path="url(#cp1)">
		<g id="&lt;Group&gt;">
			<path id="&lt;Path&gt;" class="s0" d="m1286 1757c-4 0.8-7.6-0.1-10.3-3.1-2.5-2.9-3.9-6.8-5.4-10.3-1.7-4-3.4-7.9-6.3-11.2-1.9-2.1-4.2-3.8-6.7-4.9 1.8-1.1 3.4-2.3 5.1-3.6 5.2-4 10.4-8.8 17.5-8.4 1.2 0.1 1.9-1.2 1.7-2.3-1.2-5.5-7.3-9.5-11.9-12.1-4.1-2.5-8.7-4.1-13.5-4.7 2.8-2.4 5-5.5 7.1-8.7 1.6-2.3 3.2-4.7 5.4-6.4 2.4-2 5.3-2.7 8.4-2.6 1.3 0.1 2.3-1.6 1.5-2.7-3.6-5.1-10.4-7.2-16.2-8.6-3.1-0.8-6.4-1.6-9.6-1.7-2.6-0.1-5.1 0.2-7.6 0.8 3.1-4.6 4.2-10.3 4.2-15.9 0-3.9-0.5-7.8-1.2-11.6-0.8-4.3-2.4-8.6-2.5-13 0-2.5 0.6-5 2.7-6.7 1.7-1.4 3.8-2.4 5.6-3.8 0.7-0.6 0.7-2 0-2.6-4.7-4.1-12.3-3.1-17.9-2-3.5 0.7-7 1.6-10.2 3.1q-2.6 1.2-4.8 3.1c-0.5 0.4-0.9 0.8-1.3 1.3-0.4-5.1-1.2-10.5 1.2-15 2.1-4 6.6-6.2 8.9-10.1 0.8-1.3-0.2-2.6-1.5-2.7-3.7-0.5-7.5 0.2-11 1.2-3.6 1.1-7.1 2.5-10.1 4.7-3.2 2.3-5.9 5.1-8.2 8.4-1.2 1.8-2 4.1-3.1 6.1 0-1 0.2-2 0.2-2.9 0.2-2.5-0.4-4.7-1.3-7-2.1-5-5.3-9.2-8.8-13.2-3.2-3.8-6.6-7.6-8.1-12.4-1.6-4.9-0.5-9.6 2.9-13.5 0.7-0.9 0.7-2.3-0.4-2.9-4.9-2.6-9.3 4.4-11.6 7.7-2.7 4-6.4 7.8-10.5 11q0.3-0.8 0.5-1.6c0.8-2.9 0.7-5.9 0.1-8.9-1.3-5.8-5.3-10.4-7.4-15.9-0.8-2.1-4-1.3-3.4 1 1.1 4.3-3.2 9.2-6.1 12-3.8 3.7-8.7 5.7-13.4 7.8-4.2 1.9-8 4.1-11 7.5-2.3-2.8-5.5-4.9-8.9-6.3-4.5-1.9-9.4-2.8-13.7-5.1-1.5-0.8-2.9-1.7-3.6-3.3-0.9-1.8-0.8-4-0.7-5.9 0-1.4-1.6-2.3-2.8-1.6-6.6 4.2-10.2 12.8-11.3 20.4-0.6 3.8 0 7.4 0.8 11.2 0.4 2.5 1.2 5.9 0.5 8.5-2.6-3.3-5.5-6.3-9.3-8.3-4.7-2.5-10.2-3.1-15.5-2.8-1.6 0.1-2.3 1.9-1.3 3.1 2.3 2.6 3.7 5.9 4.4 9.3 0.5 2.6 0.8 5.1-0.1 7.7-0.7 2-1.5 4-2.2 6.1-3.7-2-8-2.9-12.1-3.2-4.3-0.2-8.3 0.8-12.3 2.4-4.1 1.7-8.4 3.9-13 3.2-1.4-0.2-2.9 1.2-2 2.7 1.2 1.9 2.7 3.6 4 5.5 1.4 1.9 2.3 3.9 3 6.2 1.2 3.7 1.9 7.6 2.9 11.5 0.5 1.9 1 4.2 1.8 6.4-4.2-0.6-8.3 0.3-12.2 2.1-4.1 2.1-7.1 5.4-10.7 8.3-1.7 1.3-3.7 2.7-5.9 2.8-2 0.2-4-0.8-5.9-1.3-1.2-0.3-2.2 0.6-2.3 1.7-0.4 5.8 1.5 11.7 3.9 16.9 2.5 5.3 6.4 10.8 11.9 13.4q1.3 0.7 2.8 1c-3 3.7-5.3 8.7-8.1 11.4-0.4 0.4-0.7 0.7-0.9 0.8q-0.4 0.2-0.7 0.4c-0.2 0.1-0.2 0.1-0.2 0.1 0 0-0.1 0-0.2 0.1q-0.3 0.1-0.6 0.1c-0.1 0-0.5 0.1-0.6 0.1q-0.3 0-1.3-0.3c-1.9-0.7-3.2 2.4-1.4 3.3q0.3 0.1 0.5 0.1 0 0 0 0 0 0 0 0.1c4.2 1.8 9.2 3.1 13.9 2.9-2.7 2.2-5.1 4.9-7.1 7.9-4.6 6.7-9.1 15.1-8.8 23.5 0.1 1.3 1.5 2.4 2.7 1.6 3.2-2.2 7.1 0.1 9.9 1.8 3.2 2 6.2 4.2 9.6 5.9 4.5 2.3 9.5 3.9 14.3 3.6-7.1 5.6-12.6 12.4-12 22.2 0.1 1.6 1.9 2.4 3.1 1.3 3.2-3 6.7-5.6 11-6.5 1.9-0.4 3.9-0.4 5.8-0.4-8 8.1-11.6 19.5-14.9 30.4-0.4 1.3 0.9 2.6 2.2 2.2 4.5-1.4 9.1 0 13.3 1.6 4.4 1.7 8.7 4 13.3 5.4 3.8 1.1 7.9 1.7 11.9 2.1 3.7 0.4 7.6 0.4 11.3-0.4-0.6 2.9-0.9 5.9-0.7 8.8 0.2 4.7 1.4 9.2 2.2 13.8 0.9 5.2 0.7 10.2-1.9 14.9-0.5 1.1 0.2 2.9 1.6 2.7 12.1-1.4 21.3-10.7 26.2-21.4 0.5 2.3 1.1 4.6 2.1 6.8 1 2.3 2.4 4.9 4.9 6 1.3 0.5 2.6-0.1 2.7-1.6 0.4-4.4 1.7-8.9 5.1-12 3.3-3 7.9-4.3 12.1-5.1 4.9-1.1 10-1.6 14.9-2.9 1.3 6.7 4.4 13.4 9 18.4 0.7 0.9 2.3 0.7 2.8-0.3 1.1-2.3 1.5-4.7 2.1-7.1 0.5-2.6 1.5-4.6 3.4-6.5 3.4-3.4 8.1-5.3 12.4-7.5 3.6-1.9 7.4-4.1 10.7-6.8 1.6 1.7 3.5 3.2 5.5 4.5 3.5 2.4 7.4 4.2 11.5 5.5 3.6 1.1 7.4 1.7 10.8 3.2 4 1.7 6.9 4.4 5.9 9-0.3 1.6 1.8 3.3 3 1.7 6.3-7.8 11.7-17.7 11.7-28-0.1-5-1.6-9.7-4.6-13.6-2.1-2.9-4.9-5.1-7.4-7.4q3.6 0.7 7.3 0.2c4.4-0.6 8.9-2.5 13.4-1.7 4.5 0.8 8.5 3.8 10.7 7.8 0.6 1.1 2.5 1.1 3.1 0 3.7-6.8 4.1-16-0.5-22.4q1.6 0.2 3.2 0.3c7.8 0.4 16.2-1.3 22.9-5.2 3.3-1.9 6.4-4.6 8-8 0.7-1.5-0.4-3-2-2.7z"/>
			<path id="&lt;Path&gt;" class="s1" d="m1269.8 1767.9c-5 1.4-10.6 2-15.8 1.1q-0.4 0.1-0.8 0.2-0.2 0.1-0.3 0.2 0 0 0 0 0 0-0.1 0-0.2 0.1-0.4 0.2-0.3 0.1-0.5 0.3-0.1 0.1-0.2 0.1 0 0 0 0.1-0.1 0-0.1 0-0.2 0.1-0.4 0.3 0 0.1-0.1 0.2 0 0 0 0-0.2 0.2-0.3 0.5-0.1 0.1-0.1 0.2 0 0 0 0-0.1 0.3-0.2 0.6 0 0.1 0 0.3 0-0.1 0-0.1 0 0 0 0.1-0.1 0-0.1 0 1 2 1.5 4.2c2.2 4.2 2.3 9.4 0.6 14-2.4-3-5.6-5.1-9.2-6.3-5.5-1.7-10.7 0.2-16 1.1-1.2 0.2-2.8 0.3-4.4 0.2q-0.2 0-0.4 0c-1.9 0.2-4 0-6.1-0.5q0 0 0 0.1-0.3 0.1-0.6 0.3-0.1 0.1-0.1 0.1 0 0 0 0-0.1 0.1-0.2 0.2-0.1 0.1-0.2 0.2c-0.1 0-0.1 0.1-0.2 0.2 0 0-0.1 0.2-0.1 0.2q-0.1 0.1-0.2 0.2 0 0.2-0.1 0.3c0 0 0 0.1 0 0.2q-0.2 0.3-0.2 0.7 0 0 0 0-0.1 0.1-0.1 0.2c0 0 0.1 0.2 0.1 0.2q0 0.2 0 0.4c1.9 2 4 3.7 6 5.6 3.4 3.2 6.4 6.9 7.4 11.6 1 5 0 10.2-1.7 14.8-1.4 3.8-3.3 7.5-5.6 10.8-0.6-1.8-1.6-3.5-3.3-4.9-3.1-2.5-7.1-3.7-10.8-4.7-7.5-1.9-14.9-4.5-20.3-10.1q0 0 0-0.1-0.7-0.4-1.4-0.9-0.4 0-0.9-0.1c-1 0-1.8 0.4-2.7 0.8q-0.4 0.2-0.8 0.4-0.7 0.5-1.4 1c-2.8 2-5.9 3.7-9 5.3-4.1 2.1-8.4 4.1-11.9 7.3-2 1.9-3.5 4.2-4.2 6.9-0.5 1.6-0.7 3.4-1.2 5-2.5-3.5-4.4-7.6-5.5-11.8q-0.6-0.9-1-1.9c-0.2-0.7-0.5-1.4-0.7-2q0-0.2-0.1-0.4c-0.1-0.1-0.1-0.1-0.1-0.1q0-0.1 0-0.1-0.1-0.2-0.2-0.3 0 0 0 0c0 0 0 0-0.1-0.1q0-0.1-0.1-0.1-0.1-0.1-0.3-0.2 0 0 0 0-0.1-0.1-0.2-0.1-0.2-0.1-0.5-0.1c0 0-0.1 0-0.2 0-0.1-0.1-0.1-0.1-0.2-0.1q-0.3 0-0.7 0-0.1 0-0.3 0 0.1 0.1 0.1 0.1c-1.6 0.4-3.1 0.8-4.6 1.1-8.4 1.7-18.1 2-24.7 8.2-3.1 3-4.6 6.9-5.4 10.9-0.6-0.9-1.1-2-1.5-3-1-2.6-1.6-5.3-2.1-8q-0.1-1-0.3-2-0.1-0.2-0.3-0.3-0.2-0.3-0.5-0.5 0 0 0 0-0.2-0.1-0.3-0.2-0.1 0-0.2-0.1-0.1 0-0.2 0 0-0.1-0.1-0.1c0.1 0-0.1 0-0.2 0q-0.1 0-0.2 0 0 0 0 0-0.1 0-0.1 0-0.3 0.1-0.5 0.2 0 0 0 0-0.1 0-0.2 0.1-0.1 0-0.3 0.1-0.3 0.2-0.6 0.4-0.4 0.3-0.8 0.7c-3.5 10.2-11.1 19.6-21.4 22.2 1.1-3 1.6-6.2 1.4-9.4-0.3-4.4-1.4-8.6-2.1-12.9-0.8-4.7-0.7-9.4 0.4-13.8q-0.1-0.5-0.2-1.1-0.1-0.5-0.2-0.9-0.1-0.1-0.1-0.1 0 0 0-0.1-0.1-0.1-0.2-0.2 0-0.1 0-0.1-0.1-0.1-0.2-0.2-0.2-0.1-0.2-0.2-0.1 0-0.2-0.1-0.2-0.1-0.4-0.2 0 0 0 0-0.1 0-0.2-0.1-0.5-0.1-1-0.3-0.3-0.1-0.5-0.2c-4 1.1-8.4 1.1-12.4 0.7-3.8-0.5-7.7-1.2-11.3-2.3-4.4-1.5-8.5-3.6-12.8-5.3-3.7-1.4-7.7-2.4-11.7-2 3.6-11.5 7.8-23.6 18.4-30.3 2-1.2 0.2-4.4-1.8-3.1-2.1 1.3-4.4 1.3-6.8 1.3-2.5 0-4.9 0.2-7.3 0.8-3 0.9-5.6 2.5-8 4.4 1.3-8.7 8.5-14.5 16-19.3q0.2-0.5 0.3-1 0-0.2 0-0.4 0-0.1 0-0.1 0.1-0.3 0.1-0.5 0-0.1-0.1-0.2 0 0 0-0.1 0 0 0 0 0-0.2 0-0.3-0.1 0-0.1-0.1 0 0 0 0 0-0.1-0.1-0.1 0-0.1 0-0.1 0-0.1 0-0.1-0.1 0-0.2-0.1-0.1 0-0.1-0.1-0.1 0-0.3-0.1 0 0 0 0 0 0 0 0-0.1-0.1-0.2-0.1-0.2 0-0.4-0.1 0 0-0.1 0 0 0 0 0-0.3 0-0.7 0-0.4 0-0.9 0-0.1 0-0.1 0-0.1 0.1-0.1 0.1-0.3 0-0.5 0.1-0.1 0-0.2 0c-6.5 2.8-14.3-0.9-20.1-4.3-4.8-2.8-10.9-8.3-16.8-7 0.7-6.6 4.4-13.2 8-18.6 3.6-5.4 8.4-9.6 14.4-11.7q0-0.1 0.1-0.2 0-0.2 0-0.3 0 0 0 0 0-0.2 0-0.4 0-0.1 0-0.2 0 0 0 0 0 0 0-0.1-0.1-0.2-0.1-0.4 0 0-0.1 0 0-0.1-0.1-0.2 0-0.1-0.1-0.2 0 0 0-0.1-0.2-0.1-0.3-0.3-0.1-0.1-0.2-0.1 0 0 0 0 0 0 0 0-0.2-0.2-0.5-0.3 0 0 0-0.1-0.2 0.1-0.4 0.1c-2 0.2-4 0.5-6 0.4-3 0.8-6.3 0.6-9.5-0.2 1.5-1.2 2.7-2.7 3.8-4.2 1.4-2 2.6-4.1 3.9-6.1q0.7-1.1 1.4-2 0.2-0.8 0.8-1.6c0.9-1.2 2.3-2 3.7-2.6q0.1-0.2 0.2-0.4 0.1-0.1 0.2-0.3 0 0 0-0.1 0.1-0.2 0.1-0.5 0.1-0.2 0.2-0.5 0 0 0 0 0-0.2 0-0.3 0-0.2 0-0.5 0-0.1-0.1-0.2 0-0.1 0-0.2-0.1-0.1-0.1-0.1c-1.6 0.1-3 0.7-4.3 1.6-5.5-0.1-9.9-4.7-12.6-9.2-3-4.8-5.3-10.7-5.6-16.4 1.2 0.3 2.5 0.7 3.8 0.8 2 0.1 4-0.6 5.8-1.6 3.7-2 6.4-5.4 9.8-7.8 3.6-2.7 7.9-4.4 12.4-4.1q1 0.1 1.9 0.3 0.7 0 1.4 0.1c0.6 0 1 0 1.5-0.3 0.5-0.2 1-0.7 1.3-1q0 0 0 0c-0.6-1.5-1.1-3-1.3-4.5-0.8-2.3-1.3-4.6-1.9-6.9-1-3.9-1.6-7.8-3-11.5-0.8-2.2-1.8-4.1-3.1-5.9q-0.9-1.2-1.8-2.4c2.8-0.2 5.5-1.1 8.3-2.2 3.9-1.6 7.8-3.4 12.1-3.4 4.2 0 9 0.9 12.9 3.1 1.5 0 2.8-0.5 4-1.6 0.1-0.1 0.2-0.3 0.3-0.4q0.4-1.1 0.7-2.1c0.8-2.2 1.9-4.5 2.3-6.8 0.5-3-0.2-6.4-1-9.3q-0.9-3.1-2.6-5.9c3.5 0.1 7 0.7 10.2 2.3 4.1 2.2 7.2 5.7 9.7 9.5 0.6 0.9 2.1 1.4 2.9 0.4 5.2-6.4 0.1-14.6 0.5-21.8 0.2-3.6 1.3-7.4 2.8-10.8 1.1-2.5 2.6-4.9 4.5-6.9 0.2 2.2 0.9 4.3 2.4 6 2.7 3 7.1 4.3 10.8 5.5 4.5 1.5 9.3 2.7 12.8 6q1.3 1.1 2.2 2.5-0.2 0.2-0.3 0.4 0.2 0.2 0.4 0.3c0 0.1 0.1 0.1 0.1 0.2 0 0 0.1 0 0.1 0.1q0.1 0 0.3 0.1c0 0 0.3 0.1 0 0q0.1 0.1 0.2 0.1c0 0 0.1 0 0.2 0q0 0 0 0 0.1 0 0.3 0 0 0 0 0 0.1 0 0.2 0 0.1 0 0.2-0.1 0 0 0 0 0.4-0.2 0.8-0.5 0.3-0.1 0.5-0.3c0 0 0.1-0.1 0.1-0.1q0.1-0.1 0.2-0.1c0.7-0.6 1.3-1.2 2-1.7q0.2-0.1 0.4-0.2 0.7-0.6 1.4-1.1c3.5-2.9 7.8-4.5 11.8-6.3 4.5-2.1 8.7-4.7 12-8.5 1.7-2 3.5-4.4 4.6-7 1.5 2.8 3.2 5.6 4.1 8.7 0.6 2 0.9 4.1 0.7 6.1 0.4 0.4 0.4 1.2 0 1.6q-0.1 0-0.2 0.1 0 0 0 0.1 0 0-0.1 0.1-0.3 1.3-0.7 2.5 0 0.1 0 0.2-0.1 0.4-0.1 0.8 0 0.4 0 0.8 0.1 0.2 0.1 0.4 0 0.1 0 0.1 0 0 0 0.1 0.1 0.4 0.2 0.7 0 0.2 0.1 0.4 0 0.1 0.1 0.2 0.1 0.2 0.2 0.5 0.1 0 0.1 0.1 0.2 0.1 0.3 0.2c0.1 0.1 0.5 0.3 0.6 0.4q0.2 0 0.4 0.1c0 0 0.1 0 0.1 0q0.1 0 0.1 0c0.7 0 1 0 1.7-0.2q0.1 0 0.1 0c4.6-3.3 8.8-7.4 12.1-11.8 1.3-1.7 2.4-3.6 3.9-5.3q0-0.1 0.1-0.1c-0.8 1.8-1.3 3.7-1.3 5.7-0.1 4 1.3 7.8 3.3 11.1 4.4 7.5 11.6 12.8 14.8 21.1 0.9 2.2 1 4.2 0.8 6.7-0.2 2.1-0.5 4.3 0.3 6.3 0.4 1 1.6 1.9 2.7 1.1 2.8-2.1 4-5.3 5.6-8.4 1.8-3.2 4.4-6.1 7.3-8.3 2.8-2.2 6.1-3.7 9.5-4.8 2.2-0.6 4.5-1.2 6.9-1.3-2.6 2.7-5.8 4.8-7.3 8.3-2.9 6.4-1.1 13.5-1.2 20.2 0 1.3 1.6 2.3 2.8 1.6 1.4-1 2.2-2.2 3.4-3.5 1.1-1.3 2.6-2.2 4.1-3 3-1.6 6.2-2.4 9.4-3.1 2.7-0.6 5.4-0.9 8.1-1 1.7 0 3.7 0.1 5.4 0.7-2.7 1.9-5.4 3.3-6.6 6.7-1.7 4.5-0.4 9.5 0.7 13.9 1.8 7.2 3.1 15 1.6 22.4-0.9 4-2.7 7.9-6 10.5q-0.3 0.2-0.5 0.5c-1.5 1-0.6 3.8 1.5 3.2 4-1.2 8.1-2.3 12.3-2.2 2.9 0.1 5.8 0.8 8.6 1.5 3.8 0.9 8.6 2.1 12 4.6-1.9 0.4-3.8 1.1-5.5 2.2-2.5 1.7-4.5 4.1-6.2 6.6-3.4 4.8-6.4 10.5-12.4 12.2-1.9 0.6-1.6 3.8 0.5 3.6 6.3-0.7 12.6 0.8 18.1 4 2.2 1.3 4.4 2.7 6.3 4.4 1.2 1 2.4 2.2 3.3 3.6-6 0.6-10.9 4.2-15.5 7.9-1.9 1.5-3.8 3-5.8 4.3q-0.8 0.7-1.7 1.4-0.4 0.8-0.5 1.6c-0.1 1.2 0.4 2.3 1.1 3.2 2.9 1.1 5.4 2.9 7.5 5.6 4.9 6.4 5.7 15.2 11.4 21 2.6 2.7 5.8 3.8 9.2 3.8-3.2 3.8-8.5 5.9-13.1 7.1z"/>
			<path id="&lt;Path&gt;" class="s0" d="m1134.8 1798.2c-52.1 0-94.5-42.5-94.5-94.6 0-52.1 42.4-94.5 94.5-94.5 52.2 0 94.6 42.4 94.6 94.5 0 52.1-42.4 94.6-94.6 94.6z"/>
			<path id="&lt;Path&gt;" class="s2" d="m1134.8 1612.7c-50.1 0-90.9 40.8-90.9 90.9 0 50.2 40.8 90.9 90.9 90.9 50.2 0 91-40.7 91-90.9 0-50.1-40.8-90.9-91-90.9z"/>
		</g>
	</g>
</svg>