<svg version="1.2" xmlns="http://www.w3.org/2000/svg" viewBox="503 1967 290 276" width="290" height="276">
	<title>3hmd_4h4p_230323-ai</title>
	<defs>
		<clipPath clipPathUnits="userSpaceOnUse" id="cp1">
			<path d="m503 1967h290v276h-290z"/>
		</clipPath>
	</defs>
	<style>
		.s0 { fill: #000000 } 
		.s1 { fill: #333434 } 
		.s2 { fill: #4c4c4c } 
		.s3 { fill: #e9f7fe } 
	</style>
	<g id="Artboard 9" clip-path="url(#cp1)">
		<g id="&lt;Group&gt;">
			<path id="&lt;Path&gt;" class="s0" d="m750.4 2006.9c-28.1-29.2-74.6-30-103.8-1.8-27.1 26.2-29.7 68.3-7.2 97.5l-29.5 28.5c-6.7-5.4-9.3-4.4-10.2-3.5-0.3 0.3-0.5 0.7-0.7 1.2-8.4 8.1-75.3 72.4-75.4 72.5-1.2 1.1-2.7 5 8.5 16.5 11.2 11.6 15.1 10.3 16.2 9.2 0.1-0.2 31.5-30.7 60.9-59.4l14.1-13.7c0.5-0.1 0.9-0.4 1.2-0.6 0.9-0.9 2-3.5-3.2-10.3l29.6-28.5c28.4 23.5 70.6 22.4 97.7-3.8 29.2-28.2 30-74.6 1.8-103.8z"/>
			<path id="&lt;Path&gt;" class="s1" d="m606.4 2164.7c-20 19.5-56.2 54.8-60.5 59-1.4-0.5-5.5-3.1-10.9-8.7-5.3-5.5-7.8-9.7-8.2-11.2 5.7-5.5 69.2-66.5 75.5-72.5l0.2-0.2c0.9 0.4 2.4 1.3 4.4 2.9l-1.7 1.7c-0.6 0.5-0.8 1.3-0.6 2 0.1 0.2 0.8 2.7 3.3 5.3 1.6 1.7 4 3.3 7.4 4.4 0.7 0.2 1.4 0 1.9-0.5l1.1-1.1c1.6 2.1 2.5 3.7 2.8 4.6z"/>
			<path id="&lt;Path&gt;" class="s2" d="m615.3 2143.1c-3.8-1.5-5.6-4-6.3-5.4l32.8-31.7c2 3 4.2 4.9 5.9 6z"/>
			<path id="&lt;Path&gt;" class="s2" d="m745.5 2107.5c-27.4 26.5-71 25.7-97.5-1.7-26.4-27.4-25.7-71 1.7-97.5 27.4-26.5 71.1-25.7 97.5 1.7 26.5 27.4 25.7 71-1.7 97.5z"/>
			<path id="&lt;Path&gt;" class="s0" d="m745.8 2010.8c-25.8-26.7-68.4-27.5-95.1-1.7-26.7 25.8-27.4 68.4-1.6 95.1 25.7 26.7 68.4 27.4 95 1.6 26.7-25.7 27.4-68.4 1.7-95z"/>
			<path id="&lt;Path&gt;" class="s3" d="m741.3 2102.9c-25 24.2-65.1 23.5-89.3-1.5-24.2-25.1-23.5-65.2 1.5-89.4 25.1-24.2 65.2-23.5 89.4 1.6 24.2 25 23.5 65.1-1.6 89.3z"/>
		</g>
	</g>
</svg>