<svg version="1.2" xmlns="http://www.w3.org/2000/svg" viewBox="1466 1967 173 382" width="173" height="382">
	<title>3hmd_4h4p_230323-ai</title>
	<defs>
		<clipPath clipPathUnits="userSpaceOnUse" id="cp1">
			<path d="m1466 1967h173v382h-173z"/>
		</clipPath>
	</defs>
	<style>
		.s0 { fill: #94d9f8 } 
		.s1 { fill: #000000 } 
		.s2 { fill: #ee2647 } 
		.s3 { fill: #d7effc } 
	</style>
	<g id="Artboard 10" clip-path="url(#cp1)">
		<g id="&lt;Group&gt;">
			<path id="&lt;Compound Path&gt;" class="s0" d="m1513 2298.9c-0.2-1.2-1.6-1.3-2.1-0.5q-0.4 0-0.7 0.3c-4 5-8.3 9.6-12 14.8-3.7 5.3-7.3 11.3-7.8 17.9-0.5 5.9 2.4 14.4 9.4 14.7 3.3 0.1 6.4-1.8 8.6-4.2 2.7-3.2 4.1-7.6 5-11.6 2.1-10.3 0.6-21.1-0.4-31.4z"/>
			<path id="&lt;Path&gt;" class="s1" d="m1591.1 2127.4c-0.1-1.9-0.6-4-2.3-4.6-0.2 0-3.5-0.7-3.4-0.8 3.4-11.3 7.1-22.6 10.7-33.9 6.7-20.8 13.8-41.4 19.6-62.5 2.3-8.5 4.2-17.5 0.4-25.8-2-4.6-5.9-7.6-10.4-8.9-4.4-1.4-9.3-1.1-13.6 1.5-7.7 4.9-11.2 13.4-14 21.7-7 20.7-12.6 41.8-18.6 62.8-3.3 11.4-6.6 22.8-10 34.1q-0.2-0.1-0.4-0.1c-4-0.7-6.1 2.2-6.8 5.7-0.6 2.7-2.2 6.9-0.1 9.2q0.1 0.2 0.3 0.3c0.3-0.1 0.6-0.1 1 0l3.9 1.2-35.4 116.9-0.1 0.3c-0.1 0.4-1.8 10.3 4.1 19.4 0 2.2-2.1 10.8-3.8 17.9-0.5 2.1-1 4.2-1.5 6.2l-0.5 2 2.6 0.9-0.1 0.1 2 0.5 2 0.7v-0.1l2.6 0.7 0.7-1.9c0.8-2 1.5-4 2.3-6 2.5-6.8 5.6-15.2 6.8-17 9.9-4.2 14-13.5 14.2-13.9l36.1-117.3c2.2 0.2 5.8 0.4 6.2 0.5 2.7 0.6 5.9-5.5 5.5-9.8z"/>
			<path id="&lt;Path&gt;" class="s2" d="m1579.1 2025.3c1.4-4.5 2.8-8.9 4.4-13.3 1.4-3.8 3-7.5 5.5-10.7 2.2-2.9 5.1-5.4 8.6-6.4 2.3-0.5 4.7-0.5 6.9 0.1 2.1 0.8 4.1 2.1 5.7 3.7 2.4 2.8 3.4 6.6 3.6 10.1 0.3 4.1-0.4 8.1-1.4 12-1.1 4.5-2.4 9-3.7 13.5-2.9 9.8-6 19.5-9.1 29.1-6.3 19.1-12.6 38.2-18.5 57.4-7.8-2.2-15.6-4.3-23.3-6.9-1.4-0.4-2.7-1-4.1-1.6 5.8-19.2 11.2-38.5 16.7-57.8 2.7-9.8 5.6-19.5 8.7-29.2z"/>
			<path id="&lt;Path&gt;" class="s3" d="m1527 2264c-1.8 0.7-3 3.2-8.9 19.3q-0.7 2.1-1.5 4.1l-0.6-0.1-0.6-0.2q0.6-2.1 1.1-4.3c4.1-16.6 4.5-19.4 3.4-21-4.9-7.2-3.8-15.4-3.6-16.4l35.3-116.8 21.5 6.5q1 0.2 2 0.5l-35.9 116.8c-0.4 0.9-4.1 8.3-12.2 11.6z"/>
			<path id="&lt;Path&gt;" class="s2" d="m1586.1 2132.6c-0.3 0.8-0.4 0.7-1.5 0.6-1.2-0.1-2.5-0.4-3.8-0.8-3.4-0.9-6.9-1.5-10.4-2.4-4.4-1.1-8.7-2.3-12.9-3.6-3.7-1.1-7.3-2.2-11-3.2-0.2 0-0.7-0.2-0.9-0.3 0.1-1.2 0.4-2.4 0.6-3.6 0.2-1.1 0.3-3.1 1.1-3.9 0.7-0.6 1.9 0 2.7 0.3 2.8 0.8 5.4 2.1 8.2 3 9.6 2.9 19.4 5.6 29.1 8.5-0.3 1.8-0.4 3.7-1.2 5.4z"/>
		</g>
	</g>
</svg>