<svg version="1.2" xmlns="http://www.w3.org/2000/svg" viewBox="1712 0 517 537" width="517" height="537">
	<title>3hmd_4h4p_230323-ai</title>
	<defs>
		<clipPath clipPathUnits="userSpaceOnUse" id="cp1">
			<path d="m1712 0h517v537h-517z"/>
		</clipPath>
	</defs>
	<style>
		.s0 { fill: #000000 } 
		.s1 { fill: #e3534e } 
		.s2 { fill: #f48987 } 
		.s3 { mix-blend-mode: multiply;fill: #e3534e } 
	</style>
	<g id="Artboard 12" clip-path="url(#cp1)">
		<g id="&lt;Group&gt;">
			<path id="&lt;Compound Path&gt;" fill-rule="evenodd" class="s0" d="m2200.1 275.6c-5.1 6-11.5 10.6-18 14.9-6.1 4-12.3 8-18.6 11.7-3.2 1.9-6.9 3.8-10.8 2.8-3.6-0.9-6.4-3.9-8.9-6.5-11.1-11.2-23.1-20.9-37.9-26.7-7.4-2.9-15.1-4.9-23-5.8 9.1 6.7 16.8 15.2 22.2 25.2 13.4 24.9 10.7 53.4 1.2 79-5.7 15.2-12.8 29.9-21.7 43.4-8 12.1-17.4 23.5-29 32.3-6.2 6-12.7 11.6-19.5 16.7-27 20.4-58.1 34.8-90.4 44.6-30.4 9.2-62.7 15.1-94.6 15.6-31.5 0.5-65.9-5.9-86.2-32.3-10.2-13.3-16.8-29-21.8-44.8-4.7-15.3-8.1-31.1-9.9-47-3.7-31.9-1.1-64.5 6.6-95.7 7.5-31 20.2-61.4 39.3-87.1 8.7-11.8 18.7-22.3 31.4-29.9q0 0 0 0c-2.5-12.7-1.4-25.8 4-37.7 9.9-21.9 31.1-36.4 53.3-43.8 9.2-3.1 19-5 28.7-5.5 1.5-14.1 1.1-28.5-0.4-42.6-0.4-4.7-1.4-9.5 1.9-13.5 3-3.7 7.7-5.3 12.2-6.5 5.1-1.2 10.4-1.8 15.7-2.4 4.5-0.6 9.4-2 14-1 10.8 2.4 9.2 19.3 9.3 27.6 0.1 6.1 0.3 12.3-0.2 18.4-0.4 4.9-0.8 9.7-1.2 14.5q0.2 0.5 0.2 1 0 0.2 0 0.4c4.5-3.3 9.2-6.4 13.8-9.4 10.6-6.7 21.8-12.4 33.7-16.3 6.1-1.9 12.1-3.3 18.5-3.1 5.2 0.1 10.3 0.7 15.5 0.6 1.5-3.8 2.9-7.7 4.1-11.6q2.3-7.5 3.9-15.1c0.7-3.7 1.1-7.5 1.9-11.1 1.5-7 6-11.2 13-12.5 6.3-1.2 13-0.9 19.3 0.1 5.5 0.9 11.8 2.6 14.1 8.3 2.2 5.7 1.1 12.4 0 18.2-1.2 6-3 11.9-4.8 17.8-0.9 2.6-1.8 5.2-2.7 7.9-0.3 1.1-0.7 2.3-0.9 3.4-0.1 0.4-0.1 1.2-0.1 1.2 0 0.1 0 0.2 0.3 0.4 0.7 0.6 1.6 1 2.5 1.5 2.8 1.3 5.7 2.1 8.4 3.5 1.4 0.8 5.3 3.6 6.8 3.1 2-0.6 3.7-5.2 4.6-6.9 2.5-5.2 4.9-10.8 6.8-16.3 1.7-5.2 2.4-11.2 5.4-15.8 3.3-5.2 9.1-6.1 14.8-5.1 6.4 1.2 13.1 3 19.3 5.2 6.3 2.1 12.7 5 14.5 12 1.8 7.1-2.6 14-5.1 20.4-1.9 4.9-3.9 9.8-5.8 14.8-1.6 4.1-2.9 8.4-4.6 12.5-0.3 0.7-0.6 1.7-0.9 2.5 0.9 0.4 1.9 1.3 2.8 1.6 0.9 0.3 1.5 0.4 2.4 0.3 4-0.4 7.7-4.5 10.3-7.5 7.2-8.5 11.7-18.9 18.7-27.6 1.3-1.6 3.2-2.2 5-1.1 9.9 5.8 26.5 14.3 19.8 28.3-5.4 11.6-17.6 18-26.2 27 4.6 4.1 7.6 9.7 9.6 15.6 4.5 13.4 4.4 28.7 2.3 42.5-1.4 9.1-3.7 17.9-6.6 26.6-0.9 2.9-2.1 5.6-3.2 8.4q-0.8 2-1.6 4.1c8.4 7.1 15.7 15.3 21.7 24.6 1.8 2.8 3.6 5.8 4.8 8.9q0.8 0.6 1.5 1.5c1.3 1.7 0.9 3.6-0.3 4.9 0 4.7-2.2 8.8-5.2 12.4zm-124.4-109.3q0.1-0.5 0.1-1.1c0.2-3.8 0.6-9-0.7-12.4-1.7-4.4-7-8.7-11.3-11.2-2.3-1.3-4.8-2.5-7.4-3.1-1.7-0.9-3.4-1.4-5.2-1.7 1.5 1.3 3 2.8 4.4 4.2 4.6 4.5 9.4 9 13.4 14.1 2.7 3.4 5 7.2 6.7 11.2z"/>
			<path id="&lt;Path&gt;" class="s1" d="m1904.1 67.3c-0.3-5.3-1-10.7-1.3-16-0.2-4.2 2.5-5.8 6.2-7 8-2.7 17.3-3.4 25.7-4.3 1.3-0.1 3.3-0.4 4.5 0.4 1.5 1.1 1.8 3.8 2 5.4 0.9 5.1 0.7 10.4 0.8 15.5 0.1 5.9 0.2 11.6-0.2 17.5-0.4 5.9-1.1 11.8-1.3 17.7q-0.4 1.7-1.1 3.4-0.5 1-1.2 1.9-0.2 0.4-0.3 0.8c-1 0.8-1.9 1.5-2.9 2.3-9.9-3.9-20.5-5.8-31.2-6 1-10.5 0.9-21.1 0.3-31.6z"/>
			<path id="&lt;Path&gt;" class="s1" d="m2096.6 290.9c6.5 10.4 10 22.5 10.6 34.7 0.4 8.6-0.6 17-2.5 25.2q-0.7 4.7-1.8 9.3c-5.1 20.8-16 40.2-29 57.1-3.9 5-8.1 9.9-12.4 14.5-1.1-0.3-2.4-0.2-3.5 0.6-10.5 8.3-24.2 11.6-37.5 13.5 2.5-6.5 4.3-13.2 6.4-19.9 1.4-4.4-5.5-6.5-6.9-2.1-2.4 7.7-4.3 15.6-7.6 22.9q-1.3 0.2-2.6 0.3-5.8 0.6-11.7 1c-2.1-4.3-2.5-9.4-3.8-14-1.6-5.8-4.1-11.5-6.8-16.9-5.4-11.2-12.3-21.6-19.3-31.9-2.5-3.8-9-0.5-6.4 3.3 7 10.3 13.9 20.7 19.3 32 2.6 5.2 5.1 10.7 6.5 16.4 1 3.8 1.6 7.8 2.9 11.6-13.1 0.8-26.2 0.9-39.3-0.1-11.2-0.8-22.4-2.4-33.3-5.5-4.5-1.2-6.6 5.7-2.1 6.9 8.3 2.3 16.7 3.9 25.2 4.9q-1.7 0.8-3.5 1.5c-3.8 1.6-7.7 3.1-11.2 5.3-1.6 1-2.6 3.1-1.6 4.9 1 1.5 3.2 2.6 4.9 1.5 3.6-2.3 7.6-3.8 11.6-5.4 4.1-1.8 8.1-3.8 11.6-6.8 1.9-1.7 16.1 0.7 19.4 0.7q10.9 0.1 21.8-0.6c13.9-0.8 27.7-2.3 41.3-5.6q4.9-1.2 9.6-2.9c-2.8 2.3-5.8 4.4-8.8 6.2-44.9 36.3-103.7 54.2-160.3 60.5-29.5 3.3-64 3.8-89.7-13.3-12.8-8.5-21.3-21.5-27.7-35.2-7-14.8-11.5-30.8-14.7-46.9-6-29.5-6.3-59.7-1.8-89.5 4.7-30.9 14.5-61.5 29.9-88.7 4.6-8.2 9.8-16.3 15.7-23.7-1.5 4.3-2.9 8.7-4.1 13.1-3 10.9-4.9 22.2-5.6 33.5-0.9 12.9-0.6 26.2 1.4 39.1-7.1 7.8-14.8 16.9-15.4 27.7-0.2 4.7 7 4.9 7.3 0.3 0.2-4.6 2.5-8.9 5.1-12.8 1.5-2.2 3-4.2 4.7-6.2 0.6 3.1 1.4 6.1 2.3 9q1.3 4.3 2.9 8.4 0 0.2-0.1 0.4c-1.8 5.9-4.5 11.4-6.7 17.1-2.3 6-4 12.2-5.3 18.5-2.5 12.2-3.4 24.7-3.9 37.2-0.1 4.6 7.1 4.9 7.2 0.2 0.5-12.2 1.3-24.4 3.9-36.4 1.2-5.9 2.8-11.7 5-17.4 1.4-3.5 2.9-6.9 4.3-10.4 2.1 3.6 4.4 7.1 7.2 10.4 3 3.5 8.3-1.4 5.3-4.9-11.6-13.6-15.9-32.3-17.6-49.7q-0.3-3.3-0.5-6.7c2.7 2.4 5.8 4.3 8.6 6.6 4.4 3.6 8.6 7.4 12.7 11.3 7.3 6.8 14.2 14 20.5 21.8 11.8 14.4 20.7 30.8 23.1 49.6 0.6 4.6 7.6 2.9 7-1.6-2.4-19.3-11.6-36.4-23.6-51.4-6.4-8-13.4-15.5-20.8-22.5-4.2-3.9-8.5-7.7-12.8-11.4-3.9-3.2-8.5-5.8-11.8-9.7-1-1.1-2.2-1.3-3.3-1.1-0.1-10.5 0.6-21.1 2.4-31.4 2.5 1.7 5.3 3.2 7.7 5 4.9 3.8 9.4 8.1 13.5 12.7 3 3.5 8.4-1.4 5.3-4.9-4.3-4.7-9-9.1-14-13.2-3.4-2.7-7.9-4.5-10.9-7.7q0.3-1.5 0.7-3.1c1.5-6 3.4-11.8 5.3-17.6 2-6 3.9-12 7.6-17.3 8.1-7.1 17.4-12.8 28.1-16.4 24.8-8.1 52-4.5 75.4 6.1 6 2.7 11.7 6 17.2 9.5 3.9 2.5 7.8-3.6 3.9-6.1-23.2-14.9-50.9-23.4-78.6-20.6-10.7 1.1-21.2 4-30.9 8.7-7.4-45.8 41.6-75.2 82.4-76.3 9.9-0.3 19.9 0.9 29.3 4.1-5.4 5-10.6 10.4-15.1 16.2-6.9 8.7-12.4 18.8-13.5 30.1-0.4 4.6 6.8 4.8 7.2 0.2 0.9-9 5.5-17.3 10.8-24.4 4.7-6.3 10.3-11.6 15.8-17.1 0.6-0.6 1.1-1.1 1.8-1.5q0.1-0.1 0.2-0.2 4.9-4.8 10.2-9.3 0.1-0.1 0.2-0.1c8.3-7.1 17.4-13.6 26.9-19 8.9-5 19-9.4 29.4-10.5 3.3-0.8 6.6-1.4 10-1.3 6.4 0 12.7 1.1 19.1 0.5 1.8-0.1 2.9-0.9 3.6-2.5 3.8-9.5 6.9-19.2 8.9-29.2 0.7-3.7 1.1-7.5 1.9-11.2 0.5-2.4 1.2-4.7 3.4-6.1 5-3.1 13.2-2.1 18.8-1.5 2.8 0.3 6 0.8 8.5 2.1 1.9 0.9 2.4 2.3 2.6 4.4 0.9 6-0.9 12.5-2.4 18.3-1.4 5.4-3.2 10.7-5 16-1.3 4-3.4 9-1.1 13 2.7 4.5 9 5.5 13.3 7.6 5.5 2.7 11.8 7 17 1.3 4.3-4.8 6.5-11.3 8.9-17.2 2.1-5.4 4.1-10.7 5.6-16.3 1.2-4 2.2-8.1 7-8 3.1 0.1 6.1 1.1 9.1 1.9 3.3 0.8 6.6 1.6 9.8 2.6 5.4 1.7 13 3.7 12 10.8-0.5 3.4-2.3 6.7-3.6 9.8-1.9 4.3-3.5 8.7-5.2 13.1-1.9 4.7-3.8 9.4-5.4 14.2-0.8 2.5-2.2 4.9-2.8 7.4-1.2 5.4 5.1 8.7 9.6 9.7 5 1 9.8-1.4 13.6-4.5 9-7.5 14.5-18.7 20.8-28.3q0.8-1.3 1.7-2.6c4.2 2.3 8.4 4.7 11.8 8 1.6 1.6 3.4 3.6 3.5 5.9 0.1 2.2-1.3 4.4-2.5 6.2-7 10.2-18.6 16.4-26.5 25.9-1.3 1.6-0.3 4.1 1.1 5 11.4 7.3 13 24.6 13.2 36.8 0.1 15.9-3.4 32-9.2 46.7-0.4 1.1-1.5 3.1-2.4 5.3q-1.9-1.4-4-2.8c-13.8-9.3-29.7-16.3-45.6-21.6-13.6-4.5-27.5-6.6-41.6-5.7 0.2-2.2 0.8-4.6 1.1-6.8 0.8-5.7 1.5-11.4 1.7-17.2 0.2-4.8 0.4-10.2-1.6-14.7-0.8-1.9-2-3.8-3.4-5.5 3 1.9 5.7 4.1 8 6.9 2.9 3.6 8.3-1.3 5.3-4.9-6.6-8.2-16.9-12.6-27.1-14.6-10.3-2.1-21.1-2.3-31.4-0.2-9 1.7-17.6 5.8-25.3 10.6q-4.3 2.6-8.3 5.6c-15.2 12.9-26.6 30.1-33.6 48.8-1.6 5.6-2.8 11.3-3.1 17q0 0.1 0 0.3c-3.6 3.2-6.9 6.6-10.2 10-9.9-3.6-20.1-6.5-30.4-8.4-22.5-4.4-45.8-4.6-68.3 0.4-4.6 1-3 8 1.6 7 27.2-6 55.8-4.1 82.5 3.8q3.6 0.8 7.2 1.8c20.7 5.7 40.1 16.3 56.5 30 8.1 6.8 15.5 14.4 21.8 22.9 10.5 12.6 18.7 27 23.3 43.1 3.3 11.3 4.7 22.9 4.7 34.8 0 11-0.3 23.8-6.6 33.4-2.6 3.9 3.5 7.7 6.1 3.8 5.9-9 7.2-20.5 7.6-31.1 0.4-10.8-0.2-21.6-2.3-32.2-4-20.6-13.3-39.5-26.6-55.6 12-5.6 24.6-10.3 37.9-11.5 0.5-0.1 1-0.1 1.5-0.1 11.2 5.9 21 14.3 27.7 25.2z"/>
			<path id="&lt;Path&gt;" class="s1" d="m1848.1 173.7c27.7-2.8 55.4 5.7 78.6 20.6 0.7 0.5 1.2 1.1 1.4 1.8 2.2 1.5 4.3 3.1 6.4 4.9 4.7 4 8.9 8.4 12.7 13.2 2.1 2.6 4.1 5.5 6.5 8.1 2.9-3 5.8-5.9 8.9-8.7q0-0.2 0-0.3c0.3-5.7 1.5-11.4 3.1-17 7-18.7 18.4-35.9 33.6-48.8q4-3 8.3-5.6c7.7-4.8 16.3-8.9 25.3-10.6 10.3-2.1 21.1-1.9 31.4 0.2 10.2 2 20.5 6.4 27.1 14.6 3 3.6-2.4 8.5-5.3 4.9-2.3-2.8-5-5-8-6.9 1.4 1.7 2.6 3.6 3.4 5.5 2 4.5 1.8 9.9 1.6 14.7-0.2 5.8-0.9 11.5-1.7 17.2-0.3 2.2-0.9 4.6-1.1 6.8 14.1-0.9 28 1.2 41.6 5.7 15.9 5.3 31.8 12.3 45.6 21.6q2.1 1.4 4 2.8c0.9-2.2 2-4.2 2.4-5.3 5.8-14.7 9.3-30.8 9.2-46.7-0.2-12.2-1.8-29.5-13.2-36.8-1.4-0.9-2.4-3.4-1.1-5 7.9-9.5 19.5-15.7 26.5-25.9 1.2-1.8 2.6-4 2.5-6.2-0.1-2.3-1.9-4.3-3.5-5.9-3.4-3.3-7.6-5.7-11.8-8q-0.9 1.3-1.7 2.6c-6.3 9.6-11.8 20.8-20.8 28.3-3.8 3.1-8.6 5.5-13.6 4.5-4.5-1-10.8-4.3-9.6-9.7 0.6-2.5 2-4.9 2.8-7.4 1.6-4.8 3.5-9.5 5.4-14.2 1.7-4.4 3.3-8.8 5.2-13.1 1.3-3.1 3.1-6.4 3.6-9.8 1-7.1-6.6-9.1-12-10.8-3.2-1-6.5-1.8-9.8-2.6-3-0.8-6-1.8-9.1-1.9-4.8-0.1-5.8 4-7 8-1.5 5.6-3.5 10.9-5.6 16.3-2.4 5.9-4.6 12.4-8.9 17.2-5.2 5.7-11.5 1.4-17-1.3-4.3-2.1-10.6-3.1-13.3-7.6-2.3-4-0.2-9 1.1-13 1.8-5.3 3.6-10.6 5-16 1.5-5.8 3.3-12.3 2.4-18.3-0.2-2.1-0.7-3.5-2.6-4.4-2.5-1.3-5.7-1.8-8.5-2.1-5.6-0.6-13.8-1.6-18.8 1.5-2.2 1.4-2.9 3.7-3.4 6.1-0.8 3.7-1.2 7.5-1.9 11.2-2 10-5.1 19.7-8.9 29.2-0.7 1.6-1.8 2.4-3.6 2.5-6.4 0.6-12.7-0.5-19.1-0.5-3.4-0.1-6.7 0.5-10 1.3-10.4 1.1-20.5 5.5-29.4 10.5-9.5 5.4-18.6 11.9-26.9 19q-0.1 0-0.2 0.1-5.3 4.5-10.2 9.3-0.1 0.1-0.2 0.2c-0.7 0.4-1.2 0.9-1.8 1.5-5.5 5.5-11.1 10.8-15.8 17.1-5.3 7.1-9.9 15.4-10.8 24.4-0.4 4.6-7.6 4.4-7.2-0.2 1.1-11.3 6.6-21.4 13.5-30.1 4.5-5.8 9.7-11.2 15.1-16.2-9.4-3.2-19.4-4.4-29.3-4.1-40.8 1.1-89.8 30.5-82.4 76.3 9.7-4.7 20.2-7.6 30.9-8.7z"/>
			<path id="&lt;Path&gt;" class="s2" d="m2102.9 360.1q1.1-4.6 1.8-9.3c1.9-8.2 2.9-16.6 2.5-25.2-0.6-12.2-4.1-24.3-10.6-34.7-6.7-10.9-16.5-19.3-27.7-25.2-0.5 0-1 0-1.5 0.1-13.3 1.2-25.9 5.9-37.9 11.5 13.3 16.1 22.6 35 26.6 55.6 2.1 10.6 2.7 21.4 2.3 32.2-0.4 10.6-1.7 22.1-7.6 31.1-2.6 3.9-8.7 0.1-6.1-3.8 6.3-9.6 6.6-22.4 6.6-33.4 0-11.9-1.4-23.5-4.7-34.8-4.6-16.1-12.8-30.5-23.3-43.1-6.3-8.5-13.7-16.1-21.8-22.9-16.4-13.7-35.8-24.3-56.5-30q-3.6-1-7.2-1.8c-26.7-7.9-55.3-9.8-82.5-3.8-4.6 1-6.2-6-1.6-7 22.5-5 45.8-4.8 68.3-0.4 9.4 1.8 18.6 4.3 27.6 7.5-1.2-1.5-2.4-3.1-3.6-4.7-3.7-4.7-7.7-9.1-12.2-13.2-2-1.8-4.2-3.5-6.4-5.2-1.1 1.3-2.8 2-4.6 0.8-5.5-3.5-11.2-6.8-17.2-9.5-23.4-10.6-50.6-14.2-75.4-6.1-10.7 3.6-20 9.3-28.1 16.4-3.7 5.3-5.6 11.3-7.6 17.3-1.9 5.8-3.8 11.6-5.3 17.6q-0.4 1.6-0.7 3.1c3 3.2 7.5 5 10.9 7.7 5 4.1 9.7 8.5 14 13.2 3.1 3.5-2.3 8.4-5.3 4.9-4.1-4.6-8.6-8.9-13.5-12.7-2.4-1.8-5.2-3.3-7.7-5-1.8 10.3-2.5 20.9-2.4 31.4 1.1-0.2 2.3 0 3.3 1.1 3.3 3.9 7.9 6.5 11.8 9.7 4.3 3.7 8.6 7.5 12.8 11.4 7.4 7 14.4 14.5 20.8 22.5 12 15 21.2 32.1 23.6 51.4 0.6 4.5-6.4 6.2-7 1.6-2.4-18.8-11.3-35.2-23.1-49.6-6.3-7.8-13.2-15-20.5-21.8-4.1-3.9-8.3-7.7-12.7-11.3-2.8-2.3-5.9-4.2-8.6-6.6q0.2 3.4 0.5 6.7c1.7 17.4 6 36.1 17.6 49.7 3 3.5-2.3 8.4-5.3 4.9-2.8-3.3-5.1-6.8-7.2-10.4-1.4 3.5-2.9 6.9-4.3 10.4-2.2 5.7-3.8 11.5-5 17.4-2.6 12-3.4 24.2-3.9 36.4-0.1 4.7-7.3 4.4-7.2-0.2 0.5-12.5 1.4-25 3.9-37.2 1.3-6.3 3-12.5 5.3-18.5 2.2-5.7 4.9-11.2 6.7-17.1q0.1-0.2 0.1-0.4-1.6-4.1-2.9-8.4c-0.9-2.9-1.7-5.9-2.3-9-1.7 2-3.2 4-4.7 6.2-2.6 3.9-4.9 8.2-5.1 12.8-0.3 4.6-7.5 4.4-7.3-0.3 0.6-10.8 8.3-19.9 15.4-27.7-2-12.9-2.3-26.2-1.4-39.1 0.7-11.3 2.6-22.6 5.6-33.5 1.2-4.4 2.6-8.8 4.1-13.1-5.9 7.4-11.1 15.5-15.7 23.7-15.4 27.2-25.2 57.8-29.9 88.7-4.5 29.8-4.2 60 1.8 89.5 3.2 16.1 7.7 32.1 14.7 46.9 6.4 13.7 14.9 26.7 27.7 35.2 25.7 17.1 60.2 16.6 89.7 13.3 56.6-6.3 115.4-24.2 160.3-60.5 3-1.8 6-3.9 8.8-6.2q-4.7 1.7-9.6 2.9c-13.6 3.3-27.4 4.8-41.3 5.6q-10.9 0.7-21.8 0.6c-3.3 0-17.5-2.4-19.4-0.7-3.5 3-7.5 5-11.6 6.8-4 1.6-8 3.1-11.6 5.4-1.7 1.1-3.9 0-4.9-1.5-1-1.8 0-3.9 1.6-4.9 3.5-2.2 7.4-3.7 11.2-5.3q1.8-0.7 3.5-1.5c-8.5-1-16.9-2.6-25.2-4.9-4.5-1.2-2.4-8.1 2.1-6.9 10.9 3.1 22.1 4.7 33.3 5.5 13.1 1 26.2 0.8 39.3 0.1-1.3-3.8-1.9-7.8-2.9-11.6-1.4-5.7-3.9-11.2-6.5-16.4-5.4-11.3-12.3-21.7-19.3-32-2.6-3.8 3.9-7.1 6.4-3.3 7 10.3 13.9 20.7 19.3 31.9 2.7 5.4 5.2 11.1 6.8 16.9 1.3 4.6 1.7 9.7 3.8 14q5.9-0.4 11.7-1 1.3-0.1 2.6-0.3c3.3-7.3 5.2-15.2 7.6-22.9 1.4-4.4 8.3-2.3 6.9 2.1-2.1 6.7-3.9 13.4-6.4 19.9 13.3-1.9 27-5.2 37.5-13.5 1.1-0.8 2.4-0.9 3.5-0.6 4.3-4.6 8.5-9.5 12.4-14.5 13-16.9 23.9-36.3 29-57.1z"/>
			<path id="&lt;Path&gt;" class="s3" d="m1848.1 173.7c27.7-2.8 55.4 5.7 78.6 20.6 1.2 0.8 1.7 2 1.6 3.1 10.2 6 19.6 13.9 27.1 23.2 2.3-2.4 4.7-4.8 7.2-7q0-0.2 0-0.3c0.3-5.7 1.5-11.4 3.1-17 7-18.7 18.4-35.9 33.6-48.8q4-3 8.3-5.6c7.7-4.8 16.3-8.9 25.3-10.6 10.3-2.1 21.1-1.9 31.4 0.2 10.2 2 20.5 6.4 27.1 14.6 3 3.6-2.4 8.5-5.3 4.9-2.3-2.8-5-5-8-6.9 1.4 1.7 2.6 3.6 3.4 5.5 2 4.5 1.8 9.9 1.6 14.7-0.2 5.8-0.9 11.5-1.7 17.2-0.3 2.2-0.9 4.6-1.1 6.8 14.1-0.9 28 1.2 41.6 5.7 15.9 5.3 31.8 12.3 45.6 21.6q2.1 1.4 4 2.8c0.9-2.2 2-4.2 2.4-5.3 5.8-14.7 9.3-30.8 9.2-46.7-0.2-12.2-1.8-29.5-13.2-36.8-1.4-0.9-2.4-3.4-1.1-5 7.9-9.5 19.5-15.7 26.5-25.9 1.2-1.8 2.6-4 2.5-6.2-0.1-2.3-1.9-4.3-3.5-5.9-3.4-3.3-7.6-5.7-11.8-8q-0.9 1.3-1.7 2.6c-6.3 9.6-11.8 20.8-20.8 28.3-3.8 3.1-8.6 5.5-13.6 4.5-4.5-1-10.8-4.3-9.6-9.7 0.6-2.5 2-4.9 2.8-7.4 1.6-4.8 3.5-9.5 5.4-14.2 1.7-4.4 3.3-8.8 5.2-13.1 1.3-3.1 3.1-6.4 3.6-9.8 1-7.1-6.6-9.1-12-10.8-3.2-1-6.5-1.8-9.8-2.6-3-0.8-6-1.8-9.1-1.9-4.8-0.1-5.8 4-7 8-1.5 5.6-3.5 10.9-5.6 16.3-2.4 5.9-4.6 12.4-8.9 17.2-5.2 5.7-11.5 1.4-17-1.3-4.3-2.1-10.6-3.1-13.3-7.6-2.3-4-0.2-9 1.1-13 1.8-5.3 3.6-10.6 5-16 1.5-5.8 3.3-12.3 2.4-18.3-0.2-2.1-0.7-3.5-2.6-4.4-2.5-1.3-5.7-1.8-8.5-2.1-5.6-0.6-13.8-1.6-18.8 1.5-2.2 1.4-2.9 3.7-3.4 6.1-0.8 3.7-1.2 7.5-1.9 11.2-2 10-5.1 19.7-8.9 29.2-0.7 1.6-1.8 2.4-3.6 2.5-6.4 0.6-12.7-0.5-19.1-0.5-3.4-0.1-6.7 0.5-10 1.3-10.4 1.1-20.5 5.5-29.4 10.5-9.5 5.4-18.6 11.9-26.9 19q-0.1 0-0.2 0.1-5.3 4.5-10.2 9.3-0.1 0.1-0.2 0.2c-0.7 0.4-1.2 0.9-1.8 1.5-5.5 5.5-11.1 10.8-15.8 17.1-5.3 7.1-9.9 15.4-10.8 24.4-0.4 4.6-7.6 4.4-7.2-0.2 1.1-11.3 6.6-21.4 13.5-30.1 4.5-5.8 9.7-11.2 15.1-16.2-9.4-3.2-19.4-4.4-29.3-4.1-40.8 1.1-89.8 30.5-82.4 76.3 9.7-4.7 20.2-7.6 30.9-8.7z"/>
			<path id="&lt;Path&gt;" class="s1" d="m1973.2 196.8c0.7-3 11.1-26.4 16.9-33.1 0.3 0.6 0.6 1.1 0.8 1.7 0.1 0.1 0.2 0.5 0.3 0.6 0 0.2 0.2 0.6 0.2 0.6q0.3 0.9 0.5 1.8c0.7 2.5 1.2 5.1 1.5 7.7 0.3 2.2 0.4 4.8 0.4 7.3q-0.1 4-0.6 8-0.1 0.5 0 0.9-5 2.4-9.6 5.3c-4.5 2.8-8.8 5.8-13 9.1 2.7-2.1 1.9-6.9 2.6-9.9z"/>
			<path id="&lt;Path&gt;" class="s1" d="m2188.2 257.9c-7.5 3.5-14.4 8.8-20.4 14.5-4.5 4.2-10.2 9.7-11.7 15.9-0.6 2.9-0.4 6.6 1.4 9-0.6 0.2-1.2 0.5-1.8 0.7-1.2 0.3-1.2 0.2-2.2-0.4-3.7-2.3-6.7-6.4-9.9-9.5-19.7-18.9-46.6-31.5-74.3-29.7-14.3 1-27.9 5.6-40.9 11.5-1.3 0.5-2.5 1.2-3.7 1.8-17.9-19.6-40.5-35-65.1-45.2q3.6-3.7 7.4-7.2c10.3-9.4 21.8-17.8 34.9-22.9 6.7-2.6 13.9-4.1 21.1-3.9 4.6 0.2 4.9-7 0.2-7.2-7.7-0.2-15.3 1.3-22.6 3.9 0.5-4.9 0.5-9.8-0.1-14.7-0.7-5.4-2.1-10.8-4.6-15.5q0 0 0-0.1c5.5-5.8 12.4-10.4 19.9-13.4 4.7-2.6 9.6-4.8 14.7-6.3 2.3-0.6 4.6-1.1 7-1.4q0.2 0 0.3-0.1 0.3 0.1 0.5 0.2c5.4 0.9 9.2 5.2 12.9 8.8 4.3 4.3 8.7 8.5 12.4 13.2 3.6 4.6 6.3 9.7 7.5 15.4 1 4.5 1.4 9.2 1.9 13.8 0 0.2-0.1 0.5-0.1 0.7q0.1 0.4 0.1 0.7c-0.9 2.2 0.9 5.7 4.1 5.3 13.4-1.6 26.7 0.2 39.5 4.1 13.5 4.2 26.8 9.8 39 16.8 12.7 7.3 24 16.6 32.9 28.2 2.4 3.2 5.1 6.7 7.1 10.5-2.7 0.5-5.3 1.5-7.4 2.5z"/>
		</g>
	</g>
</svg>