<svg version="1.2" xmlns="http://www.w3.org/2000/svg" viewBox="904 2048 267 261" width="267" height="261">
	<title>3hmd_4h4p_230323-ai</title>
	<defs>
		<clipPath clipPathUnits="userSpaceOnUse" id="cp1">
			<path d="m904 2048h267v261h-267z"/>
		</clipPath>
	</defs>
	<style>
		.s0 { fill: #000000 } 
		.s1 { fill: #fff140 } 
	</style>
	<g id="Artboard 13" clip-path="url(#cp1)">
		<g id="&lt;Group&gt;">
			<path id="&lt;Path&gt;" class="s0" d="m1038.7 2071.3c-63 0-114.1 51.1-114.1 114.1 0 63 51.1 114.1 114.1 114.1 63 0 114.1-51.1 114.1-114.1 0-63-51.1-114.1-114.1-114.1z"/>
			<path id="&lt;Path&gt;" class="s1" d="m1038.7 2292.1c-58.9 0-106.7-47.8-106.7-106.7 0-58.9 47.8-106.7 106.7-106.7 58.9 0 106.7 47.8 106.7 106.7 0 58.9-47.8 106.7-106.7 106.7z"/>
			<path id="&lt;Path&gt;" class="s0" d="m1038.7 2213.5c15.5 0 28.1-12.6 28.1-28.1 0-15.5-12.6-28.1-28.1-28.1-15.5 0-28 12.6-28 28.1 0 15.5 12.5 28.1 28 28.1z"/>
			<path id="&lt;Path&gt;" class="s0" d="m996.7 2185.4c0-15.7 8.5-29.3 21.2-36.5l-29-47.2c-28.5 17-47.5 48.1-47.5 83.7q0 1.3 0 2.6l55.3-2q0-0.3 0-0.6z"/>
			<path id="&lt;Path&gt;" class="s0" d="m1088.5 2101.7l-28.5 47.4c11.7 6.9 19.8 19.4 20.7 33.8l55.3-2c-1.5-33.7-20.2-62.9-47.5-79.2z"/>
			<path id="&lt;Path&gt;" class="s0" d="m1038.7 2227.4c-8.1 0-15.6-2.3-22-6.2l-28.5 47.4c14.7 9 32 14.2 50.5 14.2 19.2 0 37.2-5.6 52.2-15.2l-28.9-47.2c-6.7 4.4-14.7 7-23.3 7z"/>
		</g>
	</g>
</svg>