<svg version="1.2" xmlns="http://www.w3.org/2000/svg" viewBox="0 2048 248 222" width="248" height="222">
	<title>3hmd_4h4p_230323-ai</title>
	<defs>
		<clipPath clipPathUnits="userSpaceOnUse" id="cp1">
			<path d="m0 2048h248v222h-248z"/>
		</clipPath>
	</defs>
	<style>
		.s0 { fill: #000000 } 
		.s1 { fill: #d7effc } 
		.s2 { mix-blend-mode: multiply;fill: #d7effc } 
		.s3 { fill: #59b0d3 } 
		.s4 { fill: #ffffff } 
	</style>
	<g id="Artboard 14" clip-path="url(#cp1)">
		<g id="&lt;Group&gt;">
			<path id="&lt;Path&gt;" class="s0" d="m228.1 2106.8q0.1-0.8 0.1-1.5c0.2-3.4 0.3-6.7 0-10-0.1-1.9-0.4-3.8-1-5.6-0.5-2.7-1.5-5.2-3.4-6.9-1.6-1.5-3.7-2-5.8-2.3-2.4-0.3-4.9-0.4-7.4-0.6q-8.9-0.8-17.7-1.2c-11.8-0.6-23.6-0.8-35.4-0.8-9.8 0.1-19.7 0.7-29.5 0.8-9.7 0-21.1 0.8-29.6 5.8-8.7 5.3-18.4 9.4-27.7 13.5-9.6 4.3-19.1 9.3-27.1 16.2-3.2 2.9-6.7 6.1-8.6 10-2.1 4.1-1.9 8.4-1.7 12.9 0.5 12.2 0.5 24.4 0.5 36.6 0 12.3 0 24.5 0.6 36.7q0.4 9.2 1.3 18.4c0.4 4 0.5 8.4 2.4 12.1 1.9 4 5.7 6 9.8 7 1.8 0.4 3.6 0.7 5.4 0.8 3.4 0.5 6.9 0.7 10.4 0.7 3.6 0 7.2-0.1 10.8-0.2 3.6 0 7.1 0.2 10.7 0.2 7.9 0.2 15.7-0.2 23.6-0.2 7.9 0 15.8 0.4 23.7 0.5 7.6 0.1 15.3 0.2 22.9 0.1 3.5-0.1 7.1-0.4 10.4-1.7 3.1-1.2 6-3 8.7-5 5.8-4.4 11.1-9.5 16.4-14.4 5.5-5.3 11-10.6 16.7-15.7 4.2-3.7 8.4-7.3 12.4-11.1 1.9-1.8 2.8-3.6 3.6-6.1 1.1-3.1 1.6-6.4 1.6-9.7q0.3-5 0.6-10.1c0.4-7.3 0.9-14.7 1.2-22.1 0.4-7.5 0.6-15 0.9-22.6 0.2-7.4 0.6-14.8 0.3-22.2q0-1.2-0.1-2.3z"/>
			<path id="&lt;Path&gt;" class="s1" d="m211.5 2207.2c0 0.5-3.5 3.2-4 3.6q-2.5 2.5-5.1 4.9-5.4 5-10.9 9.7-8 6.9-16.3 13.3c-5.2 4-10 7.5-16.8 8q-1.7 0.1-3.4 0.1c-2.5 0.4-5 0.5-7.4 0.6q-7.7 0.1-15.3 0c-9.3-0.1-18.5-0.8-27.8-0.9-8.5-0.1-17.1-0.1-25.7 0.4-5.4 0.3-10.8 0.8-16.3 0.6-2.7-0.1-5.6-0.4-8.3-1.1q-1.2-0.4-2.5-0.9c-2.3-0.5-4.6-1.2-6.9-2.2q-0.5-0.2-0.9-0.1-0.2-0.1-0.4-0.2c-3-2.2-3.9-5.9-4.4-9.4-0.7-5.2-1.1-10.5-1.4-15.8-0.7-11.8-0.9-23.6-1-35.4 0-11.9 0.2-23.7-0.1-35.5q-0.1-4.5-0.3-8.9c-0.1-2.5-0.3-5.1-0.1-7.6 0.4-3.8 2.3-6.8 4.8-9.6 7-7.5 15.8-12.9 24.9-17.3 4.9-2.4 9.9-4.6 14.9-6.9 6.1-2.9 12.6-5.2 18.5-8.5 6.5-3.5 13.1-6.2 20.6-6.2 9.7-0.6 19.5-0.8 29.2-0.9q17-0.3 33.9 0.2c11.1 0.4 22.1 1.2 33.1 2.1 1.9 0.1 4.1 0.2 5.7 1.6 2.9 2.5 3 8.5 3.2 12q0 0.2 0 0.4 0.3 1.2 0.5 2.3 0 2.2-0.1 4.4-0.6 10.7-1.1 21.3c-0.8 16.5-1.9 33-2.1 49.5 0 8 0.8 16.8-3 24.1q-0.2 0.4-0.2 0.7c-0.1 2-4.5 4.9-5.7 6q-0.9 0.8-1.8 1.6z"/>
			<path id="&lt;Path&gt;" class="s1" d="m211.5 2207.2c0 0.5-3.5 3.2-4 3.6q-2.5 2.5-5.1 4.9-5.4 5-10.9 9.7-8 6.9-16.3 13.3c-5.2 4-10 7.5-16.8 8q-1.7 0.1-3.4 0.1c-2.5 0.4-5 0.5-7.4 0.6q-7.7 0.1-15.3 0c-9.3-0.1-18.5-0.8-27.8-0.9-8.5-0.1-17.1-0.1-25.7 0.4-5.4 0.3-10.8 0.8-16.3 0.6-2.7-0.1-5.6-0.4-8.3-1.1q-1.2-0.4-2.5-0.9c-2.3-0.5-4.6-1.2-6.9-2.2q-0.5-0.2-0.9-0.1-0.2-0.1-0.4-0.2c-3-2.2-3.9-5.9-4.4-9.4-0.7-5.2-1.1-10.5-1.4-15.8-0.7-11.8-0.9-23.6-1-35.4 0-11.9 0.2-23.7-0.1-35.5q-0.1-4.5-0.3-8.9c-0.1-2.5-0.3-5.1-0.1-7.6 0.4-3.8 2.3-6.8 4.8-9.6 7-7.5 15.8-12.9 24.9-17.3 4.9-2.4 9.9-4.6 14.9-6.9 6.1-2.9 12.6-5.2 18.5-8.5 6.5-3.5 13.1-6.2 20.6-6.2 9.7-0.6 19.5-0.8 29.2-0.9q17-0.3 33.9 0.2c11.1 0.4 22.1 1.2 33.1 2.1 1.9 0.1 4.1 0.2 5.7 1.6 2.9 2.5 3 8.5 3.2 12q0 0.2 0 0.4 0.3 1.2 0.5 2.3 0 2.2-0.1 4.4-0.6 10.7-1.1 21.3c-0.8 16.5-1.9 33-2.1 49.5 0 8 0.8 16.8-3 24.1q-0.2 0.4-0.2 0.7c-0.1 2-4.5 4.9-5.7 6q-0.9 0.8-1.8 1.6z"/>
			<path id="&lt;Path&gt;" class="s2" d="m187.1 2187c-7.2-0.4-14.4-0.3-21.6 0.2-6.7 0.4-13.4 0.8-20.1 0.6-6.2-0.2-12.6-1-18.2-3.6-2.6-1.1-4.9-2.8-6.7-5-1.8-2.2-3-4.8-4-7.5-1.9-5.7-2.4-11.9-2.6-17.9-0.3-7.7-0.7-15.4-1.1-23-0.8-15.9-1.5-31.8-1.7-47.7q-1.5 0.5-3.1 1c0.6 12.5 1 25.1 1.2 37.6q0.2 13.9 0.2 27.8c0 4.2-0.1 8.4 0 12.7 0 3.8 0.1 7.6-0.1 11.4-0.3 7.5-1.5 15.1-5.6 21.5-3.8 6-9.7 10.1-15.8 13.6-6.4 3.6-13.2 6.4-19.7 9.7-5.5 2.9-10.6 6.6-16.9 7.6-4.5 0.7-9.2-0.2-12.4-3.7q-0.5-0.6-1-1.3c0.3 4.2 0.6 8.5 1.2 12.6 0.5 3.5 1.4 7.2 4.4 9.4q0.2 0.1 0.4 0.2 0.4-0.1 0.9 0.1c2.3 1 4.6 1.7 6.9 2.2q1.3 0.5 2.5 0.9c2.7 0.7 5.6 1 8.3 1.1 5.5 0.2 10.9-0.3 16.3-0.6 8.6-0.5 17.2-0.5 25.7-0.4 9.3 0.1 18.5 0.8 27.8 0.9q7.6 0.1 15.3 0c2.4-0.1 4.9-0.2 7.4-0.6q1.7 0 3.4-0.1c6.8-0.5 11.6-4 16.8-8q8.3-6.4 16.3-13.3 5.5-4.7 10.9-9.7 2.6-2.4 5.1-4.9c0.5-0.4 4-3.1 4-3.6q0.9-0.8 1.8-1.6c1.2-1.1 5.6-4 5.7-6q0-0.3 0.2-0.7c1.3-2.4 2-5.1 2.5-7.8-11.5-1.8-23-3.4-34.6-4.1z"/>
			<path id="&lt;Path&gt;" class="s3" d="m217.7 2088.5q-11.3 6.3-22.6 12.6c-7.5 4.2-14.8 8.5-22.4 12.4-3.6 1.9-7.7 3.3-10.7 6-1.4 1.3 0.7 3.4 2.1 2.1 2.5-2.3 6-3.5 9-5 3.8-1.9 7.5-4 11.1-6q11.1-6.3 22.2-12.5 6.4-3.5 12.8-7.1c1.7-0.9 0.2-3.4-1.5-2.5z"/>
			<path id="&lt;Path&gt;" class="s3" d="m143.9 2123.7c-2.5 0.8-5.1 0.7-7.7 0.6-2.7-0.2-5.4-0.4-8.2-0.4h-83.3c-1.9 0-1.9 3 0 3h81.6c3.2 0 6.4 0.1 9.5 0.3 3 0.1 6 0.2 8.8-0.7 1.8-0.6 1.1-3.4-0.7-2.8z"/>
			<path id="&lt;Path&gt;" class="s3" d="m161.4 2131.2c-0.9-1.3-1.8-2.7-2.9-3.8-1.3-1.2-2.8-2-4.5-2.4-0.7-0.2-1.6 0.2-1.8 1-0.1 0.8 0.3 1.6 1.1 1.8q0.6 0.2 1.2 0.4 0 0 0 0 0 0 0 0 0.1 0.1 0.2 0.1 0.3 0.1 0.5 0.3c0.3 0.1 0.5 0.3 0.8 0.4q0 0.1 0.1 0.2 0.2 0.1 0.3 0.3 0.4 0.3 0.7 0.7c0 0.1 0.4 0.5 0.1 0.1q0.1 0.2 0.3 0.4 0.7 1 1.4 1.9c0.4 0.7 1.3 1 2 0.6 0.6-0.4 1-1.4 0.5-2z"/>
			<path id="&lt;Path&gt;" class="s3" d="m154.5 2128.2c0.3 0.2 0.1 0.1 0 0z"/>
			<path id="&lt;Path&gt;" class="s3" d="m161.3 2209.8v20.3c0 1.9 2.9 1.9 2.9 0v-36.3q0-8.9 0.2-17.8c0.1-3 0.2-6 0.2-9.1-0.1-2.8-0.2-5.6-0.2-8.4 0.2-5.7 1-11.6-0.6-17.3-0.5-1.8-3.3-1-2.8 0.8 1.4 5 0.8 10.2 0.6 15.3-0.3 5.6 0.1 11.2-0.1 16.8-0.2 11.9-0.2 23.8-0.2 35.7z"/>
			<path id="&lt;Path&gt;" class="s3" d="m164.6 2236.2q0 0-0.1-0.1c-0.3-0.3-0.7-0.5-1.1-0.5-0.8 0-1.5 0.6-1.5 1.4q0 1.7-0.2 3.3-0.1 0.6-0.2 1.3c-0.2 0.7 0.2 1.6 1 1.8 0.4 0 0.8 0 1.2-0.2 0.3-0.2 0.5-0.5 0.6-0.9 0.3-0.7 0.5-1.5 0.6-2.3 0.2-0.9 0.2-1.8 0.2-2.7-0.1-0.4-0.2-0.8-0.5-1.1z"/>
			<path id="&lt;Path&gt;" class="s3" d="m50.6 2238.8c-4.4-2-5.9-6.6-6.8-11.1-1-4.7-1.8-9.9-0.7-14.7 0.4-1.8-2.4-2.6-2.8-0.8-1.2 5.5-0.4 11.3 0.7 16.7 1.1 5 3.2 10.2 8.2 12.4 1.7 0.8 3.2-1.7 1.4-2.5z"/>
			<path id="&lt;Path&gt;" class="s3" d="m57.9 2241.2q-1.3-0.1-2.4-0.6-0.3-0.1-0.6 0-0.3 0-0.6 0.1c-0.3 0.2-0.5 0.6-0.6 0.9-0.1 0.4-0.1 0.8 0.1 1.2l0.3 0.2q0.2 0.3 0.6 0.4 1.2 0.5 2.4 0.7 0.3 0.1 0.6 0 0.3 0 0.5-0.2c0.3-0.2 0.6-0.5 0.7-0.8 0.1-0.4 0-0.8-0.2-1.2-0.2-0.3-0.5-0.6-0.8-0.7z"/>
			<path id="&lt;Path&gt;" class="s3" d="m126.6 2197.5c-9.4 0.1-18.6 1.7-27.4 5.1-8.4 3.2-16.5 7.1-24.3 11.8-4.3 2.5-8.5 5.3-12.6 8.4-1.4 1.1 0 3.7 1.5 2.5 7-5.3 14.6-9.8 22.4-13.8 7.9-3.9 16.2-7.6 24.8-9.4 5.2-1.1 10.4-1.6 15.6-1.6 1.9 0 1.9-3 0-3z"/>
			<path id="&lt;Path&gt;" class="s3" d="m191 2195.4c-4.4 0-9-0.2-13.3 0.9-1.9 0.4-1.1 3.3 0.8 2.8 4.1-1 8.3-0.8 12.5-0.8 1.9 0 1.9-2.9 0-2.9z"/>
			<path id="&lt;Path&gt;" class="s3" d="m111.7 2110.8v-16.4c0-1.9-3-1.9-3 0v16.4c0 1.9 3 1.9 3 0z"/>
			<path id="&lt;Path&gt;" class="s3" d="m107.9 2142.4c-0.5 8.5 0.8 17 0.8 25.5 0 1.9 3 1.9 3 0-0.1-8.5-1.4-17-0.9-25.5 0.1-1.9-2.8-1.9-2.9 0z"/>
			<path id="&lt;Compound Path&gt;" class="s4" d="m67.4 2135.1c-1.6-1.3-3.4-2.3-5.3-2.8-0.1-0.4-0.4-0.7-1-0.8-3.4-1-7.2-0.9-10.4 0.9-2.8 1.7-4.9 4.5-6.2 7.4-2.9 6.7-3 15-0.7 21.9 2.1 6.2 7.3 12.1 14.5 10.4 4.6-1.1 7.7-5.3 9.6-9.2 2.3-4.7 3.7-9.8 4-15 0.3-4.8-0.7-9.6-4.5-12.8z"/>
			<path id="&lt;Path&gt;" class="s4" d="m53.8 2182c-1.2-0.8-2.8-0.7-3.9 0.1-0.6-0.2-1.3-0.1-1.9 0.2-0.9 0.4-1.5 1.2-1.8 2.1-0.4 1-0.4 2.1-0.3 3.1 0.6 3.3 4.4 5.4 7.5 3.9 1.6-0.8 2.4-2.6 2.5-4.3 0.2-1.9-0.5-4-2.1-5.1z"/>
		</g>
	</g>
</svg>