<svg version="1.2" xmlns="http://www.w3.org/2000/svg" viewBox="1754 974 302 316" width="302" height="316">
	<title>3hmd_4h4p_230323-ai</title>
	<defs>
		<clipPath clipPathUnits="userSpaceOnUse" id="cp1">
			<path d="m1754 974h302v316h-302z"/>
		</clipPath>
	</defs>
	<style>
		.s0 { fill: #000000 } 
		.s1 { fill: #99cc67 } 
		.s2 { fill: #e42424 } 
		.s3 { mix-blend-mode: multiply;fill: #e42424 } 
		.s4 { fill: #ffffff } 
	</style>
	<g id="Artboard 15" clip-path="url(#cp1)">
		<g id="&lt;Group&gt;">
			<g id="&lt;Group&gt;">
				<path id="&lt;Path&gt;" class="s0" d="m2029.1 1170.2c3.3-23.4-0.8-49-15.9-67.8-9.1-11.3-22.1-19.2-36.2-22.5-12.2-2.9-24.7-2.8-37.1-1.8q-0.6-0.1-1.3 0.1c-0.4 0.1-0.8 0.1-1.2 0.2q-2.3 0.2-4.7 0.4c-1.4 0.1-2.9 0.1-4.4 0.3 3.6-6.2 6.6-13.3 9-20.2 6.1 3.8 13.4 5.2 20.6 5.7 8.7 0.7 17.7 0.9 26.3-0.3 17.4-2.4 34.8-10.8 46.8-23.8 3.3-3.5 6.2-7.5 8.5-11.9 1.7-3.4 3.3-7.2 3.2-11.1-0.4-8.5-9.3-11.6-16.3-13.1-18-3.9-36.2-4.1-53.5 2.8-11.1 4.4-21.6 11.6-28.9 21 1.2-9.9 1.1-17.8-0.5-28.8-0.6-3.6-0.6-7.7-3.2-10.4-0.4-0.4-0.9-0.7-1.4-0.8-2.3-1.9-6.4-2-9-1.9-3.8 0.2-9.9 0.8-12 4.6-0.8 1.3-0.4 2.8 0.8 3.7q0.6 0.4 1.2 0.7c2.1 1.1 3.9 6.9 4.7 9 1.4 3.8 2.5 7.7 3.2 11.7 3.4 19.2-1.4 39.9-10.6 56.9-0.8 1.4-1.6 2.7-2.5 4q-0.9-1.1-1.8-2.1c0-0.6-0.3-1.1-0.9-1.6-11.7-9.9-24-19.5-38.5-25-13.6-5.1-28.7-5.8-42.6-1.5-23.1 7-40.8 26-51.1 47.2-9.5 19.5-12.6 41.3-11.4 62.7 1.2 22.1 6.7 44.7 18.4 63.6 5.5 8.9 12.4 16.9 20.9 23 5.1 3.7 10.4 6.4 16.5 7.8 6.7 1.4 13.6 1.6 20.2 3q1 0.8 2.1 1.6 0.1 0.2 0.2 0.3c3.9 5.7 10.2 8.5 16.8 9.9 6.2 2.5 13 3.7 19.5 1.2q0.2 0 0.3-0.1 1.3-0.1 2.6-0.2c6.3 2.6 12.1 6.3 18.5 8.8 5.8 2.3 11.8 3 18 2.8 10.5-0.3 20.7-3.1 30.2-7.4 20.3-9.1 37.5-24.8 50.8-42.4 13-17.1 22.6-36.9 25.7-58.3z"/>
				<path id="&lt;Path&gt;" class="s1" d="m1969.4 1014.7c15.4-7.7 32.4-9.2 49.3-6.2 3 0.5 6.1 1 9.1 1.9 2.9 0.8 6.7 1.8 8.5 4.4 1.9 2.5 0.6 6.2-0.4 8.7-1.6 3.8-4 7.4-6.5 10.6-10 12.4-25.5 20.6-40.9 23.9-8.6 1.8-17.3 1.8-26.1 1.4-7.2-0.3-15.5-0.9-21.8-4.8 3.9-2.7 8.1-4.9 12.4-6.9 6.4-3.2 12.9-6.1 19.5-8.9 14.3-6.1 29.3-11.3 44.8-12.8 1.5-0.1 2.8-1 2.9-2.6 0-1.4-1.2-3-2.7-2.8-16.2 1.6-31.8 6.7-46.8 13-7.1 3-14.1 6.2-21 9.6-3.1 1.5-6.2 3.2-9.2 5q0-0.1 0-0.2 0.4-1.5 0.7-2.9c3.9-13.7 15.7-24.1 28.2-30.4z"/>
				<path id="&lt;Path&gt;" class="s2" d="m1992.8 1233c-13.5 15.6-30.6 29.5-50.5 36.1-9.2 3.1-19.9 5.1-29.5 3.2-6.6-1.2-12.5-4.5-18.4-7.5 2.2-1 4.3-2.2 6.7-2.2 0.7 0 1.3-0.3 1.7-0.7-4.7-0.5-9.4-0.8-14.2 0.1-6.2 1.3-12 2.5-18.4 1.5-6.4-1-12.6-3.5-17.8-7.4-4.1-3.1-6.9-7-10.4-10.7-2.3-2.4-5.6-5.5-8.8-4.6 0.1 0.5 0.5 0.9 1 1.3 1.9 1.4 3 3.6 4.3 5.6-6.6-0.9-13.3-1.4-19.5-4-9-3.9-16.8-11.6-22.7-19.2-12.7-16.6-19.1-37.7-21.6-58.2-2.4-19.8-1.2-40.8 5.6-59.7 7.6-20.9 22.2-40.8 42.5-50.9 11.5-5.7 24.8-7.8 37.4-5.5 14.6 2.6 27.3 10.5 38.9 19.4q3.8 3 7.6 6.2 0 0 0.1 0.1c1.5 1.8 2.9 3.7 4.5 5.3-2.7 3.2-5.6 6.2-8.2 9.6q0 0.1 0 0.1c-2.4-1.2-4.7-2.6-6.9-4-4.2-2.7-8.6-5.9-10.1-10.8q0-0.1 0-0.1 0.1-0.1 0.4-0.1c0.8-0.2 1.6-0.1 2.4 0 1.5 0.3 4 1.2 4.6 2.1 2 2.9 6.8 0.4 4.9-2.6-2.7-3.9-9-6.1-13.6-4.7-7.2 2.1-3.2 10.4 0.1 14.1 4.7 5.1 11.1 8.7 17.3 11.7 4.6 2.2 9.2 4.3 14.1 5.5 4.1 1 8.3 1.4 12.4 1.8 7.9 0.8 17.2 1.4 24.4-2.8 3-1.8 0.4-6.7-2.6-4.9-5 3-11.3 2.9-17 2.6-6.6-0.3-13.3-1-19.6-3.1 1-0.6 1.9-1.3 2.7-2 2.7-2.1 5.2-4.9 7.6-8.1q1.6-0.5 3.2-0.8c1.3-0.3 2.6-0.4 4-0.4q0.4 0.1 0.9 0 0.9-0.1 1.7-0.1c1.6-0.1 3.2-0.2 4.8-0.5q2.5-0.2 5.1-0.4c14.5-1 29.5-0.4 43 5.6 11.8 5.2 21.6 14.4 27.9 25.5 11.2 19.8 12.2 44.4 6.7 66.1-4.9 19.4-15.7 37.4-28.7 52.5z"/>
				<path id="&lt;Compound Path&gt;" fill-rule="evenodd" class="s3" d="m1992.8 1233c-13.5 15.6-30.6 29.5-50.5 36.1-9.2 3.1-19.9 5.1-29.5 3.2-6.6-1.2-12.5-4.5-18.4-7.5 2.2-1 4.3-2.2 6.7-2.2 0.7 0 1.3-0.3 1.7-0.7-4.7-0.5-9.4-0.8-14.2 0.1-6.2 1.3-12 2.5-18.4 1.5-6.4-1-12.6-3.5-17.8-7.4-4.1-3.1-6.9-7-10.4-10.7-2.3-2.4-5.6-5.5-8.8-4.6 0.1 0.5 0.5 0.9 1 1.3 1.9 1.4 3 3.6 4.3 5.6-6.6-0.9-13.3-1.4-19.5-4-9-3.9-16.8-11.6-22.7-19.2-12.7-16.6-19.1-37.7-21.6-58.2-2.4-19.8-1.2-40.8 5.6-59.7 7.6-20.9 22.2-40.8 42.5-50.9 11.5-5.7 24.8-7.8 37.4-5.5 14.6 2.6 27.3 10.5 38.9 19.4q3.8 3 7.6 6.2 0 0 0.1 0.1c1.5 1.8 2.9 3.7 4.5 5.3-2.7 3.2-5.6 6.2-8.2 9.6q0 0.1 0 0.1c-2.4-1.2-4.7-2.6-6.9-4-4.2-2.7-8.6-5.9-10.1-10.8q0-0.1 0-0.1 0.1-0.1 0.4-0.1c0.8-0.2 1.6-0.1 2.4 0 1.5 0.3 4 1.2 4.6 2.1 2 2.9 6.8 0.4 4.9-2.6-2.7-3.9-9-6.1-13.6-4.7-7.2 2.1-3.2 10.4 0.1 14.1 4.7 5.1 11.1 8.7 17.3 11.7 4.6 2.2 9.2 4.3 14.1 5.5 4.1 1 8.3 1.4 12.4 1.8 7.9 0.8 17.2 1.4 24.4-2.8 3-1.8 0.4-6.7-2.6-4.9-5 3-11.3 2.9-17 2.6-6.6-0.3-13.3-1-19.6-3.1 1-0.6 1.9-1.3 2.7-2 2.7-2.1 5.2-4.9 7.6-8.1q1.6-0.5 3.2-0.8c1.3-0.3 2.6-0.4 4-0.4q0.4 0.1 0.9 0 0.9-0.1 1.7-0.1c1.6-0.1 3.2-0.2 4.8-0.5q2.5-0.2 5.1-0.4c14.5-1 29.5-0.4 43 5.6 11.8 5.2 21.6 14.4 27.9 25.5 11.2 19.8 12.2 44.4 6.7 66.1-4.9 19.4-15.7 37.4-28.7 52.5zm-28-73.4c0.3-8.8-1.2-18-5.9-25.6-4.5-7.2-11.3-12.5-18.8-16.3-9.5-4.8-19.6-7.2-29.7-10.4-6.4-2-12.9-4.3-18.9-7.5-5.6-3-11.3-7-14.6-12.6-3.1-5-2.3-11-4-16.5-0.8-2.8-2.3-5.4-4.6-7.3-2.3-1.9-5.1-3.1-8.1-3.8-6.1-1.4-12.6-0.8-18.7 0.3-6.1 1.2-11.8 3.2-17.2 6.3-3.5 2.1-6.7 4.7-9.6 7.5-2.7 1.8-5.2 3.8-7.4 6-6.9 6.6-12.1 14.8-15.8 23.5-7.9 18.7-9.5 40-6.3 59.9 1.5 9.6 4.3 19.1 8.6 27.8 4.2 8.4 9.9 15.7 16.8 22 14.3 13.2 32.7 21.6 51.9 24.9 18.7 3.1 38.3 1.4 55.8-6.3 17.6-7.7 31.6-21.6 39.2-39.3 4.4-10.1 6.9-21.5 7.3-32.6z"/>
				<path id="&lt;Path&gt;" class="s3" d="m2021.5 1180.5c5.5-21.7 4.5-46.3-6.7-66.1-6.3-11.1-16.1-20.3-27.9-25.5-7.2-3.2-14.8-4.8-22.5-5.5q3.3 1.6 6.5 3.6c7.1 4.7 13.1 11 17.8 18.2 9.7 14.9 13.6 33.1 14.3 50.8 0.7 20.5-2.8 41.6-11.6 60.2-9.2 19.4-23.8 35.9-40.3 49.4 16.1-7.3 30.2-19.3 41.7-32.6 13-15.1 23.8-33.1 28.7-52.5z"/>
			</g>
			<path id="&lt;Compound Path&gt;" class="s4" d="m1847.8 1091.1c-2.1-6.3-7.1-11.3-15.1-12.5-15.1-2.3-26.5 11.2-29.7 24.6-1.5 6.6-1.6 13.8 1.6 19.8 6.3 12.1 19.8 10.3 29.4 3.5 5.8-4.1 10.3-9.5 12.9-16.1 2.6-6.2 3-13.3 0.9-19.3z"/>
			<g id="&lt;Group&gt;">
				<path id="&lt;Compound Path&gt;" class="s4" d="m1818.4 1156.5c0.3-2.5-0.1-5-1.3-6.8-2.2-3.4-6.8-5-10.5-3.4-7 3.2-6.1 19.2 2.2 20.1 5.5 0.6 9-4.6 9.6-9.9z"/>
				<path id="&lt;Path&gt;" class="s4" d="m1812.3 1151.4q0 0 0 0-0.1 0-0.1 0 0 0 0 0.1 0.1-0.1 0.1-0.1z"/>
				<path id="&lt;Path&gt;" class="s4" d="m1812.2 1151.4q0 0-0.1 0 0.1 0 0.1 0 0 0 0 0z"/>
			</g>
		</g>
	</g>
</svg>