<svg version="1.2" xmlns="http://www.w3.org/2000/svg" viewBox="433 1033 330 370" width="330" height="370">
	<title>3hmd_4h4p_230323-ai</title>
	<defs>
		<clipPath clipPathUnits="userSpaceOnUse" id="cp1">
			<path d="m433 1033h330v370h-330z"/>
		</clipPath>
	</defs>
	<style>
		.s0 { fill: #000000 } 
		.s1 { fill: #ffffff } 
		.s2 { fill: #f178af } 
		.s3 { fill: #a56bad } 
	</style>
	<g id="Artboard 3" clip-path="url(#cp1)">
		<g id="&lt;Group&gt;">
			<g id="&lt;Group&gt;">
				<path id="&lt;Path&gt;" class="s0" d="m669.7 1354.5c1.8-4.9 1.8-10.2 1.5-15.3-0.5-12.1-1.8-24.2-3.7-36.2-1.7-11.3-3.8-22.6-5.4-33.9-1.4-11-2.4-22.2-1-33.3 0.7-5.5 2-11 4.2-16.1 2-4.6 4.7-8.8 7.6-12.9q27.6-35.7 54.2-72.1c1-1.3 2-2.7 3.3-3.6q0.4-0.2 0.8-0.4c1.9-1 4.2-1 6.2-1.7 5-1.8 7.2-8.1 6-13.3-1.1-5.2-4.7-9.4-8.4-13.2-11.5-11.8-24.8-21.7-39.4-29.2-3.9-2-8.1-3.9-12.5-4.4-6.5-0.8-15.9 2.6-15.4 10.5 0.2 2.6 1 5.3 0.1 7.8-0.4 1.2-1.2 2.3-2.1 3.3q-27.9 35.9-55.9 71.7c-2.7 3.2-5.5 6.3-8.7 8.9-4.4 3.6-9.2 6.3-14.4 8.5-10.3 4.3-21.3 6.5-32.3 8.1-11.3 1.6-22.7 2.7-34.1 4-12.1 1.5-24 3.5-35.8 6.4-5 1.1-10.2 2.5-14.3 5.7-3.4 2.6-5.6 6.3-6.5 10.6-1.4 7 1.5 14.1 5 20.1 3.9 6.7 9.1 12.6 14.5 18.1 5.8 6 11.9 11.6 18.1 17.2 14.9 13.4 28 26.2 46.6 38.4 17.4 13.1 32.7 23.7 49.8 34.4 7 4.4 14.1 8.8 21.4 12.7 6.8 3.7 13.9 7.1 21.4 9 6.7 1.8 14.3 2.6 20.7-0.7 3.9-2 6.9-5.1 8.5-9.1z"/>
				<path id="&lt;Path&gt;" class="s1" d="m680.3 1072.8q0.2 0 0.5 0 0.5 0 0.9-0.2c2.8 0 5.8 1.5 8.2 2.7 7.3 3.4 14.4 7.6 21 12.2q3.5 2.4 6.9 5 0.5 0.3 1 0.4c2.7 2.4 5.2 5 7.8 7.4 3.9 3.6 8.1 7.4 10.8 12.1 0.5 0.9 1 1.9 1.1 2.8 0.1 0.4 0 0.6 0 0.7-0.1 0.3 0 0.2-0.1 0.2q-0.1 0.2-0.1 0.2 0 0 0 0c-0.3 0.2-0.7 0.3-1.1 0.3-1 0-1.8-0.2-2.6-0.5-5.3-1.8-10-5.2-14.5-8.4-6.5-4.6-12.9-9.6-19.3-14.4-4.4-3.4-8.8-7-12.9-10.8-1.8-1.6-3.6-3.4-5.1-5.2-0.7-0.8-1.3-1.6-1.9-2.5 0-0.1-0.2-0.4-0.4-0.8 0-0.1-0.2-0.7-0.3-0.8q0-0.1 0-0.3c0.1 0 0.2-0.1 0 0q0 0 0 0 0-0.1 0.1-0.1z"/>
				<path id="&lt;Path&gt;" class="s1" d="m671.8 1078.1c0.7-2.2 2.4-3.6 4.3-4.4 0.5 2.7 2.9 5.5 4.4 7.2 4.1 4.5 8.9 8.5 13.7 12.3q5.1 4.2 10.5 8c3.6 2.6 7.1 5.5 10.8 8.2 5.1 3.8 10.5 7.7 16.5 10.1 2 0.8 4.4 1.5 6.6 1q0.6-0.1 1.1-0.3c-1.7 4.3-5.9 7.4-11 6.5-6.4-1.2-12-6-17.3-9.6-7.7-5.1-15.2-10.5-22.6-16-5.1-3.9-10.4-7.8-14.2-13.1q-0.7-0.9-1.2-1.9c0-0.8-0.4-1.4-1-1.8-0.8-2-1.2-4.1-0.6-6.2z"/>
				<path id="&lt;Path&gt;" class="s1" d="m583.7 1185.1c4.9-1.7 9.6-3.9 14-6.6 5.2-3.2 9.6-7.2 13.6-11.8 2-2.2 3.9-4.6 5.8-7.1q0.4-0.5 0.4-1c6.8-8.9 13.8-17.7 20.8-26.4 5.3-6.4 10.6-12.8 15.5-19.5 2.5-3.4 5-6.8 7.5-10.1 2.1-2.8 4.3-5.2 6.6-7.8 1.2-1.3 2.4-2.7 3.4-4.3 3.1 4.4 7.6 8 11.6 11.2 8.1 6.3 16.5 12.3 25 18 5.5 3.7 11.3 8.5 17.9 10.5-17.8 23.5-35.5 47-53.3 70.5q-0.3 0.1-0.5 0.4-1.6 2.2-3.1 4.4-0.8 1-1.5 1.9-0.4 0.7-0.7 1.3c-3.3 5.1-5.9 10.5-7.6 16.2-1.4 5-2.2 10.1-2.5 15.3q-0.3 4.6-0.2 9.2c-3.7-4.3-8.1-7.9-12.3-11.7q-9.1-8.2-18.6-16c-12.1-10.1-24.8-19.1-38.4-27.1-4.1-2.4-8.4-5-12.9-6.6 3.2-0.8 6.4-1.8 9.5-2.9z"/>
				<path id="&lt;Path&gt;" class="s2" d="m653.5 1252.2q-2.1-0.9-4.2-2c-3.2-1.6-6.3-3.3-9.4-5.1-6.5-3.7-12.8-7.7-18.9-11.9-12.7-8.8-24.5-18.6-36-28.8-4.6-4.1-9.9-8.2-13.8-13.1 4.5 1.3 8.7 3.8 12.6 6.1 6.3 3.7 12.6 7.5 18.6 11.7 12.9 8.9 24.8 19.1 36.5 29.5 4.9 4.3 10.2 8.6 14.6 13.6z"/>
				<path id="&lt;Path&gt;" class="s3" d="m656.2 1361.1c-6.7 1.8-14-0.2-20.3-2.5-6.9-2.5-13.4-5.9-19.8-9.6q-12.3-7.1-24.2-14.9c-7.9-5.2-73.7-55-80.9-61.1q-10.7-9.3-20.9-19.2c-5.3-5.1-10.4-10.5-14.7-16.5-3.9-5.4-7.8-11.9-7.9-18.8-0.1-3.3 0.8-6.7 2.9-9.3 3.1-3.9 8.4-5.6 13.1-6.7 11.4-2.9 22.9-4.9 34.6-6.4 11.2-1.4 22.4-2.4 33.6-3.9 4.6-0.6 9.2-1.4 13.7-2.2 3.6 5.7 8.6 10.1 13.6 14.5 6.1 5.4 12.1 10.7 18.4 15.8 12.1 10.1 25 19.3 38.6 27.3q5.4 3.2 11.1 6c3.1 1.6 6.3 3.1 9.7 4.1 0.4 5.1 1 10.2 1.8 15.2 1.6 11.2 3.6 22.3 5.3 33.5 1.8 11.6 3 23.2 3.4 34.9 0.1 4.8 0 10.4-2.9 14.5-1.9 2.7-5 4.5-8.2 5.3z"/>
			</g>
			<g id="&lt;Group&gt;" style="opacity: .5;mix-blend-mode: screen">
				<path id="&lt;Compound Path&gt;" class="s1" d="m645.1 1171.8q1.4-2.2 2.7-4.5c2.7-4.4 6.1-9.6 3.5-14.8-0.2-0.5-0.5-1-1-1.3-1.1-0.6-2.4 0-3.4 0.8-3.5 2.6-5.9 6.1-8.5 9.6q-0.7 0.9-1.4 1.9c-4.4 5.8-8.7 11.7-13.7 17.1-1.3 1.4-13.3 13.6-14.9 12.3-12.2 7.3-26.6 8.4-40.4 9.6-15.2 1.4-30.5 2.1-45.7 3.8-7.1 0.8-14.3 1.6-21.3 3.3-4.7 1.1-10.4 2.9-12.6 7.7-2.4 5.3 1.3 11.3 4 15.8 3.4 5.5 7.6 11 13 14.7 3.8 2.7 9.9 5.4 13.6 1 2.9-3.6 3-8.6 5.9-12.2 3-3.8 8.7-4.7 13.2-5.9 10.9-3 22-4.6 33-6.8 26.7-5.4 48.1-16.8 64.8-38.6 3.4-4.4 6.4-8.9 9.2-13.5z"/>
				<path id="&lt;Compound Path&gt;" class="s1" d="m671.8 1128c0.1-0.8-0.4-1.9-1.3-2.2-1.8-0.5-3.8-0.1-5.5 0.8q-0.1 0-0.2 0.1c-5.4 2.6-10.2 9.2-7.8 15.4 0.3 0.6 1 1.2 1.7 1.2 7.8 0.4 12.8-8.4 13.1-15.3z"/>
			</g>
		</g>
	</g>
</svg>