<svg version="1.2" xmlns="http://www.w3.org/2000/svg" viewBox="2308 745 240 209" width="240" height="209">
	<title>3hmd_4h4p_230323-ai</title>
	<defs>
		<clipPath clipPathUnits="userSpaceOnUse" id="cp1">
			<path d="m2308 745h240v209h-240z"/>
		</clipPath>
	</defs>
	<style>
		.s0 { fill: #000000 } 
		.s1 { fill: #847d72 } 
		.s2 { fill: #39373f } 
		.s3 { fill: #2d2b33 } 
		.s4 { fill: #57545e } 
	</style>
	<g id="Artboard 17" clip-path="url(#cp1)">
		<g id="&lt;Group&gt;">
			<path id="&lt;Path&gt;" class="s0" d="m2530.7 850.6c-1.5-10.4-3.7-20.9-7.2-30.8-3.4-9.3-8.3-17.7-14.3-25.6-6.1-7.9-13-15.2-20.9-21.3-7.4-5.8-15.8-10.9-25.1-13.2-10.1-2.5-20.7-1.8-31-0.2-4.8 0.7-9.6 1.8-14.5 2.8-4.5 1-9.1 2-13.5 3.3-4.1 1.2-8 2.8-11.6 5.1-16.3 8.8-30.1 21.9-41.7 36.3q-4.8 5.9-9.2 12.2c-2.9 4.1-5.9 8.1-8.1 12.6-4.8 9.8-4 20-1.6 30.2 2.5 11.3 5.8 22.4 8.9 33.5 2.7 9.7 4.7 20.2 9.4 29.2 2.3 4.2 5.2 7.9 9.4 10.3 3.6 2.1 7.7 3.2 11.8 3.8 10.1 1.6 20.5 2.1 30.7 2.8 11.2 0.8 22.6 1.6 33.9 1.8 9.4 0.1 18.9-0.6 28-3 9.3-2.5 17.9-6.9 25.2-13.4 7.6-6.7 13.7-15 19.8-23.1 3.1-4.1 6.1-8.3 9.3-12.3 3.1-3.7 6.3-7.4 8.9-11.5 5.5-9 4.9-19.4 3.4-29.5z"/>
			<path id="&lt;Path&gt;" class="s1" d="m2526.8 866.7c-0.8 9.6-7.7 16.3-13.4 23.5-11.7 14.8-21.9 32.7-39.5 41.4-16.8 8.4-36.1 7.2-54.4 6.2-11-0.6-22.1-1.3-33.1-2.3-7.9-0.7-17.2-0.5-24.3-4.7-8-4.7-10.6-15.2-12.9-23.5-2.8-10.4-5.9-20.8-8.7-31.3-2.6-9.8-6.1-20.1-5.7-30.4 0.4-9.9 6.7-17.8 12.2-25.6 11-15.4 24.3-29.9 40.2-40.4q3-2 6.1-3.8 0.4-0.1 0.8-0.3c0.3-0.2 0.6-0.4 1-0.6q2.1-1.2 4.4-2.3 0.3-0.2 0.6-0.4c6.1-2.6 12.8-3.8 19.2-5.3 9.6-2.1 19.2-4 29-4 9.5 0 18.4 2.2 26.7 6.8 8.1 4.6 15.4 10.7 21.8 17.5 6.3 6.6 12.2 14 16.6 22 4.7 8.4 7.6 17.7 9.7 27.1 2.2 9.9 4.5 20.2 3.6 30.4z"/>
			<path id="&lt;Path&gt;" class="s2" d="m2407.2 809.2c-4.3 0-8.6 0.2-12.8 0.1 0.2-4.1-0.3-8-1.8-11.7q0.6 0 1.1-0.3c5.1-3 9.8-6.4 15.1-8.9 1.1-0.6 1.5-2.3 0.8-3.4-0.7-1.2-2-1.4-3.3-0.8-5.3 2.5-10 5.9-15 8.9q-0.5 0.3-0.8 0.9c-6.2-7.4-17.2 2.3-21.9 7.7-2 2.4 1.4 5.8 3.5 3.4 2.4-2.8 11.5-13.1 15.2-7.2 2.5 3.8 2.4 9.4 1.9 13.7-0.7 5-2.3 10-4.3 14.7-3.2 7.4-7.4 15-12.6 21.2-4 4.7-12 11.4-17.1 4-2.3-3.4-2.1-8.2-1.5-12.1 0.8-4.3 2.2-8.5 4.4-12.2 1.6-2.7-2.6-5.1-4.2-2.5-4.5 7.5-7.5 18.6-4 27 1.4 3.4 4.3 6.2 7.7 7.4-1.4 3.7-2.1 7.6-3.1 11.4-0.3 0.5-0.5 0.9-0.5 1.5-0.1 1.9 2 2.9 3.6 2.1 1.4-0.7 1.7-2.6 2-4q0.5-1.9 0.9-3.8 0.4-1.9 1-3.7 0.3-0.9 0.6-1.8 0.1-0.1 0.1-0.3c0.1 0 0.1-0.1 0.1-0.2q0.2-0.4 0.4-0.7c2.6-0.4 5-1.6 7.2-3.1 0.4 1.3 1 2.6 1.6 3.8q0.4 0.8 0.7 1.5 0.2 0.4 0.3 0.7 0.1 0.2 0.1 0.3c0.1 0.3 0.2 0.6 0.4 0.9 0.3 0.5 0.8 0.9 1.4 1.1 0.5 0.2 1.1 0.2 1.6 0.1 0.7-0.2 1.2-0.6 1.6-1.2q0-0.1 0-0.1c0.2-0.3 0.4-0.6 0.4-0.8 0.2-0.6 0.1-1.4-0.2-1.9-0.3-0.5-0.7-0.8-1.2-1-0.5-1-1-2-1.4-3q-0.1-0.3-0.2-0.6c-0.1 0-0.1-0.1-0.1-0.1q-0.3-0.6-0.4-1.2-0.2-0.5-0.3-1.1 0-0.1 0-0.1 0-0.3 0-0.6 0-0.3-0.1-0.5c4.2-4.3 7.7-9.6 10.6-14.9q0.3 0 0.6 0 0.2 0.1 0.3 0.1c0.5-0.1 1-0.1 1.5-0.3 0.6-0.2 1.1-0.6 1.4-1.1q0.3-0.4 0.3-0.9 0.1-0.5 0-1l-0.3-0.5q-0.3-0.6-0.8-0.9-0.3-0.2-0.6-0.2 0.6-1.3 1.2-2.5c2.2-4.9 4.4-10.6 5.5-16.4 4.4 0.2 8.9 0 13.4 0 1.3 0 2.5-1.1 2.4-2.4 0-1.4-1-2.5-2.4-2.5z"/>
			<path id="&lt;Path&gt;" class="s3" d="m2494.8 849.1c-1.8-6.8-8.1-15-15.8-10.6q-0.2 0.1-0.3 0.2c-2.2 0.2-4.3 0.7-6.3 1.7-2.9 1.5-4.9 4.1-6 7.1-2.2 5.9-0.4 12.9 3.4 17.6 4.5 5.6 12.2 6.9 18.4 3.6 7-3.8 8.5-12.5 6.6-19.6z"/>
			<path id="&lt;Path&gt;" class="s4" d="m2490.6 857.1c-0.4 2.6-1.4 4.8-3.5 6.6 0.2-0.2-0.5 0.3-0.6 0.4q-0.5 0.3-0.9 0.5c-0.5 0.3-0.3 0.2-0.9 0.4q-0.6 0.2-1.2 0.4-0.6 0.1-1.2 0.2 0 0-0.1 0-0.2 0-0.3 0.1-1.1 0-2.2-0.1 0 0 0 0-0.3 0-0.5 0-0.4-0.1-0.9-0.3-0.4-0.1-0.8-0.2 0 0-0.1-0.1-0.2-0.1-0.5-0.2-0.8-0.4-1.5-0.9-0.1-0.1-0.1-0.1-0.1-0.1-0.2-0.2-0.4-0.3-0.8-0.7c-1.6-1.6-2.7-3.6-3.3-5.7q-0.3-0.8-0.4-1.7c-0.1-0.1-0.1-0.7-0.1-0.7q-0.1-0.4-0.1-0.8-0.1-0.9 0-1.8 0-0.5 0-0.9 0 0 0 0 0 0 0 0 0.1-0.3 0.1-0.6 0.2-0.9 0.6-1.9c0 0 0-0.1 0.1-0.2 0-0.1 0.1-0.3 0.1-0.3q0.2-0.4 0.5-0.9 0.2-0.3 0.4-0.6c0 0 0.4-0.5 0.5-0.6q0.4-0.4 0.7-0.7c0 0 0.1-0.1 0.2-0.1 0.1-0.1 0.3-0.2 0.3-0.2 1.4-1 2-1.2 3.8-1.5 0.5-0.1 1.3-0.2 2.3-0.2 0.9 0 2 0.1 2.8 0.2 1 0.1 1.9-0.1 2.5-0.9 0.2 0.1 0.5 0.2 0.7 0.4 0 0.1 0.2 0.2 0.3 0.3q0.3 0.3 0.7 0.6c0.5 0.7 0.4 0.5 0.9 1.3q0.6 0.8 1 1.7c0 0.1 0.3 0.7 0.3 0.7q0.2 0.5 0.4 1 0.4 1 0.6 2 0.1 0.6 0.3 1.2 0 0.2 0 0.4 0.1 0.1 0.1 0.2 0 0 0 0.1c0.1 1.4 0.1 3.3 0 4.4z"/>
			<path id="&lt;Path&gt;" class="s2" d="m2439.6 890.4c-3.1-2.7-7.7-4-11.7-2.7-1.6 0.6-3.1 1.5-4.4 2.7q-1.4 1-2.6 2.3c-2.4 2.7-3.9 6.2-3.9 9.9 0.1 3.5 1.8 6.9 5 8.7 3.8 2 8.7 1.8 12.4-0.1 7-3.6 12.2-14.7 5.2-20.8z"/>
			<path id="&lt;Path&gt;" class="s4" d="m2461.6 901.5q-0.1-0.6-0.6-1-0.1-0.2-0.3-0.4-0.5-0.4-0.9-0.7-0.2-0.1-0.5-0.2c-0.3-0.2-0.6-0.3-1-0.4q-0.5-0.2-1-0.1-0.5 0.1-0.9 0.3-0.4 0.2-0.7 0.6-0.3 0.4-0.4 0.9 0 0.3-0.1 0.6 0 0.1 0 0.2 0 0.1-0.1 0.3 0 0.1-0.1 0.3-0.2 0.6 0 1.3 0 0 0 0 0 0.1 0.1 0.2 0.1 0.4 0.3 0.8 0.1 0.1 0.1 0.2 0.3 0.3 0.5 0.6 0.1 0.1 0.2 0.2c0.1 0.1 0.3 0.3 0.6 0.4 0.1 0.1 0.2 0.1 0.3 0.2 0 0 0.2 0 0.3 0.1q0 0 0.1 0 0.3 0.1 0.7 0.1c0.3 0 0.6 0 0.8-0.1q0 0 0 0c0.2-0.1 0.5-0.2 0.6-0.3q0.1 0 0.1 0 0 0 0.1-0.1 0.3-0.2 0.5-0.4 0.1-0.1 0.2-0.1c0.2-0.3 0.4-0.6 0.6-1q0.3-0.6 0.5-1.2 0.2-0.6 0-1.3z"/>
			<g id="&lt;Group&gt;">
				<path id="&lt;Path&gt;" class="s0" d="m2459.9 794q-0.1 0-0.2 0 0 0 0 0 0.2 0 0.2 0 0 0 0 0z"/>
				<path id="&lt;Path&gt;" class="s0" d="m2460 794q0 0 0 0 0 0 0 0z"/>
				<path id="&lt;Path&gt;" class="s0" d="m2458.5 794.9q0 0.1 0 0.2 0 0 0.1-0.2-0.1 0-0.1 0z"/>
				<path id="&lt;Path&gt;" class="s4" d="m2467.7 794.5c-0.9-2-2.5-3.9-4.5-4.8-1.3-0.6-2.6-0.8-4-0.5q-0.1 0-0.2 0c-1.6 0.2-3.1 1-4.2 2.4-1.9 2.2-2.7 5.2-2 8 1.1 4.5 6 8.7 10.8 7.2 2.4-0.7 4.5-2.9 5.1-5.4 0.5-2.3 0-4.8-1-6.9z"/>
			</g>
		</g>
	</g>
</svg>