<svg version="1.2" xmlns="http://www.w3.org/2000/svg" viewBox="1572 1504 121 340" width="121" height="340">
	<title>3hmd_4h4p_230323-ai</title>
	<defs>
		<clipPath clipPathUnits="userSpaceOnUse" id="cp1">
			<path d="m1572 1504h121v340h-121z"/>
		</clipPath>
	</defs>
	<style>
		.s0 { fill: #000000 } 
		.s1 { fill: #f38bb9 } 
		.s2 { fill: #f7986b } 
		.s3 { fill: #ffffff } 
	</style>
	<g id="Artboard 11" clip-path="url(#cp1)">
		<g id="&lt;Group&gt;">
			<path id="&lt;Path&gt;" class="s0" d="m1667.8 1640.3q0.5-5.2 0.8-10.3 0.8-10.1 1.4-20.3 0.3-4.8 0.6-9.7c0.1-2.4 0.3-5-0.2-7.4-0.5-2.4-1.8-4.8-3.9-6.3-2-1.3-4.3-1.3-6.6-0.9q0-0.6 0-1.3h-0.1c0.2-2.8 0.5-5.6 0.8-8.5 0.5-5.5 0.8-11.1 1-16.6 0.5-9.1 0-20-7.1-26.7-6.2-5.9-15.6-6-22.7-1.5-7 4.3-10 12-11.5 19.7-1.1 5.6-1.4 11.3-1.7 17-0.2 5.2-1.6 10.6-1 15.7q0 0.3 0 0.6 0 0.4 0.1 0.8c-0.2 1.1-0.4 2.2-0.5 3.4-0.1 1.4-0.1 3 0.6 4.3l-14.3 163.1q0.4 0 0.8-0.1c0.1 0.7 0.4 1.2 1 1.6 0.1 1.7-0.4 3.6-0.5 5.3q-0.2 3.7-0.5 7.5c-0.4 4.9-0.6 9.9-1 14.9-0.1 0.7 0.2 1.3 0.7 1.7q0.1 0.5 0.6 1c1.5 1.4 2.3 4 3.1 5.9 1.1 2.6 2 5.3 2.7 8.1 1.5 5.5 2.2 11.3 3 16.9 0.4 2.5 4.3 2.4 4.5-0.2 0.2-3.2 1.2-6.3 2.2-9.4 1.1-2.9 2.2-5.9 3.6-8.7 1.4-2.7 3-5.4 5.1-7.6 1.9-2 4.1-3.8 6.3-5.5q0.3-0.3 0.5-0.6c0.7-0.3 1.3-0.9 1.4-1.9l2.1-24.2 2.8 0.2c1.2 0.1 1.9-0.6 2.2-1.5q0.3 0.1 0.6 0.2l14.1-161.2q0.1 0 0.1-0.1 0.1 0.1 0.1 0.2c0.1 1.5 0 3.1 0 4.6-0.1 3.1-0.2 6.2-0.4 9.3-0.3 6.7-0.7 13.5-1 20.2-0.1 3.2-0.3 6.3-0.4 9.5-0.1 2.5-0.2 5.5 0.8 7.9 0.9 2.2 3 3.7 5.3 2.7 0.8-0.3 1.5-0.9 2-1.6 0.6-0.2 1.1-0.6 1.4-1.3 0.4-1.3 0.4-2.5 0.5-3.7 0.2-1.8 0.4-3.5 0.6-5.2z"/>
			<path id="&lt;Path&gt;" class="s1" d="m1624 1555.4c0.9-6.6 2.5-14 7.5-18.8 5.1-4.8 13.5-6.4 19.3-1.7 6.6 5.6 6.7 15.8 6.3 23.7-0.2 5.5-0.5 11.1-1 16.6-0.3 2.9-0.6 5.9-0.8 8.8q-0.1 0.4-0.1 0.9l-26.5-2.4c-0.1 0-0.1 0.1-0.2 0.1l-6.5-0.6c-0.2-3.8 0.7-7.8 1-11.6 0.3-5 0.3-10 1-15z"/>
			<path id="&lt;Path&gt;" class="s2" d="m1621.7 1588.4q0.1-1 0.3-1.9l33 2.8q-0.1 1-0.2 2z"/>
			<path id="&lt;Path&gt;" class="s3" d="m1632.6 1783.1q-0.2 0.1-0.4 0.2c-2.4 2-4.8 3.9-6.9 6.2-2.3 2.5-4 5.3-5.5 8.3-1.5 2.8-2.6 5.7-3.7 8.7-0.4-2.4-0.9-4.9-1.6-7.3-0.8-2.9-1.8-5.7-3-8.5-0.9-2.1-1.8-4.7-3.5-6.3q-0.1-0.1-0.2-0.2c0.4-4.9 0.6-9.8 1-14.7 0.2-2.5 0.3-5 0.5-7.5 0.1-1.5 0.4-3 0.5-4.5l6.3 0.5-1.3 15.5q-0.1 0-0.2 0.1c-0.7 0.4-1.3 0.9-1.8 1.7-0.3 0.5-0.6 1.1-0.8 1.8-0.2 0.9-0.3 1.7-0.2 2.6 0.1 0.9 0.5 1.6 1 2.3 0.5 0.7 1.3 1.2 2 1.5 1.2 0.4 2.5 0.5 3.6-0.1 2.4-1.1 3.5-4.3 2.5-6.7q0 0 0 0c-0.2-1.1-0.8-2-1.6-2.7q-0.1 0-0.1 0l1.4-15.6 14 1.3z"/>
			<path id="&lt;Path&gt;" class="s1" d="m1640.5 1755.7l-32.2-2.9 13.4-153.6 32.2 2.8z"/>
			<path id="&lt;Path&gt;" class="s2" d="m1654.3 1597.5l-32.2-2.8 0.2-1.7 32.2 2.8z"/>
			<path id="&lt;Path&gt;" class="s2" d="m1662.8 1645.3q-0.5 0.5-0.6 1.3c0 0.2-0.1 0.4-0.2 0.7 0-0.2-0.1-0.3-0.1-0.3-0.1-0.5-0.1-1.1-0.2-1.7-0.2-2.7 0.1-5.5 0.2-8.2 0.3-5.8 0.6-11.5 0.8-17.3 0.3-5.6 0.6-11.3 0.7-16.9 0.1-2.3 0.4-5-0.3-7.3-0.6-1.9-1.7-2.6-3.2-3.2q0-0.2 0-0.4 0.1-1 0.2-2 0-0.1 0-0.1c2.1-0.4 3.9-0.5 5.2 1.7 1 1.8 1 3.9 0.9 5.9-0.2 5.4-0.6 10.8-0.9 16.2q-0.6 8.7-1.3 17.4-0.3 4.4-0.7 8.8-0.2 2-0.4 4.1-0.1 0.6-0.1 1.3z"/>
		</g>
	</g>
</svg>