<svg version="1.2" xmlns="http://www.w3.org/2000/svg" viewBox="0 0 631 471" width="631" height="471">
	<title>2-svg</title>
	<defs>
		<clipPath clipPathUnits="userSpaceOnUse" id="cp1">
			<path d="m0 0h631v471h-631z"/>
		</clipPath>
		<clipPath clipPathUnits="userSpaceOnUse" id="cp2">
			<path d="m-35-40h709v541h-709z"/>
		</clipPath>
	</defs>
	<style>
		.s0 { fill: #000000 } 
		.s1 { fill: #0ebdca } 
		.s2 { fill: #c94f9d } 
		.s3 { fill: #fabfb3 } 
		.s4 { fill: #f285b5 } 
		.s5 { fill: #fcb219 } 
	</style>
	<g id="Artboard 1" clip-path="url(#cp1)">
		<g id="Clip-Path: Artboard 2" clip-path="url(#cp2)">
			<g id="Artboard 2">
				<g id="&lt;Group&gt;">
					<path id="&lt;Compound Path&gt;" fill-rule="evenodd" class="s0" d="m622 49.8c-4.3 15.7-15.1 29.2-24.4 42.2-12.8 17.5-26.4 34-41.8 49.3-11.8 11.7-24.3 22.6-36.9 33.4 1.5 9.8 2.3 19.7 2.3 29.9 0 111.7-90.8 202.6-202.5 202.6-36.3 0-70.4-9.7-99.9-26.5q-7.7 4-15.5 8c-19.9 10.2-39.4 21.2-59.2 31.5-20.2 10.4-40.8 20.2-62.4 27.6-10.5 3.6-21.3 6.6-32.3 8.7-7.9 1.5-17 3.6-24.8 0.7-12.3-4.5-11.2-18.4-7.8-28.7 5.3-15.7 14.8-30.2 24.1-43.8 21.4-31.2 47.7-58.7 75.5-84.4 5.3-5.5 10.6-10.9 16-16.2-10.5-24.4-16.3-51.3-16.3-79.5 0-8.1 0.5-16.1 1.4-23.9-0.6-1.3-0.6-2.8 0.5-3.8 13.6-98.7 98.4-174.9 200.7-174.9 40.3 0 77.8 11.9 109.4 32.3 2.4-0.9 5 1.1 5.2 3.4q6.9 4.8 13.4 10.1c1.7 0.2 2.9 1.4 3.4 2.9 8.1 6.9 15.7 14.5 22.6 22.6q0.5-0.7 1.2-1.1c0.4-1 1.2-1.7 2.5-2.1 2.8-0.8 5.7-2.1 7.8-3 22.2-9.6 43.8-20.7 66.3-29.8 11.6-4.6 23.4-9 35.7-11.8 8.4-1.9 18.5-3.7 26.9-0.3 10.1 4.1 11.5 15 8.9 24.6zm-436 307.7c-14.1-12.2-26.4-26.3-36.6-41.8-7.7 7.9-16.1 15.1-24.4 22.4-15.4 13.3-29.5 27.8-42.2 43.7-5.9 7.4-11 15.1-16.3 22.9-2 2.9-4 5.8-5.7 8.9-0.7 1.4-3.1 5.1-2.3 6.9q0.1 0.1 0.1 0.3 0.7-0.1 1.3-0.2c16.1-2.9 30.8-11.1 45.1-18.6 16.1-8.5 32-17.4 47.9-26.3 11-6.1 22-12.2 33.1-18.2zm392-294.3c-0.9-1-3.6-1-4.8-1-4.3-0.1-8.5 1.5-12.5 2.9-4.4 1.6-8.8 3-13.3 4.5-20.2 6.8-39 16.9-58.1 26 8 12.6 14.7 26.2 19.9 40.5 18.4-16.2 36.6-32.9 52.8-51.2 4.6-5.2 9-10.6 13.2-16.1q0.6-0.5 1.2-1c0.7-1.2 1.3-2.5 1.5-3.7 0.1-0.5 0.1-0.9 0.1-0.9z"/>
					<path id="&lt;Path&gt;" class="s1" d="m503 141.5q-6.1 5.3-12.1 10.6c-25.4 22.1-51.7 43.2-78.8 63.2-54.4 40.3-111.5 76.8-170 110.7-16.2 9.4-32.5 18.5-48.9 27.5-10.6-8.9-20.2-19-28.7-30 4.4-2.5 9.9-2.9 14.7-3.8 6.7-1.1 13.2-3.2 19.6-5.5 13.6-5 26.6-11.6 39.2-18.8 24.8-14.2 48.6-30.1 70.5-48.3 21.9-18.1 41.5-38.7 57.6-62.1 17.1-25 31.4-51.7 44.5-78.9 4.8-9.9 9.2-19.9 14.9-29.3 4.4-7.4 10.5-17.4 19.2-20.6 26.4 22.4 46.8 51.8 58.3 85.3z"/>
					<path id="&lt;Path&gt;" class="s1" d="m382.2 20.4c14.1 4.9 27.6 11.5 40.1 19.3-3.7 4.2-7 8.8-10.4 13.1-7.4 9.7-14.8 19.5-22.2 29.2-16.4 21.3-33.1 43.1-53 61.2-3.7 3.4-7.6 6.7-11.8 9.5-3.5 2.3-6.5 4-10.1 5-2.1 0.6-1.8 0.5-4 0.5-0.1 0-0.4 0-0.6-0.1-0.2 0-0.5-0.1-0.6-0.1q-0.5-0.1-1-0.3-0.1 0-0.1 0-0.1-0.1-0.3-0.2c-1.5-0.8-1.5-0.8-2.3-2.2-0.2-0.4 0 0.2-0.3-0.6q-0.1-0.6-0.2-1.2c0 0-0.1 0-0.1-0.6q0-0.9 0-1.8c0.4-10.2 8-22 13.6-30.9 7.1-11.3 15-22 23.2-32.6 5.7-7.5 11.5-14.9 17.2-22.4 4.8-6.3 9.5-12.7 13.7-19.4 3.7-5.8 7.5-12.3 8.9-19.1 0.4-2.1 0.6-4.2 0.3-6.3z"/>
					<path id="&lt;Path&gt;" class="s1" d="m297.5 10.9c-13.1 10.7-25 22.8-38.1 33.5-16.5 13.3-35.6 22.7-56.2 27.2-9.8 2.2-19.8 3.1-29.8 3.4 31.3-35 74.9-58.7 124.1-64.1z"/>
					<path id="&lt;Path&gt;" class="s2" d="m166.8 82.8c22.2 0 43.7-3.4 64.1-12.1 19.8-8.5 35.8-21.9 51.5-36.3 8.7-7.9 17.3-15.9 26.8-22.9 0.6-0.4 1-1 1.3-1.5q4-0.2 8.2-0.2 2 0 3.9 0c-17 16.2-30.9 36-50.1 49.8-11.7 8.3-25.1 14.2-38.5 19.2-13.7 5.2-28.1 9.9-42.6 12.6-10.6 1.9-22 0.3-32.7 2.2q3.9-5.5 8.1-10.8z"/>
					<path id="&lt;Path&gt;" class="s2" d="m123.8 204.6c0-7.7 0.5-15.3 1.4-22.8 22.6-10.2 42.7-27.1 67.5-32.1 4.3-0.9 9.1-1.3 13.4 0.3-1 4.9-4 9.3-7.2 13.1-4.8 5.6-10.5 10.4-16.4 14.9-11.6 8.6-24.1 15.9-35.5 24.8-7.3 5.6-14.5 11.6-22.7 15.9q-0.5-7-0.5-14.1z"/>
					<path id="&lt;Path&gt;" class="s1" d="m125.1 226.9c8.7-4 16.3-10 23.8-15.9 6.4-5 12.9-9.6 19.6-14 12.8-8.4 26.5-17.1 36.4-29.1 4.9-5.8 8.8-12.5 9.2-20.3 0-1.3-0.8-2.7-1.9-3.3-10.9-6.3-24.9-2-35.6 2.3-14 5.5-27 13-40.1 20.4-3.3 1.9-6.6 3.8-10 5.5 0.7-4.1 1.6-8.2 2.5-12.3 0.9 0.4 2 0.4 3.2-0.2 30.5-16.5 60.8-34 93.9-44.9 11.6-3.8 23-8.1 34.7-11.6 5.6-1.7 11.4-3.2 17.3-3.4 3.3-0.1 10.5 0.4 11.2 4.6 0.7 4.4-4.6 9.9-7.1 13-4.7 5.7-9.5 11.3-14.5 16.7-11.3 12-23.5 23.1-36.2 33.8-20.9 17.6-42.5 34.4-63.8 51.4-8.4 6.7-16.7 13.5-24.6 20.8-3.3 3-6.6 6-9.3 9.5-1.4 1.8-2.9 4-3 6.3-2.6-9.5-4.6-19.3-5.7-29.3z"/>
					<path id="&lt;Path&gt;" class="s3" d="m131.8 259.5c2.3 3.2 7.4 0.6 6.8-3q0.1-0.2 0.3-0.4c0.8-1.3 1.4-2 2.7-3.4 3-3.3 6.3-6.3 9.6-9.3 7.4-6.6 15.1-12.8 22.8-18.9 22.2-17.8 44.8-35.3 66.5-53.8 12.8-10.9 25.2-22.4 36.4-35 4.8-5.3 9.5-10.8 13.8-16.5 3.2-4.1 6.5-9.1 6.3-14.5-0.5-13.3-18.3-13.1-27.5-11.3-12 2.2-23.3 7.1-34.8 10.9-8.8 2.9-17.6 5.6-26.3 9-9.1 3.6-18 7.6-26.9 11.9-17 8.2-33.6 17.4-50.3 26.5 4.9-17.2 12-33.4 21.1-48.2q0.3-0.1 0.7-0.2c11.4-4.7 24.7-2.4 36.7-3.9 6.9-0.9 13.8-2.8 20.5-4.7q11.4-3.2 22.6-7.2c13.6-5 27.6-10.7 39.8-18.7 10.7-7 20-15.8 28.7-25.1 10-10.7 19.4-21.9 30.4-31.6 0.6-0.6 0.9-1.2 1.1-1.8 14.4 1 28.3 3.6 41.7 7.6-0.4 0.8-0.5 1.7-0.2 2.7 1.4 4.8-2.4 11.6-4.8 16-4 7.2-8.9 14-13.8 20.6-3.6 4.8-7.3 9.5-10.9 14.3-1.2 1.7-1.3 1.7-2.7 3.5q-2.2 2.8-4.4 5.6c-8.3 10.8-16.5 21.7-23.8 33.1-6.6 10.2-14 21.7-16 33.9-1.4 8.9 2.5 17.5 12.3 18.3 8.4 0.7 16.5-4.8 22.9-9.6 9.8-7.5 18.5-16.5 26.8-25.7 9.6-10.7 18.6-21.9 27.5-33.2 8.4-10.7 16.7-21.6 25-32.5 5.3-7 10.6-14.2 16.5-20.8 3.1 2.1 6.2 4.3 9.1 6.7-5.7 3.4-10.4 9.1-14.2 14.4-6.1 8.5-10.8 17.9-15.3 27.3-12 25.4-24.7 50.4-39.7 74.2-7.7 12.4-16 24.4-25.5 35.5-9.3 11-19.4 21.2-30.1 30.7-21.3 18.9-44.7 35.4-69.1 50-14.2 8.5-28.7 16.7-44.2 22.6-7.2 2.8-14.6 5.4-22.3 6.7-5.9 1-12.6 1.7-17.8 5.1-12.3-17.4-21.9-36.9-28-57.8z"/>
					<path id="&lt;Path&gt;" class="s1" d="m409.1 377.1c11.8-16.6 25.2-32 39.7-46.3 8.5-8.4 17.3-16.5 26.4-24.1 6-5 12.1-10 17.8-15.3-18.3 36.6-47.8 66.7-83.9 85.7z"/>
					<path id="&lt;Path&gt;" class="s4" d="m499.8 276.1c-1.1-0.3-2.4 0-3.5 1.1-8.3 9.1-18 16.8-27.4 24.7-9.2 7.7-18 15.8-26.4 24.2-17.2 17.1-32.8 35.6-46.1 55.8q-0.5 0.8-0.6 1.6c-23.7 10.2-49.8 15.9-77.1 15.9-18 0-35.3-2.4-51.7-7 36.3-8.1 70.6-23.7 102.2-43.2 35.4-21.8 67.8-48.2 98.7-76 14.7-13.2 29.2-26.7 43.5-40.4-2.2 15.1-6.1 29.6-11.6 43.3z"/>
					<path id="&lt;Path&gt;" class="s2" d="m512.7 220.9q-0.2 0.2-0.4 0.4c-29.1 27.7-58.5 55.4-89.9 80.6-31.7 25.4-65.7 48.4-102.9 64.9-20.7 9.2-42.4 16.1-64.7 20.2-0.8 0.1-1.4 0.5-1.9 0.9q-13.3-4.8-25.8-11.4c13.4-6.9 26.8-13.9 40-21.2 42.6-23.3 84.2-48.6 124.1-76.4 39.7-27.7 75.8-59.6 112.4-91.1q4.2-3.5 8.4-7.1c0.9 7.8 1.5 15.8 1.5 23.9 0 5.5-0.3 10.9-0.8 16.3z"/>
					<path id="&lt;Path&gt;" class="s5" d="m613.3 51.4c-2.7 7.7-7.2 14.8-11.7 21.5-9.7 14.6-20.2 28.9-31.7 42.1-14.8 16.9-31.2 32.4-48.1 47.2-17.3 15-34.8 29.8-52.1 44.7-17.8 15.4-35.8 30.7-54.5 45-37 28.4-76.7 53.5-117 77-20.2 11.7-40.6 23-61.2 33.8-19.8 10.5-39.9 20.3-59.7 31-38.3 20.6-77 42.7-119.6 53.1q-7.6 1.8-15.3 3.1c-3.9 0.7-8.1 1.3-12.1 0.8-4.5-0.6-7.4-2.8-8-6.9-0.8-4.9 1-10.6 2.7-15.3 1.9-5 4.2-9.7 6.7-14.3 3.5-8.5 8.1-16.5 13.2-24.1 13.5-20.3 30.1-39.1 47.2-56.4 14.3-14.4 29.4-27.9 43.5-42.5q4.3 9.2 9.5 17.8-0.1 0.1-0.2 0.2c-15 15.8-32.7 28.7-47.7 44.5-7.5 7.9-14.6 15.9-21.3 24.4-6.1 7.8-11.5 16-17.1 24.1-3.5 5.2-8.7 12.2-7.9 18.9-1.5-0.3-2.8-0.9-3.7-2.1-1.5-2-1-6.2-0.3-9.1 2.5-10.1 8.2-19.5 13.5-28.3-6.5 7.8-12.3 16.4-16.3 25.7-2.1 4.9-3.5 10.2-3.7 15.4q0.1 0.2 0.2 0.3c2.7 4.3 7.7 5.8 12.5 5.9 7.7 0.3 15.6-2.1 22.8-4.7 16.7-6.1 32.4-15.1 48-23.6 31.9-17.4 63.9-34.9 95.6-52.8 62-34.9 122.6-72.4 180.3-114 28.7-20.6 56.7-42.3 83.7-65.2 13.3-11.3 26.2-22.9 39.2-34.5 12.7-11.4 25.3-23 37.1-35.4q3.3-3.4 6.6-7 0.6-0.3 1.1-0.8c7.2-8 15.7-14.6 21.8-23.5 2.7-4.1 5.2-9.1 4.8-14.1-0.5-4.9-4-8.1-8.5-9.4-4.6-1.3-9.4-0.9-14-0.8-5 0.1-5 7.9 0 7.8 3.3-0.1 7.1-0.4 10 0.1 1.3 0.1 2.8 0.6 3.7 1.1 0.6 0.4 1 1.1 1.1 1.6 0.2 2-0.5 4-1.5 6-0.5-1.1-1.4-2.1-2.7-2.9-8.5-5.8-20.2-0.3-28.7 2.7-11.6 4.1-23 8.1-34.2 13.2-11.6 5.2-22.9 11-34.4 16.5q-3.6-5.3-7.5-10.2 4.6-1.8 9.2-3.7 0.5 0.1 1.1 0.1c1.6 0 2.7-0.9 3.3-2 18.2-8 36-17.2 54.6-24q4.1-1.9 8.2-3.7c10.6-4.7 21.9-9 33.5-10.7-1.1-0.5-2.3-0.8-3.5-1 5-1.3 9.9-2.3 14.9-2.7 4.1-0.3 7.2-0.3 10.7 0.8 2.5 0.8 4 1.9 5.2 4.3q0.1 0.1 0.1 0.1 0 0 0 0.1 0.2 0.6 0.4 1.1c0.3 1.3 0.4 2.6 0.4 3.9-0.1 3.3-1 6.6-2.2 9.8z"/>
				</g>
			</g>
		</g>
	</g>
</svg>