<svg version="1.2" xmlns="http://www.w3.org/2000/svg" viewBox="399 463 522 492" width="522" height="492">
	<title>3hmd_4h4p_230323-ai</title>
	<defs>
		<clipPath clipPathUnits="userSpaceOnUse" id="cp1">
			<path d="m399 463h522v492h-522z"/>
		</clipPath>
	</defs>
	<style>
		.s0 { fill: #000000 } 
		.s1 { fill: #f15b46 } 
		.s2 { fill: #fff160 } 
		.s3 { fill: #0078bf } 
		.s4 { fill: #00b395 } 
		.s5 { fill: #f79550 } 
		.s6 { fill: #52caf5 } 
		.s7 { opacity: .7;fill: #ffffff } 
	</style>
	<g id="Artboard 2" clip-path="url(#cp1)">
		<g id="&lt;Group&gt;">
			<g id="&lt;Group&gt;">
				<g id="&lt;Group&gt;">
					<path id="&lt;Path&gt;" class="s0" d="m632.6 846.3c4.2-6 7.7-12.5 11-19 3.2-6.4 6.7-12.7 9.4-19.3 4-9.5 9.9-24.8 6.9-35.3-3-10-14.4 1.4-18.3 4.5-3.1 2.4-6.1 5.1-9.3 7.6 1.4-2 2.6-4 3.8-6.2 3.1-5.5 6.8-11.4 7.4-17.9 0.2-1.8-1.9-3.4-3.6-2.9-3.8 1-7.2 3.2-10.4 5.5-2.4 1.6-4.9 3.3-7.2 5.1-2.1 1.5-4.2 3.1-6.5 4.6q-0.6 0.4-1.2 0.7c4.8-10 11.3-19.2 15.1-29.7 0.5-1.2-0.2-2.7-1.3-3.3-3.4-2.1-7.8-0.8-11.3 0.5-4 1.5-7.8 3.7-11.8 5.4-3.2 1.5-6.4 3.1-9.7 4.6-1.6 0.7-4.7 2.3-7.2 2.8 1.1-1.8 2.7-3.4 4.2-5 2.2-2.2 4.5-4.5 6.8-6.8 4.7-4.7 11-8.9 13.3-15.5 0.8-2.2-1.4-4.1-3.5-3.7-7.4 1.5-14 5.2-21 7.9 1.6-1.7 3.4-3.3 5-4.8 3-2.8 6.8-5.9 7-10.2 0.1-1.6-1.3-3-2.9-3-16.9-0.2-33.2 8.4-48.3 15.2-6.7 3-13.4 6.1-19.5 10.1-5.3 3.3-10.7 7.4-13.6 13.1-0.9 1.8-0.1 3.5 1.7 4.3 2.6 1.1 5.2 1.4 7.8 1.2-10.3 5.8-19.7 13.1-28.8 20.6-8.6 7-17 14.4-22.2 24.4-0.9 1.7-0.2 3.7 1.7 4.4 3.3 1 6.8-0.1 9.8-1.2 3.2-1.3 6.2-2.9 9.1-4.5-6.3 5-12.4 10.4-17.9 16.3-5.9 6.4-11.2 13.3-16.1 20.5-4.7 7-8.8 14.3-13 21.6-3.4 5.8-8.2 12.2-7.7 19.3 0.2 2 1.6 3.1 3.6 2.9 5.6-0.7 10.3-5.7 14.1-10.1-3 4.1-5.8 8.2-8.3 12.7-5.4 9.9-11.4 19.9-15.6 30.4-2.3 5.6-4 11.7-3.4 17.8 0.1 1.1 0.5 1.9 1.2 2.5 0.6 0.8 1.4 1.2 2.4 1.4 6.1 0.8 12.3-0.6 18-2.6 10.7-3.7 20.9-9.2 31.1-14.1 4.6-2.3 8.9-4.9 13.1-7.7-4.6 3.6-9.8 8-10.7 13.6-0.4 2 0.7 3.5 2.7 3.7 7.1 0.9 13.6-3.6 19.6-6.7 7.5-3.9 15-7.6 22.2-12 7.4-4.6 14.6-9.5 21.2-15.1 6.3-5.2 11.9-11 17.2-17.1-1.8 2.8-3.5 5.8-4.9 8.9-1.3 2.9-2.6 6.4-1.7 9.7 0.6 1.9 2.5 2.7 4.3 1.9 14-6.4 23.9-19.2 33.6-30.6 5-5.9 9.7-11.8 13.7-18.2-0.2 2.6-0.1 5.2 0.9 7.9 0.7 1.8 2.4 2.7 4.3 1.9 5.8-2.6 10.1-7.9 13.7-13z"/>
					<path id="&lt;Path&gt;" class="s1" d="m619.6 852c0-4 1.6-8.1 2.9-11.7 2-5.5 4.4-11 4.5-16.8 0.1-2.4-3.2-4.2-4.9-2.2-2.7 3-4.2 6.4-5.6 10.1-1.6 3.9-3.4 7.6-5.5 11.3-4.1 7.2-9.1 13.8-14.5 20.1-8.4 9.9-16.8 21-28.1 27.8 0.6-1.6 1.4-3.1 2.1-4.3 1.8-3.4 4-6.6 6.1-9.9 2-3.1 3.8-6.2 5.6-9.4 2.1-3.9 4-8.1 3.3-12.6-0.4-2.8-4-2.8-5.4-0.9-5.3 7.7-10.9 15.1-17.2 22.1-10.9 12.2-23.7 22.2-37.7 30.6-6.7 4-13.8 7.4-20.7 11-3.4 1.8-7.2 4.3-11.1 5.3 0.9-1.2 2-2.2 3-3.1 2.6-2.5 5.4-4.6 8.2-6.9 7-5.7 12.7-13 18.8-19.6 2.2-2.4-0.5-6.6-3.4-4.8-8.3 5.2-15.9 11.1-24 16.6-3.7 2.6-7.5 4.8-11.3 6.9q-5.7 3.8-11.7 7.3c-7.5 4.3-15.3 8.7-23.5 11.5-3.1 1.1-6.9 2.3-10.1 1.3-3.4-1.1-4.3-4.5-3.9-7.7 0.4-2.7 1.5-5.2 2.5-7.7q2.3-5.3 4.8-10.5c3.5-7 7.5-13.8 11.7-20.4 8.3-12.9 17.7-25.1 27.7-36.8 0.1 0 0.1-0.1 0.2-0.1 1.7-2.8-2.2-5.5-4.6-3.5-6.9 5.8-14.5 11.2-20.5 17.9-2.4 2.6-4.7 5.4-7.3 7.9-1 0.9-2.1 1.9-3.2 2.8 1.2-3.9 3.8-7.5 5.7-10.8 4.1-6.8 7.7-13.7 12-20.2 9.1-13.6 19.7-25.9 32.4-36.3 7.3-5.8 15-11.1 22.9-16.1 1.9-1.2 2.1-4.8-0.6-5.4-4.5-0.9-8.8 0.8-12.8 2.8-3.2 1.6-6.5 3.2-9.6 5-3.4 2-6.7 4-10.3 5.7-1.2 0.6-2.7 1.4-4.3 1.9 7.3-10.9 18.8-18.8 29.1-26.7 6.6-5.2 13.3-9.8 20.8-13.6 3.7-1.9 7.5-3.6 11.5-4.9 3.7-1.3 7.3-2.6 10.4-5.1 2-1.6 0.4-5-2-5.1-5.8-0.1-11.4 2-17 3.7-3.7 1.2-7.8 2.6-11.8 2.3 2.7-3.3 6.5-5.9 10.2-8.2 5.9-3.6 12.1-6.5 18.4-9.3 6.1-2.7 12.1-5.7 18.3-8 4.3-1.6 8.9-2.9 13.4-3.8 0.5 0.1 1 0.1 1.5-0.1q0.9-0.3 1.7-0.5 2.1-0.4 4.2-0.7c-1.1 1-2.2 2-3.3 3.1-3.4 3.5-7.4 7-9.7 11.4-1.2 2.3 0.6 4.8 3.2 4.4 7.6-1.4 14.3-5.2 21.5-7.9q-0.9 0.8-1.7 1.6c-2.4 2.2-4.8 4.4-7.1 6.8-4.6 4.8-10.7 9.3-12.6 16-0.3 1.3 0.2 2.7 1.3 3.4 3.5 1.9 7.8 0.6 11.2-0.7 4.1-1.5 8-3.6 12-5.4 3.2-1.5 6.4-3.1 9.6-4.6 1.7-0.8 5-2.5 7.6-2.9-4.5 10.7-11.5 20.3-15.8 31.1-0.5 1.2-0.2 2.1 0.5 2.7 0.2 0.8 0.9 1.6 1.9 1.9 2.4 0.8 5.1-0.5 7.1-1.7 2.7-1.6 5.3-3.5 7.8-5.4 2.4-1.7 3.6-2.6 6.1-4.3 1.8-1.3 3.7-2.7 5.6-3.8q-0.7 1.5-1.4 3c-1.4 2.9-3 5.6-4.5 8.4-2.8 5.1-7.9 9.8-8.1 15.8-0.1 2.3 2.4 3.6 4.3 2.7 5.4-2.7 9.9-6.7 14.4-10.5 3.1-2.6 6.2-5.1 9.3-7.6 1.4-1 2.7-2 4.2-2.8q0 0.2 0.1 0.5 0 1.2-0.2 2.4c-1.3 11.3-4 22.9-8.9 33.2-1.8 3.7-3.8 10.4-6.7 13.2-3.2 6.2-6.4 12.3-10.3 18-2.4 3.5-5.2 7.2-8.7 9.8z"/>
					<path id="&lt;Path&gt;" class="s2" d="m582.5 759c-1.1-0.7-1.6-2.1-1.3-3.4 0.1-0.4 0.3-0.7 0.5-1.1-7.8 2.4-15.4 5.3-22.6 8.8-8.7 4.2-17.3 9.6-23.4 17.3 7.6-0.1 15.1-0.9 22.6-1.8 1.5-0.2 2.5 1.9 1 2.5-8.9 3.9-17.6 8.5-25.5 14-7.1 5-13.8 10.9-18.4 18.2 6-1.7 11.8-4 17.8-5.9 1.2-0.4 2.3 1.5 1.2 2.3-8.5 6.9-16.9 14.1-24.5 22.1-6.7 7.2-13 15.1-17.2 24.1 4.9-2.3 9.5-5.4 14.6-7.3 1.4-0.6 2.8 1 1.6 2.2-11.4 12-24.4 23.3-32.1 38.2 16-8 29.1-21 42.9-31.9 1.2-0.9 3 0.3 2.1 1.7-1.8 2.9-3.8 5.8-5.4 9-1.2 2.3-2.2 4.9-2.3 7.6 9.2-4.5 17.5-10.8 25-17.8 8.2-7.7 15.6-16.3 22-25.6 0.9-1.2 3.1-0.4 2.5 1.1-2.8 7.6-6.6 14.9-9.4 22.5 8.8-4.4 15.8-11.9 21.7-19.6 6.7-8.6 12.2-18 18.2-27.1 0.9-1.4 2.8-0.4 2.5 1.1-1.2 7.1-3.2 14-5 21 4.2-3.6 7.9-7.7 11.1-12.3 9.6-13.5 15.2-29.1 21.2-44.4-2.4 1.7-4.8 3.5-7.3 4.9-2 1.2-4.7 2.5-7.1 1.7-1-0.3-1.7-1.1-1.9-1.9-0.7-0.6-1-1.5-0.5-2.7 4.3-10.8 11.3-20.4 15.8-31.1-2.6 0.4-5.9 2.1-7.6 2.9-3.2 1.5-6.4 3.1-9.6 4.6-4 1.8-7.9 3.9-12 5.4-3.4 1.3-7.7 2.6-11.2 0.7z"/>
					<path id="&lt;Path&gt;" class="s0" d="m605.4 816.5c3.4-6.9 5.8-13.9 7.5-21.5 0.7-3.2-4.2-4.6-4.9-1.4-1.5 6.9-3.6 13.4-6.8 19.7-2.1 4.3-4.4 9.2-7.9 12.8-0.4-3 0.9-6.2 1.8-8.9 1.4-4.2 3.4-8.6 3.4-13.2-0.1-2.2-2.7-3.4-4.4-1.9-2 1.9-3.2 4.4-4.4 6.9-1.3 2.5-2.7 4.9-4.3 7.3-3 4.7-6.4 9.3-9.6 13.9-4.5 6.5-9.3 14.5-16.2 18.9 0.2-0.8 0.6-1.6 0.8-2.3 0.9-2.3 2.1-4.5 3.3-6.7 3.1-5.8 6.4-11.8 8.5-18.2 0.9-2.8-3.1-4.3-4.7-2-4.1 6.3-8.4 12.5-13.1 18.3-4.2 5.1-8.8 9.7-13.6 14.3-4 3.9-8.1 7.8-12.5 11.2-3.1 2.4-6.5 4.8-10.2 6.3q0.3-0.5 0.6-1c1.1-1.8 2.3-3.5 3.6-5.2 1.2-1.6 2.3-3.3 3.4-5 2-2.8 4.2-5.5 5.7-8.7 1.2-2.5-1.8-5.3-4-3.1-7.9 7.8-15.7 15.8-24.5 22.8q-1 0.8-2 1.6-0.2 0.1-0.4 0.3-1.4 1.1-2.9 2.2c-2.4 1.7-4.9 3.5-7.3 5.2-1.9 1.3-3.7 2.7-5.8 3.8 1.1-1.6 2.3-3.1 3.5-4.6q0.3-0.4 0.6-0.8c2.9-3.5 6-7 8.9-10.6q0.5-0.5 0.6-1c7.3-8.3 15.6-15.7 23.8-23.2 2.2-2-0.5-5.1-3-4.1-3.2 1.4-6.1 3.4-9 5.3-1.7 1.1-3.4 2-5.1 3.2-1.8 1.1-3.5 2.3-5.4 3.3q-0.5 0.3-1 0.5c1.7-3.6 4.2-6.8 6.8-9.8 3.6-4.3 7.7-8.1 11.7-12 4.8-4.5 9.7-8.9 15-12.8 6-4.5 12.4-8.5 18.9-12.3 2.4-1.4 1.1-5.6-1.8-4.8-6.5 1.8-12.6 4.8-18.6 7.7-2.2 1.1-4.5 2.1-6.8 2.9-0.7 0.2-1.5 0.5-2.3 0.7 4.7-6.7 12.9-11.1 19.6-15.3 4.8-3 9.5-6.1 14.4-8.9 2.4-1.4 4.9-2.8 7.4-3.9 2.6-1.1 5.1-2.2 7.1-4.1 1.7-1.6 0.5-4.3-1.7-4.5-4.5-0.3-9 1.6-13.3 2.8-2.7 0.8-6 1.8-9 1.4 3.7-3.4 8.8-5.4 13.2-7.4 6.4-2.8 13-4.6 20-5.8 3.2-0.5 2-5.5-1.2-5-7.6 1.3-14.7 3.4-21.8 6.6-6.1 2.7-12.5 5.7-16.7 11.2-0.9 1.2-0.2 2.8 0.9 3.5 3.3 2.5 6.9 2.6 10.6 1.8-4.7 2.8-9.3 5.9-13.9 8.8-8.1 5-17.9 10.6-22 19.6-0.6 1.3-0.3 2.6 0.9 3.5 2.6 2 6.5 1.1 9.9-0.2-4.4 3.5-8.6 7.3-12.7 11.2-8.1 7.7-17.8 16.4-21 27.5-0.3 1.1 0.2 2.3 1.2 2.9 2.3 1.4 5 0.6 7.6-0.6-2.6 2.6-5.2 5.3-7.6 8-3 3.6-5.8 7.2-8.7 10.9q-1 1.3-2.1 2.6c-1.9 2.4-5.3 5.7-5.3 9.1q-0.2 0.7-0.3 1.4c-0.4 1.4 0.4 2.6 1.7 3.1 4 1.7 8.1-2.3 11.1-4.4 3.6-2.6 7.1-5.3 10.6-8q2.5-1.8 5-3.8c2.9-2.2 5.7-4.6 8.4-7.1-1.4 2.5-2.2 5.2-1 7.6 0.5 1 1.8 1.5 2.9 1.3 11.2-2.7 20.4-11.9 28.4-19.7 4.1-3.9 8.1-7.9 11.8-12.2-1.4 3.4-2.5 7.2-0.6 10 0.8 1.2 2.1 1.6 3.4 1 9.2-3.7 15.3-13.2 20.7-21 3.1-4.5 6.3-9 9.4-13.5-1 3.6-1 7.3 1.3 10.7 0.7 1.1 2.2 1.9 3.4 1.1 5.7-4 9-10.2 12.1-16.2z"/>
				</g>
			</g>
			<g id="&lt;Group&gt;">
				<path id="&lt;Path&gt;" class="s0" d="m769.2 749.1c3.2-3.9 6.8-8.1 8.6-12.9 3-7.7-1.4-15-2.4-22.7 0-0.7-0.3-1.2-0.7-1.6 19.9-18.2 37.8-38.9 53.8-60.4 17.1-22.9 31.8-47.6 42.6-74.2 10.7-26.3 17.2-54.4 17.7-83.1 0-1.1-0.5-1.9-1.2-2.4-0.5-0.7-1.2-1.3-2.4-1.3-28.6-0.8-57 4.3-83.8 13.7-27 9.5-52.4 23.1-76.1 39-23.1 15.6-45.4 33.3-65.1 53.2-12.2-8.2-26.4-2.4-36.8 5.8-7.5 5.9-14 13.1-20.5 19.9-6.5 6.8-12.5 14.1-18.2 21.5-5.7 7.4-11.1 14.8-15.9 22.8-4.4 7.3-8.3 15-12.2 22.6-3.2 6.2-7.5 14.4-6.2 21.7 0.6 2.9 2.8 4.8 5.8 4.4 2.6-0.3 4.9-2.1 7-3.6 8.2-6 16.1-12.6 23.8-19.3 6.2-5.3 12.2-10.9 18.9-15.4 0 5.2 1.5 10.5 3.9 15.2 3.1 6.2 7 12.2 11 17.9q3.1 4.5 6.6 8.9c-2.2 3.2-4.2 6.3-6.1 9.6-2.5 4.1-4.7 8.6-5.7 13.3-0.9 3.8-1.6 9.1 1.4 12.2 2.9 3 7.6 2.1 11 0.9 4.8-1.7 9.2-3.9 13.6-6.4q4.6-2.7 9.1-5.6 3.1 2.7 6.4 5.2c5.5 4.2 11.2 8.4 17.3 11.8 5.1 2.8 10.8 4.7 16.7 4.6q0.6 0 1.3-0.1c-1.8 2.1-3.7 4-5.5 6-3.5 3.5-6.8 7.1-10 10.9-5.2 6-10 12.4-14.8 18.7-3 4.1-6.6 8.8-7.4 14-0.4 2.6 0.2 5.4 2.5 7 2.2 1.5 5.1 1.2 7.6 0.6 6.2-1.7 12.3-5.2 17.9-8.1 9.1-4.6 17.7-10 26.1-15.7 8.5-5.8 16.8-11.9 25.1-17.9 8.1-5.9 16.2-11.9 23.7-18.7 4.1-3.8 8-7.7 11.6-12z"/>
				<path id="&lt;Path&gt;" class="s1" d="m794.6 513c25.5-9.9 52.6-16.1 80.1-16.6 2.7-0.1 5.4 0 8.1 0-0.1 2.7-0.2 5.4-0.4 8.1-1.8 27.4-9.3 54.3-20.4 79.2-0.7 1.6-1.5 3.2-2.3 4.8-15.4-7.5-30.2-16.4-43-27.9-13.4-12-21.3-28.3-27.1-44.9q-0.1-0.3-0.2-0.5c1.7-0.7 3.5-1.5 5.2-2.2z"/>
				<path id="&lt;Path&gt;" class="s3" d="m722.2 552.6c19.4-13.6 40-25.7 61.8-35.2 6.1 17.2 14.1 34.1 27.8 46.6 13.4 12.4 29.1 21.9 45.4 29.8-10.6 21.4-23.6 41.5-38.2 60.4-18 23.4-38.3 45.6-61.1 64.4-10.7 8.8-22 16.9-33.6 24.5-10.2-3.6-19.2-10.1-28.2-15.9-2.5-1.7-4.5-3.5-6.8-5.7-1.1-1-2.6-2.8-4.2-3.9q6-5.2 11.6-10.8c9.4-9.5 28.3-25.9 20.7-41.8-5-10.5-20.2-16.2-30.4-11-9.6 4.9-17.4 12.9-24.4 20.8q-4.7 5.3-9.3 10.8c-1.9-3.1-4.1-6-6-9q-4-6.1-8-12.2-3.2-5-6.3-10.1c-1.6-2.5-3.1-5.1-3.8-8 0.2-0.9 0.2-1.9-0.4-2.8q0 0 0 0.1 0-0.1-0.1-0.1 0-0.1-0.1-0.2c8.2-11.4 16.9-22.3 26.3-32.7 19.9-21.9 43-41.1 67.3-58z"/>
				<path id="&lt;Path&gt;" class="s4" d="m588.7 682.9c-6.1 5.3-12.3 10.6-18.7 15.8q-4.9 3.9-9.9 7.7c-0.9 0.7-1.7 1.3-2.7 1.9q-0.5 0.3-1.1 0.6c0-0.6-0.1-1.2 0-1.6 0.1-1.8 0.5-3.5 1.1-5.2 1-3.4 2.5-6.5 4.1-9.6 7.3-14.3 14.9-28.1 24.6-40.9 10.2-13.6 21.5-26.1 33.6-38.1 9.1-9 23.2-20.1 36.3-12.8q0 0 0 0c-12.2 12.8-23.3 26.6-33.6 41-5.8 8.3-12.8 17.3-15.4 27.4-6.7 3.8-12.6 8.8-18.3 13.8z"/>
				<path id="&lt;Path&gt;" class="s5" d="m622.9 702.5q-1.7-2.5-3.3-5.1c-3.1-5.2-6.4-10.5-7.4-16.6-2-11.1 5.1-21.1 11-29.8q0.5-0.6 0.9-1.3c0.8 2.3 1.9 4.4 3.1 6.4 2.1 3.5 4.3 6.9 6.4 10.3 2.7 4.1 5.4 8.1 8 12.2 2.5 3.9 5.3 7.7 7.7 11.7q-4.5 5.4-8.8 10.9c-3.3 4.2-6.6 8.5-9.8 13-3-3.7-5.7-7.5-7.8-11.7z"/>
				<path id="&lt;Path&gt;" class="s4" d="m693.8 701.3q-0.3 0.2-0.5 0.5c-6.3 6.3-12.8 12.3-19.8 17.8-6.9 5.5-14.3 10.4-21.7 15.3q-0.1 0.2-0.4 0.5c-0.1 0.1-0.3 0.2-0.4 0.3q-0.2 0.1-0.3 0.2c-0.3 0.2-0.6 0.4-0.8 0.5-1.4 0.9-2.8 1.7-4.2 2.5-6.6 4.3-13.6 8.8-21.1 10.7-0.8 0.2-2.7 0.8-3.4 0.2-0.9-0.8-0.4-3.9-0.2-5 0.6-4.1 2.4-8 4.4-11.6 1.8-3.3 3.8-6.5 5.9-9.6q0.1 0.1 0.2 0.2c0.9-1.7 2-3.3 3.2-4.9q0 0-0.1-0.1c2.2-3 4.5-6 6.7-8.9 6.3-8.3 12.9-16.3 19.7-24.2 6.8-7.9 13.6-16 22.1-22.3q1-0.7 2.1-1.5 0.1 0 0.2 0 1.4-0.9 2.9-1.6c2.4-1.8 6.5-2 9.2-1.8q0.7 0.1 1.3 0.3c5 0.6 9.7 3.1 12.5 7.5 3.3 5.5 2.8 12.5-0.5 17.8-4.2 6.7-11 12.2-17 17.2z"/>
				<path id="&lt;Path&gt;" class="s5" d="m685.7 758c-5.3-1.2-9.9-4.1-14.3-7-6.4-1.7-12-5.8-17-10.5 5.4-3.6 10.7-7.2 15.9-11 3.4-2.5 6.8-5.1 10.1-7.9q0.3 0.4 0.9 0.6 0 0 0 0.1 0.8 0.6 1.5 1.3 1.8 1.6 3.6 3.2c2.6 2.4 5.3 4.5 8.3 6.4 7.5 5 15.2 10.2 23.5 13.8q-1.1 0.7-2.2 1.3c-8.9 5.5-19.3 12.1-30.3 9.7z"/>
				<path id="&lt;Path&gt;" class="s4" d="m713.6 787.2c-13.8 9.7-28 18.3-43.2 25.7-2.5 1.2-5 2.4-7.7 3-0.8 0.2-1.4 0.2-2.1 0.1-0.1 0-0.1-0.2-0.1-0.5-0.1-1.9 1.2-4 2.1-5.6 1.3-2.2 2.7-4.3 4.3-6.4 4.7-6.4 9.5-12.7 14.7-18.7 3.3-3.8 6.7-7.5 10.2-11.1 3.2-3.2 6.4-6.6 8.7-10.5q0.2-0.2 0.2-0.4c6.9-2.2 13.4-6.1 19.5-10 3.6-2.5 7.3-5 11.1-7.3q0 0 0.1 0c12.6-8.4 24.9-17.5 36.4-27.5 0.7-0.6 1.4-1.2 2.1-1.9 1 5.4 4 11 2.9 16.3-0.9 3.9-3.9 7.5-6.3 10.5-2.7 3.6-5.8 7-9.1 10.1-13.1 13-28.8 23.5-43.8 34.2z"/>
				<g id="&lt;Group&gt;">
					<path id="&lt;Path&gt;" class="s0" d="m794.3 582.4c-14.9-15.7-39.6-16.4-55-1.7-15.5 14.7-15.9 39.4-0.9 55 14.9 15.7 39.5 16.5 55 1.7 15.4-14.7 15.8-39.3 0.9-55z"/>
					<path id="&lt;Path&gt;" class="s6" d="m743.3 631c-12.2-12.9-11.9-33.2 0.8-45.3 12.7-12.1 32.9-11.4 45.2 1.4 12.3 12.9 12 33.2-0.7 45.3-12.7 12.1-33 11.5-45.3-1.4z"/>
				</g>
			</g>
			<path id="&lt;Path&gt;" class="s7" d="m807.2 530.3c24.4-7 69.9-28.3 69.9-28.3 0 0-29.1-2.7-76.4 14.7 2.1 4.6 4.2 9.2 6.5 13.6z"/>
			<path id="&lt;Path&gt;" class="s7" d="m782.1 524.9c-28.7 13.5-63.2 34.8-101.5 68.4 0 0 51.8-35.9 105.1-57.1-1.4-3.7-2.5-7.5-3.6-11.3z"/>
		</g>
	</g>
</svg>