<svg version="1.2" xmlns="http://www.w3.org/2000/svg" viewBox="77 668 219 260" width="219" height="260">
	<title>3hmd_4h4p_230323-ai</title>
	<defs>
		<clipPath clipPathUnits="userSpaceOnUse" id="cp1">
			<path d="m77 668h219v260h-219z"/>
		</clipPath>
	</defs>
	<style>
		.s0 { fill: #000000 } 
		.s1 { fill: #848689 } 
		.s2 { fill: #fff37e } 
		.s3 { mix-blend-mode: multiply;fill: #f8ca77 } 
		.s4 { fill: #4a4b4c } 
		.s5 { fill: #ffffff } 
	</style>
	<g id="Artboard 3" clip-path="url(#cp1)">
		<g id="&lt;Group&gt;">
			<g id="&lt;Group&gt;">
				<path id="&lt;Path&gt;" class="s0" d="m274.6 803.1c1.7-4.5 2.9-9.3 3.6-14.2 2.4-18.8-5-38.2-16.3-53-4.7-6-10.2-11.2-16.2-15.8q0-0.1 0.1-0.1c-5.6-4-11.1-8-17.4-10.8-7.6-3.4-15.7-5.6-24-6.7q0 0.1 0 0.2c-7.5-1-15.1-1.4-22.7-0.4-18.4 2.2-37.5 10.5-49.2 25.4-3.1 3.9-5.6 8.1-7.7 12.6-4.1 7.5-6.7 16-7.4 24.4-0.7 7.8 0.3 15.7 2.1 23.2 1.8 8.1 4.9 15.4 9.3 22.4 4.2 6.6 9.6 11.7 10.3 19.9 0.4 4.8-1.1 9.3-3.1 13.7-1.9 4.1-5.2 8.2-4.9 13q0.1 0.8 0.3 1.5c-1.3 1.9-3 3.5-3.2 5.9q-0.1 1.3 0.2 2.5-0.1 0-0.2 0.1c-1.5 1.5-2.9 3.2-3.2 5.3q-0.1 0.9 0 1.7c-3.4 2.7-3.6 7.9-0.8 11.1 1.2 1.3 2.5 2.4 4 3.3 0.1 2.1-1 4.1-1.5 6-0.4 1.9-0.3 3.9 0.6 5.7 1.6 3.3 5.3 5 8.6 6.2 3.6 1.3 7.1 2.5 10.7 3.9 4 1.5 8.9 3.5 13.3 2.9 4.1-0.6 7.3-4.8 8.6-8.5q0.1-0.3 0.1-0.6c2.3 0.2 4.6 0.2 6.7-0.9 2.6-1.3 4-3.6 3.5-6.5q0-0.3-0.2-0.6 0.9-0.6 1.5-1.4c1.4-2.1 1.3-4.6 1.3-6.9q0-0.3-0.1-0.5c2.6-1.6 4.5-4.1 4.1-7.4q0 0 0-0.1c1.6-0.7 3.1-1.7 4.4-3.2 4-4.1 4.3-10.4 6.9-15.2 2-3.8 4.4-8.5 9.1-9.2q0.3 0 0.6-0.2 1-0.2 2-0.3c4.4-0.7 8.9-1.2 13.3-2.2 8.1-1.7 15.5-4.6 22.6-8.9 6.6-4.1 13-8.9 18-14.8 5.5-6.4 9.7-14.2 12.3-22.5z"/>
				<path id="&lt;Path&gt;" class="s1" d="m133.5 862.4c1.5 1.8 3.4 3.3 5.2 4.5 4 2.4 8.3 4.1 12.5 6 5.4 2.4 10.8 4.9 16.5 6.5 4.4 1.3 9.2 2.1 13.6 1.4-0.1 1.9-2.2 3-3.8 3.6-2.4 1-5 0.9-7.5 0.6-6-0.7-11.9-2.9-17.4-5-5.4-2.1-10.9-4.4-15.5-8-1.8-1.3-3.5-2.9-4.4-5-0.4-1.1-0.7-2.1-0.2-3.2 0.3-0.5 0.6-1 1-1.4z"/>
				<path id="&lt;Path&gt;" class="s2" d="m176.4 801.5c0.7 2.4 1.8 4.6 3.7 6.2 3.9 3.1 9.2 1.6 13.1-0.6q1-0.7 2.1-1.4c0.1 4.1 1.1 8.2 4.1 11.2q1.1 1.1 2.4 2-0.4 0.7-0.9 1.4c-7.9 11.8-15.3 23.7-22.1 36.2-1.7 3-3.3 6.1-4.9 9.1-1.3 2.7-2.4 5.4-4.1 7.9-0.5 0.8-0.4 1.7 0.1 2.3-4.7-1.2-9.1-3.1-13.5-5-4.3-1.9-8.7-3.7-12.8-5.8q0-0.1 0.1-0.1c0.4-0.5 0.6-1.1 0.5-1.6 2.4-6.6 5.2-13.1 7.5-19.7 2.3-6.9 4.2-14 5.7-21.2q1.3-6.7 2.5-13.4 0.8 0.1 1.7 0.1c5.9 0.2 10.9-3.4 14.8-7.6z"/>
				<path id="&lt;Path&gt;" class="s3" d="m173.9 865.6c1.6-3 3.2-6.1 4.9-9.1 6-11.1 12.6-21.9 19.6-32.4-3.9-0.4-7.7-0.9-11.5-1.7-9.6-2.1-19-5.9-27.4-11q-1 5.5-2.1 11c-1.5 7.2-3.4 14.3-5.7 21.2-2.3 6.6-5.1 13.1-7.5 19.7 0.1 0.5-0.1 1.1-0.5 1.6q-0.1 0-0.1 0.1c4.1 2.1 8.5 3.9 12.8 5.8 4.4 1.9 8.8 3.8 13.5 5-0.5-0.6-0.6-1.5-0.1-2.3 1.7-2.5 2.8-5.2 4.1-7.9z"/>
				<path id="&lt;Path&gt;" class="s2" d="m179.5 789.5c0.1-5.6 0.4-11.4 2.2-16.8 0.8-2.3 1.8-5 3.7-6.7q0 0 0 0c0.3 0.8 0.6 1.4 0.8 2.2 0.5 2.7 0.2 5.3-0.5 8-1.3 5-3.5 10-6.3 14.5q0-0.6 0.1-1.2z"/>
				<path id="&lt;Path&gt;" class="s2" d="m203.6 787.4c1.2-2.3 2.7-4.5 4.3-6.6 0.4-0.5 0.9-1.1 1.3-1.6q0.2-0.2 0.4-0.4c-0.3 0.9-0.6 1.7-1 2.5q-1.1 2.2-2.2 4.4c-1.6 3.1-3.5 6-5.6 8.8q1.1-3.7 2.8-7.1z"/>
				<path id="&lt;Path&gt;" class="s1" d="m176.3 892.6c-1.8 1.2-5.1 0.8-7.1 0.6-6-0.6-11.7-2.8-17.2-4.9-5.7-2.3-11.5-4.6-16.5-8.2-2.1-1.5-5-3.5-6.2-6-0.6-1.3 0-2.4 0.9-3.4q0.1 0.1 0.1 0.2c2.7 4 7.2 6.5 11.4 8.7 5.6 2.9 11.5 5.1 17.6 7 5.2 1.6 10.7 3.2 16.3 2.5q0.9-0.1 1.8-0.4c0 1.4 0 3.2-1.1 3.9z"/>
				<path id="&lt;Path&gt;" class="s4" d="m161.7 907.6c-1.6 1.6-3.4 1.5-5.5 1.1-4.9-0.7-9.2-3.1-13.8-4.6-3.5-1.2-7.8-2-10.5-4.6-1.5-1.4-1.5-3.1-1-5.1 0.4-1.4 0.8-2.7 1.1-4 1.5 0.7 2.9 1.3 4.3 2 9 4.4 18.3 9.2 28.2 11-0.6 1.6-1.5 3.1-2.8 4.2z"/>
				<path id="&lt;Path&gt;" class="s1" d="m162.4 898.7c-5.6-1.3-11-3.6-16.2-6-4.7-2.1-9.4-4.3-13.9-6.7-2-1.1-4.3-2.4-5.6-4.3-0.7-1.3-0.5-2.7 0.2-3.9q0.1 0.1 0.2 0.2c3.9 4.6 9.2 7.8 14.6 10.3 5.2 2.5 10.7 4.6 16.1 6.4 5.4 1.8 11.2 3.2 16.8 2.5q0.1 0 0.2 0c0.6 4.8-10.2 2.1-12.4 1.5z"/>
				<path id="&lt;Path&gt;" class="s2" d="m255.5 826.8q-1.3 1.3-2.8 2.5c-5.9 5-12.6 9.5-19.8 12.5-7.2 2.9-14.8 4.2-22.5 5.3-11.4 1.6-16.9 9.4-20.2 19.8-1.4 4.3-3.3 8.2-7.9 9.6-3.1 1-6.5 0.6-9.7 0q0.2-0.2 0.4-0.5c1.5-2.2 2.6-4.5 3.7-6.9 1.4-2.8 2.8-5.5 4.3-8.2q4.7-8.7 9.7-17.3c4.7-7.8 9.7-15.5 14.9-23 7.9 2.2 17.7-1.9 24.2-6 4.7-2.9 9-6.5 12.8-10.6 3-3.3 7.1-8 5.5-12.9-2-6.1-9.4-5.1-14.1-3.5-4.9 1.7-9.3 4.6-13.1 8-6.6 5.7-11.8 12.7-16.7 19.9-4.3-2.5-5-7.5-4.9-12q0.1-0.6 0.1-1.1c5.3-5.1 9.1-11.9 12.3-18.3 1.3-2.6 4.4-9.3-0.7-10.2-2.1-0.3-3.9 1.5-5.2 3-1.6 1.9-3.1 3.9-4.3 6-3.2 5.4-5.4 11.3-6 17.5-2.1 1.9-4.4 3.4-7 4.4-1.6 0.6-3.6 1-5.3 0.1-1.3-0.8-2.1-2.3-2.6-3.8-0.4-1.1-0.7-2.3-0.9-3.6 4.2-5.6 7.5-12.1 9.5-18.8 0.9-3.1 1.6-6.3 1.2-9.5-0.3-3.4-2.6-9.7-7.2-6.7-2.2 1.5-3.7 4.6-4.6 7-1.2 3-1.9 6.2-2.4 9.4-0.8 5.4-1.1 11.1-0.7 16.6q0 0.4 0 0.9c-2.9 3.7-6.5 7.2-11.1 8.4-1.3 0.3-2.6 0.4-3.9 0.2q0.4-2.3 0.7-4.6c1.1-7.2 1.9-14.4 2.2-21.7 0.2-5.9 0.6-13.2-2.3-18.6-1.1-2-2.9-3.7-5.3-3.8-4.1-0.1-7 3.2-8.6 6.6-4 8.1-4.2 18.8-2.4 27.5 1.3 6.7 4.9 14.4 11.2 17.4-2 12.7-4.8 25.3-9.2 37.3-2.2 5.9-4.6 11.8-6.7 17.7q-0.1 0.1-0.1 0.1c-2.5-1.7-4.9-4-4.8-6.9 0-2 1.1-3.9 2-5.6 4.2-7.6 6.5-15.4 5.5-24.3-0.4-3.8-2.1-6.3-4.3-9.3-4.6-6.2-9.1-12.6-12-19.8-2.9-7.1-4.4-15.2-5-22.8q-0.1-1.9-0.1-3.8c-0.6-8.8 2-18.2 5.6-26 7.9-17.5 24.2-29.6 42.4-34.9 14.4-4.3 30-4.7 44.6-1.1 21.4 5.4 39.7 20.4 50.5 39.5q0.5 1 1 2c8.9 16.7 11.7 36.8 4.8 54.7-3.1 8.1-7.9 16.4-14.7 22.2z"/>
				<path id="&lt;Path&gt;" class="s3" d="m270.2 804.6c3.2-8.5 4.3-17.5 3.6-26.3-3 12.6-9.9 25-20 33.3-9 7.6-20.4 11.4-32 12.7-5.9 0.6-11.8 0.6-17.7 0.2q-0.6 0-1.2 0c-4.2 6.2-8.3 12.6-12.2 19.1q-5 8.6-9.7 17.3c-1.5 2.7-2.9 5.4-4.3 8.2-1.1 2.4-2.2 4.7-3.7 6.9q-0.2 0.3-0.4 0.5c3.2 0.6 6.6 1 9.7 0 4.6-1.4 6.5-5.3 7.9-9.6 3.3-10.4 8.8-18.2 20.2-19.8 7.7-1.1 15.3-2.4 22.5-5.3 7.2-3 13.9-7.5 19.8-12.5q1.5-1.2 2.8-2.5c6.8-5.8 11.6-14.1 14.7-22.2z"/>
				<path id="&lt;Path&gt;" class="s3" d="m146.8 845.1c4.3-11.6 7-23.8 9-36.1-8.3-5.7-15.7-13.1-20.3-22.1-5.1-10-6.1-21.3-4-32.2 2.2-11 7.6-21.2 15-29.6 4.6-5.1 10-9.6 15.8-13.2-15.3 6.2-28.5 17.3-35.4 32.5-3.6 7.8-6.2 17.2-5.6 26q0 1.9 0.1 3.8c0.6 7.6 2.1 15.7 5 22.8 2.9 7.2 7.4 13.6 12 19.8 2.2 3 3.9 5.5 4.3 9.3 1 8.9-1.3 16.7-5.5 24.3-0.9 1.7-2 3.6-2 5.6-0.1 2.9 2.3 5.2 4.8 6.9q0 0 0.1-0.1c2.1-5.9 4.5-11.8 6.7-17.7z"/>
				<path id="&lt;Path&gt;" class="s2" d="m208.2 816.8q0.3-0.4 0.6-0.9c5.4-7.6 11.3-15.3 19.1-20.6 3.5-2.4 7.9-4.8 12.3-4.9 2.2-0.1 4.4 0.9 4.1 3.4-0.2 2.1-1.7 4-3 5.5-6 7.3-14.3 13.7-23.4 16.6-3 0.9-6.5 1.5-9.7 0.9z"/>
				<path id="&lt;Path&gt;" class="s2" d="m156.7 803.4c-3.3-2.1-5.7-6.1-6.9-9.8-2.6-7.7-2.6-16.6-0.6-24.4 0.8-2.9 2.1-7.5 5.3-8.6 0.3-0.1 1-0.2 1-0.2 0.3 0 0.4 0 0.6 0.1 0.1 0 0.2 0.1 0.3 0.1q0.2 0.1 0.3 0.3 0.1 0.1 0.1 0.1 0 0 0 0 0.2 0.3 0.4 0.5c0.4 0.5 0.8 1.4 1.1 2.4 0.3 0.9 0.5 2.2 0.7 3.3 0.4 3 0.4 5.9 0.4 8.9-0.1 6.6-0.8 13.1-1.6 19.7q-0.5 3.8-1.1 7.6z"/>
			</g>
			<path id="&lt;Compound Path&gt;" class="s5" d="m227.9 735.2c1.4-8.9-5.4-17-13-20.6-5.4-2.5-11.3-3.4-17.1-4-8.3-0.7-16.9-0.8-24.9 1.8-10.8 3.5-21.5 13.5-18.1 25.9 2.1 7.6 9 13.8 16.2 16.7 7.5 2.9 15.8 3 23.6 2 7.4-0.9 14.7-2.7 21.2-6.5 5.7-3.3 11.1-8.5 12.1-15.3z"/>
		</g>
	</g>
</svg>