<svg version="1.2" xmlns="http://www.w3.org/2000/svg" viewBox="1833 1459 165 91" width="165" height="91">
	<title>3hmd_4h4p_230323-ai</title>
	<defs>
		<clipPath clipPathUnits="userSpaceOnUse" id="cp1">
			<path d="m1833 1459h165v91h-165z"/>
		</clipPath>
	</defs>
	<style>
		.s0 { fill: #000000 } 
		.s1 { fill: #9d9fa2 } 
		.s2 { fill: #74cabd } 
	</style>
	<g id="Artboard 16" clip-path="url(#cp1)">
		<g id="&lt;Group&gt;">
			<path id="&lt;Path&gt;" class="s0" d="m1985.2 1512.3c-0.3-1.6-0.9-3.2-2.2-4.3-1.3-1.1-3-1.3-4.6-1.6q-0.3 0-0.5 0c-0.3-1.1-0.8-2.2-1.3-3.3-0.7-1.3-1.7-2-2.9-2.6q-0.3-0.3-0.8-0.3-0.3-0.2-0.6-0.3c-0.4-0.2-0.8-0.2-1.2 0l-117.7-18.1q-0.5-0.1-0.9 0.1c-2.6 0.1-4.3 3-5.5 4.9-1.9 3.1-2.9 6.7-3.7 10.2-0.8 3.6-1.2 7.2-1.1 10.9 0.2 2.9 0.5 6.5 2.3 8.8 0.6 0.8 1.4 1.3 2.2 1.6 0.2 0.3 0.5 0.5 1 0.6l119.5 18.4q0.3 0.1 0.6 0c2.8 0.5 4.9-2.3 6.2-4.5q0.3-0.6 0.7-1.2c1.9 0.9 4.5-0.3 6.2-1.7 2.4-2 3.6-5.3 4.1-8.3 0.6-2.9 0.8-6.3 0.2-9.3z"/>
			<path id="&lt;Path&gt;" class="s1" d="m1847.3 1515.1c-0.7-0.5-1-1.6-1.2-2.4-0.4-1.4-0.6-2.8-0.7-4.3-0.2-2.9 0-5.8 0.5-8.7 0.6-3.1 1.3-6.3 2.7-9.2q0.8-1.9 2-3.5c0.3-0.4 0.7-0.9 1.1-1.4q0.4 0.2 0.9 0c1.2-0.4 2.3-0.4 2.9 0.8 0.7 1.2 0.7 2.8 0.8 4.2 0.1 4.2-0.4 8.6-1.4 12.8-0.6 2.7-1.6 5.4-2.9 7.9-0.7 1.2-2.7 5.2-4.7 3.8z"/>
			<path id="&lt;Path&gt;" class="s2" d="m1975.1 1520.2c-0.7 3.5-1.7 6.9-3.3 10.1q-0.6 1.3-1.4 2.4c-0.3 0.3-1.3 1.8-1.8 1.6q-0.5-0.1-0.9-0.1 0 0 0 0l-115.5-17.7c2.3-2.3 3.7-5.8 4.7-8.8 1.8-5.4 2.6-11.3 2.5-17 0-1.6-0.2-3.4-0.8-5l113.5 17.5c0.8 0.4 1.5 0.8 2 1.8q1 2.3 1.3 4.7c0.6 3.5 0.3 7.1-0.3 10.5z"/>
			<path id="&lt;Path&gt;" class="s1" d="m1979.6 1526.8q-0.7 0.9-1.8 1.5c-0.4 0.2-0.8 0.4-1.2 0.5-0.1 0-0.4 0-0.5 0q-0.1 0-0.2 0 0.1 0 0.1 0.1 0-0.1-0.1-0.1 0 0 0 0 0 0 0 0 0 0 0 0 0 0 0 0 0 0 0 0c0.9-2.4 1.6-4.8 2.1-7.2 0.7-3.9 1.1-8.1 0.6-12 0.8 0.1 1.8 0.3 2.5 0.8 0.7 0.7 1 1.9 1.1 2.9 0.3 2.2 0.2 4.6-0.1 6.8-0.3 2.4-1 4.8-2.5 6.7z"/>
			<path id="&lt;Path&gt;" class="s0" d="m1970.9 1516.5l-4.2-0.7 0.7-4.2c0.3-2-2.8-2.5-3.1-0.5l-0.6 4.3-3-0.5c-0.8-0.1-1.7 0.5-1.8 1.3-0.1 0.8 0.4 1.6 1.3 1.8l3 0.4-0.6 3.9c-0.3 2 2.8 2.5 3.1 0.5l0.6-3.9 4.1 0.6c0.8 0.2 1.7-0.4 1.8-1.3 0.1-0.8-0.5-1.6-1.3-1.7z"/>
			<path id="&lt;Path&gt;" class="s0" d="m1871.8 1500.7l-8.2-1.2c-0.8-0.1-1.7 0.5-1.8 1.3 0 0.8 0.5 1.6 1.3 1.8l8.2 1.2c0.8 0.2 1.7-0.4 1.8-1.3 0.1-0.8-0.4-1.6-1.3-1.8z"/>
		</g>
	</g>
</svg>