<svg version="1.2" xmlns="http://www.w3.org/2000/svg" viewBox="433 1545 223 300" width="223" height="300">
	<title>3hmd_4h4p_230323-ai</title>
	<defs>
		<clipPath clipPathUnits="userSpaceOnUse" id="cp1">
			<path d="m433 1545h223v300h-223z"/>
		</clipPath>
	</defs>
	<style>
		.s0 { fill: #000000 } 
		.s1 { fill: #ffffff } 
		.s2 { fill: #c18236 } 
		.s3 { fill: #ee4297 } 
		.s4 { fill: #f289b5 } 
	</style>
	<g id="Artboard 4" clip-path="url(#cp1)">
		<g id="&lt;Group&gt;">
			<path id="&lt;Path&gt;" class="s0" d="m535.6 1583c-2.7-0.6-5.5-0.5-8.2 0-1.4-3.1-2.8-6.1-4.3-9.2-1.4-2.8-3-7.4-6.3-8.7-3.2-1.2-7.4 0.7-10.4 1.7-10.5 3.5-20.2 9-29.7 14.6-4.1 2.4-8 5-11.9 7.7-2.7 1.8-6 4.1-7.1 7.4-0.6 0.6-0.8 1.5-0.3 2.4q4.8 8.8 9.8 17.5c-1.4 1.4-2.6 3-3.6 4.7-3.7 6-4.5 16.6 3.4 19.5 2.7 1 5.6 1.5 7.6 3.4 1.1 1 1.7 2.2 2.4 3.5l58.9 112.1c9.7 18.4 19.5 37.1 33.2 52.7 6.2 7.1 13.3 13.6 22.1 16.9 10.6 4 23.2 2.6 32.7-3.6 9.5-6.3 15.7-17.2 16.3-28.6 0.6-12.3-5-24-10.6-35-26.2-52.3-53.8-103.9-82.6-154.8-0.9-1.5-1.8-3.1-2.1-4.8q-0.1-0.4-0.1-0.9c-0.1-2.3 0.9-4.6 1.1-6.9 0.4-5.6-4.7-10.5-10.3-11.6z"/>
			<path id="&lt;Path&gt;" class="s1" d="m529.3 1587.4q0.3 0 0.5 0c1-0.1 2.2-0.1 3.2 0.1 0.4 0.1 0.6 0.3 0.7 0.3 0.2 0.3 0.1 0.1 0.1 0.2q0.1 0.2 0.2 0.2c-0.1 0-0.1 0 0 0.1 0.1 0.3 0 0.7-0.2 1.2-0.5 0.9-1 1.5-1.7 2.2q-0.3 0.4-0.6 0.7-1.1-2.5-2.2-5z"/>
			<path id="&lt;Path&gt;" class="s2" d="m467.4 1592.5c3.1-2 6.1-4.1 9.3-6 7.6-4.7 15.6-9.3 23.8-12.8 4-1.7 8.1-3.3 12.3-4.3 0.7-0.1 1.5-0.4 2.2-0.2q0.1 0 0.1 0.1 0 0 0 0 0 0-0.1 0.2c-0.1 0.2-0.2 0.6-0.6 1.1-0.7 1-1.9 2.1-3 2.9-2.8 2.3-6 4.2-9.1 6-8.2 4.8-16.4 9.4-25.1 13.1-2.8 1.2-5.7 2.4-8.6 3.2-1.9 0.5-4 0.9-6 0.6 1.2-1.6 3.3-2.9 4.8-3.9z"/>
			<path id="&lt;Path&gt;" class="s2" d="m474.2 1598.5c7.4-2.9 14.6-6.2 21.5-10.2 6.5-3.8 13.4-7.1 19.1-12 1.1-0.9 2.2-1.9 3.1-3.1 1.2 2.3 2.3 4.7 3.4 7 0.5-0.1 2.6 5.7 3.6 8.1q0 0 0 0 1.6 3.5 3.2 7.1c-3.3 2.6-7 4.7-10.5 6.8-7.4 4.3-15 8.3-22.5 12.3-5.3 2.9-10.7 5.6-16.2 7.9q-1.2 0.5-2.4 1-1.4-2.4-2.8-4.8 0 0 0 0-1.8-2.6-3.2-5.4 0 0 0 0-3.6-6.2-7.1-12.4c3.6 0.1 7.4-1.1 10.8-2.3z"/>
			<path id="&lt;Path&gt;" class="s1" d="m466.1 1625.6q0.1-0.3 0.3-0.6 0.2-0.5 0.1-0.9c0.7-1.4 1.7-2.7 2.9-3.9q1.4 2.4 2.8 4.7 0 0 0 0-0.3 0.1-0.6 0.2c-1.1 0.3-2.2 0.5-3.3 0.7-0.1 0-0.4 0-0.9 0-0.1 0-0.8 0-0.9 0q-0.2 0-0.3-0.1c0-0.1 0-0.2-0.1 0q0-0.1 0-0.1z"/>
			<path id="&lt;Path&gt;" class="s3" d="m593.1 1700.3c8.6 15.9 16.8 32 24.8 48.2 3.8 7.7 8 15.2 11.5 22.9 3.3 7 6.1 14.6 6.4 22.4 0.4 11.3-4.6 22.3-14.4 28.3-10.7 6.5-24.8 6.6-35.4-0.1-5.7-3.6-10.3-8.5-14.6-13.6-5.5-6.5-10.3-13.6-14.8-21-9.3-15.1-17.4-31-25.8-46.6q-6.8-12.6-13.5-25.3c2.5 0.4 5.2 0.1 7.5-0.4 6-1.3 11.9-3.6 17.6-5.8 6.8-2.6 13.2-5.7 19.5-9.5 4.6-2.7 9.3-5.6 13.4-9.1 3.1-2.7 5.8-5.8 7.4-9.4q5.2 9.5 10.4 19z"/>
			<path id="&lt;Path&gt;" class="s4" d="m516.2 1709.6q0-0.2 0-0.2c0.4-0.7 0.7-1.5 1.2-2.2 0.9-1.2 2-2.3 3.1-3.3 4.8-4.2 10.4-7.3 15.9-10.5 10.2-6 20.5-11.9 31.9-15.4 1.9-0.6 10.1-3.6 11-0.4q0.1 0.1 0.1 0.2c-1 3.6-3.7 6.7-6.4 9.1-3.6 3.2-7.6 5.8-11.7 8.2-5.3 3.2-10.7 6.2-16.5 8.6-5.7 2.4-11.5 4.4-17.4 6.2-2.7 0.8-6.8 2.2-9.9 1.3-0.2-0.7-0.6-1.3-1.3-1.6z"/>
			<path id="&lt;Path&gt;" class="s1" d="m571.6 1672.5c-6.5 1.5-12.9 4.1-18.9 7-6.7 3.1-13 6.9-19.3 10.6-6 3.5-12.4 6.9-17.3 11.9-1.1 1.2-2.5 2.9-3.4 4.7q-3.6-7.1-7.2-14.2c-4-8-7.9-15.9-12.2-23.7-2.2-3.9-4.4-7.8-6.6-11.7-1.7-3.2-3.1-6.5-4.6-9.8-0.8-1.8-1.6-3.6-2.7-5.2q1.6-0.3 3.1-0.8 2.6 4 5.2 8.1c1.5 2.4 3.3 5.1 6.2 5.9 3.9 1.2 8.2-0.7 11.7-2.1 4.6-1.9 9-4.3 13.3-6.7 4.3-2.4 8.6-4.9 12.6-7.8 3.4-2.4 6.9-4.8 9.8-7.8 1.8-1.9 3.3-4.1 3.4-6.9 0.2-3.1-1.2-6.1-2.5-8.9q-1.3-3.1-2.8-6.1c0.9-0.8 1.7-1.6 2.5-2.5q17.9 32.8 35.8 65.6c-2-0.3-4.2 0-6.1 0.4z"/>
			<path id="&lt;Path&gt;" class="s2" d="m486.7 1639.8c3-1.2 6-2.7 8.7-4.1 9.7-5.1 19.2-10.6 28.5-16.4 3.8-2.4 8.1-4.7 12-7.5 1.5 3 3.1 6 4 9.2 0.6 2 0.7 3.8-0.6 5.6-1.8 2.4-4.6 4.3-7 6.2-7.1 5.4-15.1 10-23.1 14-3.7 1.8-7.9 3.9-12 4.5-2.7 0.3-4-1.4-5.4-3.4q-2.5-4-5.1-8.1z"/>
			<path id="&lt;Path&gt;" class="s1" d="m539.8 1602.1c-3.9 5.7-11.1 9-16.8 12.6-8.4 5.3-17 10.2-25.6 15-3.8 2-7.5 4.1-11.4 5.7-3 1.2-6.3 2.6-9.7 2.6-3.1 0-6.1 0.4-8.7-1.9-1.9-1.6-2.5-3.9-2.4-6.1 2.8 0.7 6.5-0.4 8.9-1.1 6.2-2 12.2-4.9 18-7.9q6.3-3.2 12.3-6.7c4.2-2.4 8.6-4.5 12.8-6.9 5.9-3.3 12.1-6.9 17-11.6 1.7-1.7 3.5-3.7 4-6q0.1-0.6 0.1-1.2c3.5 3.5 4.7 9 1.5 13.5z"/>
			<path id="&lt;Path&gt;" class="s1" d="m588.3 1811.1c-9.9-6.7-16.1-16.7-22.1-26.7-6.6-11-12.7-22.3-19.1-33.3-3.5-6.1-6.9-12.3-8.9-19-0.9-2.7-5.1-1.7-4.3 1 3.8 12.2 11.3 23 17.4 34.1 6.3 11.5 12.7 23.2 20.5 33.8 4 5.3 8.7 10 14.2 13.8 2.3 1.6 4.6-2.2 2.3-3.7z"/>
			<path id="&lt;Path&gt;" class="s1" d="m598.2 1816.6q-0.3-0.2-0.6-0.3-0.4-0.2-0.7-0.3-0.1 0-0.1-0.1 0 0 0 0-0.2 0-0.3-0.1 0.1 0.1 0.2 0.1-0.3-0.2-0.7-0.2-0.4-0.1-0.9 0-0.4 0.1-0.7 0.4-0.4 0.2-0.6 0.6l-0.2 0.5q-0.2 0.5-0.1 1.1 0.1 0.3 0.2 0.5 0.1 0.2 0.2 0.3 0.1 0.2 0.1 0.3 0.2 0.2 0.4 0.5 0.3 0.3 0.8 0.5 0 0 0 0 0.1 0 0.1 0.1 0.1 0 0.1 0c0.1 0.1 0.3 0.2 0.5 0.2q0 0 0 0 0.4 0.1 0.7 0.1c0.5 0 0.7 0 1.2-0.3q0.1 0 0.1 0 0.4-0.2 0.7-0.5 0.4-0.4 0.5-1 0.2-0.4 0.1-0.8 0-0.4-0.3-0.8-0.2-0.5-0.7-0.8z"/>
		</g>
	</g>
</svg>