<svg version="1.2" xmlns="http://www.w3.org/2000/svg" viewBox="1055 469 256 268" width="256" height="268">
	<title>3hmd_4h4p_230323-ai</title>
	<defs>
		<clipPath clipPathUnits="userSpaceOnUse" id="cp1">
			<path d="m1055 469h256v268h-256z"/>
		</clipPath>
	</defs>
	<style>
		.s0 { fill: #000000 } 
		.s1 { fill: #828487 } 
		.s2 { mix-blend-mode: multiply;fill: #a9abae } 
		.s3 { fill: #a9abae } 
		.s4 { fill: #ffffff } 
		.s5 { fill: #fcb766 } 
		.s6 { fill: #e42424 } 
	</style>
	<g id="Artboard 5" clip-path="url(#cp1)">
		<g id="&lt;Group&gt;">
			<path id="&lt;Path&gt;" class="s0" d="m1239.8 721.4c2.5-7.1 4.1-14.6 5.1-22.1 1.9-15.2 0.9-30.8-3.2-45.3-4-13.6-10.9-26.3-21.1-35.7 0 0 7.1-12.9 6.5-15-0.7-2.6-4-3.3-6.2-4.4 0 0-30.4-15.3-30.5-15.4-4.4-2.2-7.1-4.5-9.8 0.8-1.9 3.6-3.7 7.3-5.5 10.9-13.7-2.6-28-0.7-41.3 4.2-14.2 5.2-27.3 13.6-38.4 24.2-5.5 5.2-10.6 10.9-14.9 17.2-1.9 2.7-4.1 5.5-4.4 8.9-0.4 3 0.6 5.9 2.2 8.3 3.7 5.9 9.9 9.9 15.4 13.9 8 5.8 16.4 11.1 24.9 16.2 19.4 11.4 39.8 21.8 60.5 30.6 9.1 3.9 18.4 7.5 27.8 10.6 6.4 2 13.4 4.6 20.3 4.2 2.9-0.2 5.8-1.2 8.1-3.2 2.5-2.3 3.5-5.7 4.5-8.9z"/>
			<path id="&lt;Path&gt;" class="s1" d="m1219.3 602.2l4.5 2.2-6 11.8-2.8-1.4-33.9-17.1-2.7-1.4 5.6-11.3q0.4-0.1 0.6-0.3 0.1 0 0.1 0l4.1 2z"/>
			<path id="&lt;Path&gt;" class="s2" d="m1206.2 595.6l-5.9 11.8 17.5 8.8 6-11.8z"/>
			<path id="&lt;Path&gt;" class="s3" d="m1221.2 729.4c-7.8-1.4-15.5-4.2-23-7-5.7-2-33.4-13.4-48.5-21.1-21.2-10.1-40.3-23-45.4-26.4-6.6-4.4-13.4-8.9-19.2-14.4-3.8-3.6-7.6-8.6-4.3-14 3.7-6.1 8.4-11.7 13.3-16.8 10.2-10.6 22.5-19.3 35.8-25 13-5.6 27.2-8.4 40.9-6.6q2.5 0.4 4.9 0.9l3.8 1.9 33.9 17.2 3.7 1.9q1.9 1.6 3.6 3.4c9.6 10 15.8 23.1 19 36.9 3.2 14.1 3.5 29.1 1 43.6-1.2 7-2.9 14.1-5.6 20.7-2.5 5.8-8.8 5.7-13.9 4.8z"/>
			<path id="&lt;Path&gt;" class="s2" d="m1235.1 724.6c2.7-6.6 4.4-13.7 5.6-20.7 2.5-14.5 2.2-29.5-1-43.6-3.2-13.8-9.4-26.9-19-36.9q-1.7-1.8-3.6-3.4l-19.3-9.8c-1.1 14.2-3.4 28.4-7.7 42-2.3 7.1-5.1 14.1-8.6 20.7-2.8 5.2-5.9 10.4-10.9 13.7-8.5 5.8-19.2 4.4-28.4 1.4-5.4-1.8-10.6-4.1-15.8-6.5-6.7-3-13.3-6.1-19.8-9.6-9.4-5.1-18.5-10.9-26.4-18.1 0.9 2.5 2.9 4.8 4.9 6.7 5.8 5.5 12.6 10 19.2 14.4 5.1 3.4 24.2 16.3 45.4 26.4 15.1 7.7 42.8 19.1 48.5 21.1 7.5 2.8 15.2 5.6 23 7 5.1 0.9 11.4 1 13.9-4.8z"/>
			<path id="&lt;Path&gt;" class="s4" d="m1138.7 629.7c2.9-2.7 5.9-5.4 9.1-7.9 7.9-6.1 16.6-11.1 26-14.4q-4.1-2.7-8.4-4.9-1.1-0.6-2.2-1.1c-10.5 0.2-21.1 2.9-30.9 7.1-4.1 1.8-8.1 3.8-12 6.1 2.8 2.2 5.4 4.5 8 6.9 2.5 2.2 5 4.6 7.8 6.4q1.3 0.9 2.6 1.8z"/>
			<path id="&lt;Path&gt;" class="s4" d="m1118.6 653.6c4.1-5.9 8.6-11.6 13.4-17-6.8-5.3-13.4-10.9-19.7-16.7-5.7 4-11 8.6-15.8 13.6q-1.5 1.6-3 3.2 1.3 1.1 2.6 2.1c6.9 5.7 13.6 11.9 20.8 17.4q0.8-1.3 1.7-2.6z"/>
			<g id="&lt;Group&gt;">
				<path id="&lt;Path&gt;" class="s0" d="m1254.1 574.2c2.9-6.4 3.6-13.5 2.9-20.4-0.1-1.2-1.6-2.3-2.7-1.4-1.2 1-2.3 2.1-3.4 3.3q1.3-2 2.3-4.2c2-4.5 3-9.4 3-14.3 0-5.1-1-10.3-2.3-15.3q-1-3.6-2.4-7.2c-0.9-2.2-1.7-4.4-2-6.8-0.2-2.3-3.4-2.1-3.4 0.2-0.2 8.6-9 13.5-16 16.7-4.6 2.1-9.5 3.7-14.1 5.9-3.2 1.5-6.6 3.2-9.2 5.8-1.6 1.6-5.9 7.1-5.1 9.6-0.6-1.8-0.9-3.8-0.5-5.7 0.4-2.2 1.2-5.1-1.9-4.2-2 0.6-3.9 2.5-5.5 3.7-4.6 3.7-10.1 7.9-12.5 13.5-4.3 9.6-0.1 20.8 7.1 27.7 9.6 9.2 25.5 15.5 38.8 13.6 11.5-1.6 22.2-9.9 26.9-20.5z"/>
				<path id="&lt;Path&gt;" class="s5" d="m1242.7 583.7q-1.6 1.3-3.3 2.5-0.4-0.1-0.9 0.1c-2.5 0.8-4.7 2.4-7.2 3.2-2.8 0.9-5.8 1.2-8.8 1.3q-2.8 0-5.6-0.3-1.1 0-2.2-0.2c-10.7-1.1-21.3-6.2-27.2-15.5-2.3-3.6-3.7-7.7-3.9-11.9q-0.4-1.9-0.3-3.6 0.3-1.9 0.8-3.6c1.2-3.1 3.4-5.9 5.9-8.2q0.9-0.9 1.8-1.6 0-0.1 0.1-0.1 1.2-1.1 2.5-2 1.6-1.2 3.2-2.3c-0.2 3.6 1 7.5 3 10.1 0.8 0.9 2.5 1.2 3.1-0.2 0.8-2 1.3-4.2 1.8-6.3 0.7-2.3 1.8-4.1 3.5-5.8 3.4-3.2 7.8-5.2 12.1-7 7.8-3.2 16.4-6.1 22.7-12 1.7-1.6 3-3.4 4-5.4 0.8 2.2 1.7 4.4 2.3 6.6 1.5 4.9 2.5 9.9 2.6 15 0.2 4.7-0.8 9.6-2.8 13.9-2.1 4.5-5.9 7.9-8.4 12.2-0.7 1.1 0.4 2.6 1.6 2.5 4.6-0.3 7.6-4.2 10.7-7.4 0.1 4.4-0.4 8.8-2 13-1.8 5-5 9.5-9.1 13z"/>
				<path id="&lt;Path&gt;" class="s0" d="m1230.5 498.5c-1.3-8.1-3.5-16.1-4.3-24.4-0.2-2.2-3.6-1.8-3.4 0.5 0.7 8.2 3 16.2 4.3 24.4 0.3 2.2 3.8 1.8 3.4-0.5z"/>
				<path id="&lt;Path&gt;" class="s0" d="m1295.8 505.6c-0.3-0.9-1.4-1.5-2.3-1.1-5.4 2.5-11 4.7-16.4 7.3-0.8 0.4-1.4 1.2-1 2.2 0.3 0.8 1.3 1.5 2.2 1.1 5.4-2.7 10.9-4.8 16.4-7.3 0.8-0.4 1.4-1.3 1.1-2.2z"/>
				<path id="&lt;Path&gt;" class="s0" d="m1294.2 564.3c0.3-0.8-0.2-2-1.1-2.2-5.9-1.3-11.6-2.9-17.5-4-0.9-0.2-1.9 0.1-2.2 1.1-0.2 0.8 0.2 2 1.1 2.2 5.9 1.1 11.7 2.8 17.5 4.1 0.9 0.2 1.9-0.2 2.2-1.2z"/>
				<path id="&lt;Path&gt;" class="s0" d="m1270.3 613.7c-5.3-5.8-9.6-12.5-14.9-18.4-1.5-1.7-4.2 0.5-2.6 2.3 5.2 5.9 9.5 12.5 14.8 18.4 1.5 1.7 4.2-0.5 2.7-2.3z"/>
				<path id="&lt;Compound Path&gt;" class="s6" d="m1238.1 570.2c0.1-1-0.6-2.2-1.8-2.1-2.9 0.3-5.5 1.9-8 3.3-0.7 0.4-1.5 0.8-2.3 1.2 1.2-1.1 2.2-2.2 3.1-3.5 2.1-3 3.6-6.1 4.8-9.5 2.4-7.3 3.7-14.8 6.6-21.9 0.7-1.7-0.9-3.1-2.5-2.3-6.9 3.6-13.8 7.6-19.8 12.6-2.9 2.4-5.6 5-7.3 8.3-0.8 1.6-1.4 3.4-1.6 5.2q0 0.6-0.1 1.2c-1.5-2.2-2.4-4.8-1-7.2 0.6-1.1-0.4-2.6-1.7-2.5-5.2 0.5-8.4 7.3-9 11.9-0.8 5.8 1.7 11.9 6.8 15q0 0.3 0.2 0.5c3.8 5.9 13.6 7.5 19.8 4.9 3.3-1.4 6.3-3.6 8.8-6.1 2.4-2.4 4.8-5.5 5-9z"/>
				<path id="&lt;Path&gt;" class="s0" d="m1189.8 516.8c-5.8-2.9-11-7-16.9-9.7-0.9-0.4-2 0.2-2.3 1.1-0.3 0.9 0.3 1.8 1.1 2.2 5.7 2.6 10.6 6.5 16.2 9.3 0.8 0.5 1.8 0.4 2.4-0.4 0.5-0.8 0.4-2-0.5-2.5z"/>
				<path id="&lt;Path&gt;" class="s0" d="m1164 554.2c-6.6-0.3-13-2-19.5-2.1-0.9 0-1.7 1-1.6 1.9 0.1 1 0.9 1.6 1.9 1.6 6.2 0.1 12.3 1.7 18.6 2 0.9 0.1 1.8-0.4 2-1.4 0.1-0.8-0.5-2-1.4-2z"/>
			</g>
			<path id="&lt;Path&gt;" class="s0" d="m1216.5 572.8c0-3.6-0.2-7.2 0.9-10.7 1-3.3 2.8-7 5.6-9.1 1.8-1.3 0-4.2-1.8-2.9-6.1 4.5-8.3 12.6-8.2 19.9 0.1 3.9 0.3 7.8-1.6 11.4-1 2-2.4 4-4.1 5.5-1.4 1.3-3.2 2.2-4.3 3.8-1.3 1.8 1.3 4.1 2.6 2.3 1.1-1.5 2.8-2.4 4.1-3.6 1.6-1.5 3-3.4 4.1-5.2 2.2-3.5 2.8-7.4 2.7-11.4z"/>
		</g>
	</g>
</svg>