<svg version="1.2" xmlns="http://www.w3.org/2000/svg" viewBox="1065 1244 459 140" width="459" height="140">
	<title>3hmd_4h4p_230323-ai</title>
	<defs>
		<clipPath clipPathUnits="userSpaceOnUse" id="cp1">
			<path d="m1065 1244h459v140h-459z"/>
		</clipPath>
	</defs>
	<style>
		.s0 { fill: #000000 } 
		.s1 { fill: #ffffff } 
		.s2 { fill: #6d6f71 } 
		.s3 { fill: #e42424 } 
		.s4 { fill: #0095d4 } 
		.s5 { fill: #ffd47c } 
	</style>
	<g id="Artboard 7" clip-path="url(#cp1)">
		<g id="&lt;Group&gt;">
			<path id="&lt;Path&gt;" class="s0" d="m1090.5 1348.7c5.7 1.6 11.5 2.6 17.1 4.3 6.9 2.1 13.7 4.2 20.6 6.3q2.1 0.6 4.2 1.2c6.9 1.4 13.7 2.7 20.6 3.6 7.8 1.1 15.5 2.2 23.2 3.6l285.6-33.4c0.7 0.7 1.8 1 2.9 0.9 2.4-0.3 4.7-0.8 7.1-1.1q1.8-0.3 3.6-0.3 0.4-0.1 0.8-0.1 0 0 0 0 0.9 0.1 1.9 0.2c1.5 0.3 3.1-0.5 3.8-1.9 12-2 23.7-8.7 27.8-20.7 5.1-14.9-1.3-34.7-14.5-43.4-6.7-4.4-16-9-24.3-7.4q-0.7 0.2-1.2 0.5c-2 0.1-3.9 0.1-5.8 0.4-2.5 0.3-5.2 0.9-7.1 2.5l-296 34.6c-0.9 0.2-1.7 0.5-2.2 1.1-24.6 9.1-48.4 20.4-71.8 32.4-3.4 1.7-9 4-8.4 8.8 0.6 5.2 8 6.8 12.1 7.9z"/>
			<path id="&lt;Path&gt;" class="s1" d="m1493 1275.8c6.7 5.5 10.1 14.9 10.7 23.3 0.9 14.1-9.4 22.3-21.5 25l-6.6-56.2c6.3 0.5 13.1 4.3 17.4 7.9z"/>
			<path id="&lt;Path&gt;" class="s2" d="m1468 1268.8l6.6 56.3q-0.4 0-0.8 0c-1.1 0.1-1.9 0.5-2.4 1.1l-6.7-57.1q1.6-0.3 3.3-0.3z"/>
			<path id="&lt;Path&gt;" class="s3" d="m1463.6 1326.3l-280.4 32.9c2-2.8 3.1-6.1 2.9-9.6-0.4-5.2-4.1-9.9-8-13.2q-0.8-0.6-1.7-1.2l284.4-33.3z"/>
			<path id="&lt;Path&gt;" class="s4" d="m1457.2 1271.6l2.7 22.7-284.8 33.3c2.3-4 3.1-8.8 1.9-13.2-0.9-3.3-2.8-6.7-5.4-9.4z"/>
			<path id="&lt;Path&gt;" class="s5" d="m1125.1 1322q0-0.1 0-0.1 0.4-0.2 0.7-0.4c10.8-4.9 21.6-9.5 32.6-13.6 0.7 0.5 1.6 0.7 2.7 0.5 4.3-0.9 7.7 4.6 8.6 8.2 1.4 5.6-2.9 11.2-8 12.8-2.8 0.9-3 4.9-0.9 6.6 5.7 4.6 14.9 4.6 17.3 12.8 1.8 6.1-5.4 10.7-10.4 12.2-3.4-0.6-6.9-0.8-10.3-1.6-5.7-1.4-11.3-2.8-16.9-4.4q-5.5-1.6-11.1-3.3c0.5-0.8 0.7-1.6 0.6-2.5-0.1-0.8-0.5-1.6-1-2.2-0.4-8.4-3-16.6-3.9-25z"/>
		</g>
	</g>
</svg>