<svg width="387" height="81" viewBox="0 0 387 81" fill="none" xmlns="http://www.w3.org/2000/svg">
<circle cx="41.5" cy="40.2794" r="40.2794" fill="#F5F9F1"/>
<path fill-rule="evenodd" clip-rule="evenodd" d="M41.1386 61.954C41.0548 64.8783 38.8434 67.295 36.0574 67.295C33.4622 67.295 31.3654 65.1966 31.0219 62.5458C30.3592 62.9203 29.6492 63.1827 28.917 63.314C27.147 63.6313 25.2649 63.2203 23.7111 61.9966C21.0314 59.886 20.1568 56.1284 21.3838 52.9666C18.448 52.417 16.247 49.6337 16.247 46.3488C16.247 45.2822 16.4868 44.2773 16.8971 43.3771C13.5562 40.8348 12.4372 35.9617 14.3792 31.9733C14.8961 30.9117 15.5872 30.0075 16.3956 29.2829C15.2176 27.1728 15.1215 24.4676 16.3513 22.2003C17.8973 19.3505 21.119 18.1389 23.9231 19.1968C23.9267 19.1752 23.9303 19.1537 23.9338 19.1322C23.9528 19.0182 23.9716 18.9044 23.998 18.7906C24.7695 15.4513 27.9484 13.3457 31.0817 14.2166C31.3938 14.3034 31.6886 14.4244 31.9747 14.5604C32.8908 13.1469 34.4026 12.207 36.1379 12.207C38.9065 12.207 41.1072 14.5939 41.2168 17.4936C41.2242 17.5367 41.2276 17.5804 41.227 17.6241V17.7149V17.7183V17.7262L41.21 26.669C41.21 26.6925 41.2089 26.7171 41.2066 26.7405C41.2075 28.6621 40.4596 30.4295 39.2323 31.6697C40.419 32.876 41.1481 34.5726 41.1817 36.4411V36.4456C41.1887 36.4869 41.1921 36.5286 41.1919 36.5704V36.6658V36.6703V36.6748L41.1681 49.2487C41.1683 49.2836 41.1661 49.3185 41.1613 49.3531C41.1432 51.0484 40.5475 52.6016 39.5613 53.783C40.5022 54.9254 41.0843 56.4106 41.1352 58.029V58.0324C41.1461 58.0839 41.1515 58.1364 41.1511 58.189L41.1443 61.7111C41.1462 61.7353 41.147 61.7595 41.1465 61.7838C41.1465 61.7918 41.146 61.8001 41.1454 61.8083C41.1449 61.8161 41.1443 61.8238 41.1443 61.8314V61.8609C41.1444 61.892 41.1425 61.9231 41.1386 61.954ZM32.4196 61.7838C32.4196 64.0689 34.0779 65.8426 36.0574 65.8426C38.0226 65.8426 39.6681 64.0935 39.6918 61.8324L39.6929 61.4761L39.6986 58.401L39.6963 58.3863C39.6944 58.3621 39.6936 58.3379 39.6941 58.3136C39.722 55.3598 37.5901 53.018 35.0009 52.9885C32.4118 52.959 30.2393 55.2498 30.2114 58.2036C30.2111 58.2994 30.1919 58.3943 30.1549 58.4827C30.1178 58.571 30.0636 58.6512 29.9954 58.7185C29.9272 58.7859 29.8463 58.839 29.7575 58.875C29.6687 58.9109 29.5736 58.9289 29.4778 58.9279C29.3819 58.927 29.2872 58.907 29.1991 58.8693C29.111 58.8316 29.0313 58.7768 28.9645 58.7081C28.8977 58.6393 28.8451 58.5581 28.8098 58.469C28.7746 58.3799 28.7573 58.2847 28.759 58.1889C28.7724 56.7703 29.1988 55.4517 29.9118 54.366C28.6484 53.1511 27.9918 51.4856 27.9556 49.7977C27.9407 49.7972 27.9259 49.7967 27.911 49.7962C27.7669 49.7913 27.6228 49.7865 27.479 49.7955C25.8989 49.8942 24.3645 50.7421 23.3431 52.302C21.5466 55.0459 22.1345 58.9076 24.6094 60.8568C27.0843 62.8059 30.4393 62.2104 32.2358 59.4667C32.2874 59.3857 32.3546 59.3157 32.4336 59.2608C32.5125 59.2059 32.6015 59.1672 32.6955 59.147C32.7894 59.1268 32.8865 59.1254 32.981 59.143C33.0755 59.1605 33.1656 59.1967 33.246 59.2493C33.3264 59.302 33.3956 59.37 33.4495 59.4496C33.5034 59.5292 33.541 59.6187 33.5601 59.7129C33.5792 59.8071 33.5793 59.9042 33.5606 59.9985C33.5419 60.0927 33.5047 60.1824 33.451 60.2621C33.1364 60.7426 32.7735 61.1644 32.3798 61.5387C32.4071 61.6175 32.4205 61.7004 32.4196 61.7838ZM30.4996 46.4372C28.9216 48.426 29.0948 51.4773 30.8446 53.242C31.9504 52.1725 33.4088 51.5177 35.0186 51.5361C36.3303 51.551 37.5343 52.0074 38.5225 52.7672C39.2707 51.8291 39.7281 50.5869 39.7151 49.219C39.7147 49.1997 39.715 49.1804 39.7162 49.1612L39.7287 42.8646L39.74 36.6512C39.7616 35.0141 39.1046 33.558 38.0845 32.5822C37.3597 33.0317 36.5401 33.3248 35.6585 33.423C35.7162 34.4683 35.4466 35.5402 34.8234 36.4504C34.7582 36.5485 34.6701 36.6294 34.5667 36.6859C34.4633 36.7425 34.3477 36.773 34.2299 36.7749C34.0959 36.777 33.9639 36.7419 33.8485 36.6736C33.7331 36.6054 33.639 36.5065 33.5763 36.3879C33.5137 36.2694 33.4851 36.1358 33.4937 36.0021C33.5024 35.8683 33.5478 35.7395 33.6251 35.63C34.5871 34.2252 34.3146 32.1863 33.0566 31.1502C32.8599 30.9882 32.6536 30.8605 32.4416 30.7644C32.3532 30.726 32.2734 30.6705 32.2067 30.601C32.14 30.5315 32.0878 30.4494 32.0532 30.3595C32.0185 30.2696 32.0021 30.1737 32.0048 30.0774C32.0076 29.9811 32.0295 29.8864 32.0692 29.7986C32.1089 29.7109 32.1657 29.6319 32.2363 29.5663C32.3068 29.5007 32.3897 29.4498 32.4801 29.4165C32.5706 29.3833 32.6667 29.3684 32.7629 29.3726C32.8592 29.3769 32.9536 29.4003 33.0407 29.4414C33.3701 29.5907 33.6856 29.7875 33.9791 30.0291C34.6233 30.5598 35.0839 31.2448 35.3611 31.9956C37.891 31.7935 39.8823 29.3969 39.757 26.4923C39.7555 26.4624 39.7559 26.4324 39.7581 26.4026L39.7751 17.7189V17.7155C39.7734 15.432 38.1169 13.6601 36.1384 13.6601C36.0147 13.6601 35.8928 13.6669 35.7719 13.6805C33.9586 13.8837 32.5005 15.5766 32.5005 17.7189C32.5007 17.7359 32.5004 17.753 32.4994 17.77C32.4884 17.9594 32.4037 18.137 32.2634 18.2647C32.1231 18.3925 31.9384 18.4603 31.7488 18.4536C31.5592 18.447 31.3797 18.3664 31.2487 18.229C31.1178 18.0917 31.0458 17.9086 31.0481 17.7189C31.0481 17.072 31.1575 16.4504 31.35 15.8693C31.1391 15.7692 30.9225 15.6801 30.6929 15.6163C30.5483 15.5761 30.404 15.5446 30.2595 15.521C29.9705 15.4737 29.6816 15.4584 29.3983 15.4745C29.2566 15.4825 29.1162 15.499 28.9773 15.5221C27.31 15.799 25.871 17.1419 25.4143 19.118C24.8055 21.7531 26.2685 24.3914 28.5824 25.0346L28.596 25.0391C28.8767 24.478 29.2675 23.9678 29.7715 23.5527C30.065 23.311 30.3817 23.1154 30.7111 22.966C30.7985 22.922 30.8939 22.8962 30.9915 22.89C31.0892 22.8839 31.1871 22.8975 31.2793 22.9301C31.3716 22.9627 31.4563 23.0136 31.5284 23.0798C31.6005 23.1459 31.6584 23.226 31.6988 23.3151C31.7392 23.4042 31.7612 23.5005 31.7634 23.5984C31.7656 23.6962 31.7481 23.7934 31.7118 23.8843C31.6755 23.9752 31.6212 24.0577 31.5522 24.1271C31.4832 24.1965 31.4009 24.2512 31.3102 24.2879C31.0982 24.384 30.8919 24.5117 30.6952 24.6737C29.4372 25.7098 29.1647 27.7487 30.1267 29.1535C30.1784 29.2269 30.2161 29.3092 30.2379 29.3963C30.2436 29.4199 30.2482 29.4438 30.2515 29.4678C30.2663 29.5699 30.2592 29.6741 30.2307 29.7732C30.2021 29.8724 30.1527 29.9644 30.0859 30.043C30.019 30.1216 29.9361 30.185 29.8428 30.229C29.7494 30.2731 29.6478 30.2967 29.5446 30.2984C29.4227 30.3005 29.3023 30.2718 29.1944 30.2151C29.0866 30.1584 28.9947 30.0754 28.9273 29.9739C28.1987 28.9099 27.954 27.6252 28.1512 26.42C25.6543 25.7047 23.9947 23.3598 23.837 20.7408C21.598 19.6142 18.9452 20.4655 17.6277 22.8945C16.6781 24.6449 16.7345 26.7545 17.5823 28.4057C18.078 28.1023 18.5985 27.8507 19.1402 27.6659C20.2446 27.2892 21.4317 27.4186 22.4978 27.9757C23.5639 28.5327 24.5274 29.4925 25.3583 30.7909C25.382 30.8264 25.4025 30.864 25.4196 30.9032C25.8726 30.7539 26.3553 30.6794 26.8584 30.7046C27.2319 30.7234 27.5937 30.7928 27.9353 30.9077C28.0257 30.9381 28.1093 30.986 28.1812 31.0487C28.2532 31.1114 28.312 31.1877 28.3545 31.2731C28.397 31.3586 28.4222 31.4516 28.4287 31.5468C28.4352 31.642 28.423 31.7375 28.3926 31.828C28.3622 31.9184 28.3142 32.002 28.2515 32.0739C28.1888 32.1459 28.1126 32.2047 28.0271 32.2472C27.9417 32.2897 27.8487 32.3149 27.7535 32.3214C27.6583 32.3279 27.5628 32.3157 27.4723 32.2853C27.2538 32.2118 27.0248 32.1668 26.7858 32.1548C25.2572 32.0781 23.9148 33.3807 23.8402 35.1708C23.8348 35.3632 23.7533 35.5456 23.6135 35.678C23.4737 35.8103 23.2871 35.8817 23.0947 35.8766C22.9976 35.874 22.902 35.8519 22.8136 35.8118C22.7252 35.7716 22.6458 35.7141 22.58 35.6427C22.5142 35.5713 22.4634 35.4874 22.4305 35.396C22.3977 35.3046 22.3836 35.2076 22.3889 35.1106C22.4489 33.6721 23.1286 32.3962 24.1466 31.5908L24.1352 31.5737C23.4055 30.4334 22.5974 29.6671 21.8249 29.2635C21.0525 28.8599 20.3341 28.7937 19.6088 29.0411C17.9974 29.5907 16.5615 30.8097 15.6851 32.6097C13.9168 36.2413 15.1886 40.7706 18.4492 42.6802C19.9927 43.5842 21.6862 43.7449 23.2444 43.2997C23.2616 42.7442 23.3922 42.1843 23.6529 41.6623C23.7911 41.3857 23.9582 41.1342 24.1499 40.9101C24.2108 40.8344 24.2863 40.7716 24.3719 40.7256C24.4575 40.6796 24.5514 40.6513 24.6482 40.6422C24.7449 40.6332 24.8425 40.6437 24.9351 40.673C25.0277 40.7023 25.1135 40.75 25.1874 40.8131C25.2613 40.8762 25.3218 40.9535 25.3652 41.0404C25.4087 41.1272 25.4343 41.222 25.4405 41.3189C25.4467 41.4159 25.4334 41.5131 25.4014 41.6049C25.3693 41.6966 25.3192 41.781 25.254 41.853C25.1403 41.9859 25.0384 42.1387 24.9522 42.3114C24.4008 43.4152 24.791 44.8167 25.7487 45.3921C25.884 45.4711 25.9901 45.5917 26.0511 45.736C26.1122 45.8802 26.125 46.0404 26.0876 46.1925C26.0502 46.3446 25.9646 46.4806 25.8436 46.5801C25.7227 46.6796 25.5727 46.7373 25.4163 46.7446C25.2701 46.7513 25.1254 46.7138 25.001 46.6368C24.2649 46.1947 23.7443 45.5156 23.468 44.743C22.6139 44.9643 21.7254 45.0443 20.8366 44.9563C19.9191 44.8655 19.0064 44.5936 18.1349 44.1507C18.1299 44.1626 18.1242 44.1739 18.1185 44.1853C18.1123 44.1977 18.106 44.2102 18.1008 44.2233C17.8429 44.8718 17.6991 45.5904 17.6991 46.3498C17.6991 49.1619 19.6509 51.3919 22.0722 51.6C22.0815 51.5855 22.0899 51.5706 22.0983 51.5557C22.1077 51.5389 22.1172 51.5221 22.1278 51.5058C22.3974 51.0942 22.6996 50.72 23.0276 50.3847C23.137 50.273 23.2486 50.1655 23.3635 50.0625C24.6937 48.8703 26.3828 48.2705 28.0759 48.3446C28.2729 47.3396 28.6991 46.3713 29.3626 45.5351C29.6685 45.1497 30.0117 44.8165 30.3793 44.5297C30.0025 43.5921 29.83 42.5448 29.9175 41.4638C29.9609 40.9281 30.0652 40.4126 30.2227 39.9251C30.2505 39.8326 30.2965 39.7465 30.3579 39.6719C30.4194 39.5974 30.4951 39.5358 30.5807 39.4909C30.6662 39.4459 30.7599 39.4185 30.8562 39.4103C30.9525 39.402 31.0494 39.413 31.1414 39.4427C31.2334 39.4724 31.3185 39.5201 31.3918 39.5831C31.465 39.6461 31.525 39.723 31.5682 39.8095C31.6113 39.896 31.6368 39.9902 31.6431 40.0866C31.6494 40.183 31.6364 40.2797 31.6048 40.3711C31.4818 40.7517 31.3997 41.1566 31.3654 41.5807C31.1458 44.2929 32.959 46.6193 35.33 46.8502C35.518 46.8652 35.6929 46.9527 35.8175 47.0943C35.9422 47.2359 36.0068 47.4204 35.9978 47.6088C35.9888 47.7972 35.9069 47.9747 35.7693 48.1038C35.6318 48.2329 35.4494 48.3034 35.2608 48.3003C35.2369 48.3 35.2131 48.2985 35.1893 48.2958C33.5761 48.1387 32.1887 47.2872 31.2394 46.0468C31.2061 46.0033 31.1756 45.9575 31.1451 45.9118C31.1268 45.8844 31.1085 45.857 31.0897 45.8301C31.0663 45.8505 31.0425 45.87 31.0187 45.8896C30.9766 45.9243 30.9345 45.9589 30.8945 45.998C30.7567 46.1328 30.625 46.2791 30.4996 46.4372Z" fill="#EC5E0E"/>
<path fill-rule="evenodd" clip-rule="evenodd" d="M42.8092 61.954C42.893 64.8783 45.1044 67.295 47.8904 67.295C50.4856 67.295 52.5824 65.1966 52.9259 62.5458C53.5885 62.9203 54.2986 63.1827 55.0307 63.314C56.8007 63.6313 58.6829 63.2203 60.2367 61.9966C62.9164 59.886 63.7909 56.1284 62.564 52.9666C65.4998 52.417 67.7008 49.6337 67.7008 46.3488C67.7008 45.2822 67.461 44.2773 67.0506 43.3771C70.3916 40.8348 71.5105 35.9617 69.5685 31.9733C69.0517 30.9117 68.3605 30.0075 67.5522 29.2829C68.7301 27.1728 68.8263 24.4676 67.5964 22.2003C66.0505 19.3505 62.8288 18.1389 60.0247 19.1968C60.0211 19.1752 60.0175 19.1537 60.0139 19.1322C59.995 19.0182 59.9761 18.9044 59.9498 18.7906C59.1783 15.4513 55.9994 13.3457 52.8661 14.2166C52.5539 14.3034 52.2591 14.4244 51.9731 14.5604C51.057 13.1469 49.5452 12.207 47.8099 12.207C45.0413 12.207 42.8406 14.5939 42.7309 17.4936C42.7236 17.5367 42.7202 17.5804 42.7207 17.6241V17.7149V17.7183V17.7262L42.7377 26.669C42.7377 26.6925 42.7389 26.7171 42.7411 26.7405C42.7403 28.6621 43.4881 30.4295 44.7155 31.6697C43.5288 32.876 42.7997 34.5726 42.7661 36.4411V36.4456C42.7591 36.4869 42.7556 36.5286 42.7558 36.5704V36.6658V36.6703V36.6748L42.7797 49.2487C42.7794 49.2836 42.7817 49.3185 42.7865 49.3531C42.8045 51.0484 43.4003 52.6016 44.3864 53.783C43.4455 54.9254 42.8635 56.4106 42.8126 58.029V58.0324C42.8016 58.0839 42.7963 58.1364 42.7967 58.189L42.8035 61.7111C42.8015 61.7353 42.8008 61.7595 42.8012 61.7838C42.8012 61.7918 42.8018 61.8001 42.8024 61.8083C42.8029 61.8161 42.8034 61.8238 42.8035 61.8314V61.8609C42.8034 61.892 42.8053 61.9231 42.8092 61.954ZM51.5282 61.7838C51.5282 64.0689 49.8698 65.8426 47.8904 65.8426C45.9252 65.8426 44.2797 64.0935 44.256 61.8324L44.2548 61.4761L44.2492 58.401L44.2514 58.3863C44.2534 58.3621 44.2542 58.3379 44.2537 58.3136C44.2258 55.3598 46.3576 53.018 48.9468 52.9885C51.5359 52.959 53.7084 55.2498 53.7364 58.2036C53.7366 58.2994 53.7558 58.3943 53.7929 58.4827C53.83 58.571 53.8842 58.6512 53.9524 58.7185C54.0206 58.7859 54.1014 58.839 54.1903 58.875C54.2791 58.9109 54.3742 58.9289 54.47 58.9279C54.5658 58.927 54.6605 58.907 54.7486 58.8693C54.8367 58.8316 54.9165 58.7768 54.9833 58.7081C55.0501 58.6393 55.1027 58.5581 55.1379 58.469C55.1732 58.3799 55.1905 58.2847 55.1888 58.1889C55.1754 56.7703 54.7489 55.4517 54.0359 54.366C55.2993 53.1511 55.956 51.4856 55.9921 49.7977C56.007 49.7972 56.0219 49.7967 56.0368 49.7962C56.1809 49.7913 56.325 49.7865 56.4687 49.7955C58.0489 49.8942 59.5833 50.7421 60.6047 52.302C62.4011 55.0459 61.8133 58.9076 59.3383 60.8568C56.8634 62.8059 53.5085 62.2104 51.712 59.4667C51.6603 59.3857 51.5931 59.3157 51.5142 59.2608C51.4353 59.2059 51.3463 59.1672 51.2523 59.147C51.1583 59.1268 51.0613 59.1254 50.9668 59.143C50.8723 59.1605 50.7822 59.1967 50.7018 59.2493C50.6213 59.302 50.5521 59.37 50.4982 59.4496C50.4443 59.5292 50.4067 59.6187 50.3877 59.7129C50.3686 59.8071 50.3684 59.9042 50.3871 59.9985C50.4058 60.0927 50.4431 60.1824 50.4967 60.2621C50.8113 60.7426 51.1742 61.1644 51.5679 61.5387C51.5407 61.6175 51.5273 61.7004 51.5282 61.7838ZM53.4481 46.4372C55.0262 48.426 54.853 51.4773 53.1032 53.242C51.9973 52.1725 50.539 51.5177 48.9292 51.5361C47.6174 51.551 46.4135 52.0074 45.4252 52.7672C44.677 51.8291 44.2197 50.5869 44.2327 49.219C44.2331 49.1997 44.2327 49.1804 44.2316 49.1612L44.2191 42.8646L44.2077 36.6512C44.1862 35.0141 44.8431 33.558 45.8633 32.5822C46.5881 33.0317 47.4077 33.3248 48.2893 33.423C48.2316 34.4683 48.5011 35.5402 49.1244 36.4504C49.1896 36.5485 49.2776 36.6294 49.381 36.6859C49.4844 36.7425 49.6 36.773 49.7179 36.7749C49.8519 36.777 49.9839 36.7419 50.0993 36.6736C50.2146 36.6054 50.3088 36.5065 50.3714 36.3879C50.434 36.2694 50.4626 36.1358 50.454 36.0021C50.4454 35.8683 50.3999 35.7395 50.3226 35.63C49.3607 34.2252 49.6332 32.1863 50.8911 31.1502C51.0879 30.9882 51.2942 30.8605 51.5061 30.7644C51.5945 30.726 51.6744 30.6705 51.741 30.601C51.8077 30.5315 51.8599 30.4494 51.8946 30.3595C51.9292 30.2696 51.9457 30.1737 51.9429 30.0774C51.9402 29.9811 51.9183 29.8864 51.8785 29.7986C51.8388 29.7109 51.782 29.6319 51.7115 29.5663C51.6409 29.5007 51.558 29.4498 51.4676 29.4165C51.3772 29.3833 51.2811 29.3684 51.1848 29.3726C51.0886 29.3769 50.9942 29.4003 50.907 29.4414C50.5776 29.5907 50.2621 29.7875 49.9687 30.0291C49.3244 30.5598 48.8639 31.2448 48.5866 31.9956C46.0567 31.7935 44.0655 29.3969 44.1908 26.4923C44.1922 26.4624 44.1919 26.4324 44.1896 26.4026L44.1726 17.7189V17.7155C44.1743 15.432 45.8309 13.6601 47.8094 13.6601C47.9331 13.6601 48.055 13.6669 48.1759 13.6805C49.9891 13.8837 51.4472 15.5766 51.4472 17.7189C51.447 17.7359 51.4474 17.753 51.4484 17.77C51.4594 17.9594 51.5441 18.137 51.6844 18.2647C51.8246 18.3925 52.0093 18.4603 52.199 18.4536C52.3886 18.447 52.5681 18.3664 52.699 18.229C52.83 18.0917 52.902 17.9086 52.8996 17.7189C52.8996 17.072 52.7903 16.4504 52.5978 15.8693C52.8087 15.7692 53.0253 15.6801 53.2548 15.6163C53.3994 15.5761 53.5438 15.5446 53.6883 15.521C53.9773 15.4737 54.2662 15.4584 54.5495 15.4745C54.6912 15.4825 54.8315 15.499 54.9705 15.5221C56.6378 15.799 58.0768 17.1419 58.5334 19.118C59.1423 21.7531 57.6793 24.3914 55.3654 25.0346L55.3517 25.0391C55.0711 24.478 54.6802 23.9678 54.1762 23.5527C53.8828 23.311 53.5661 23.1154 53.2367 22.966C53.1492 22.922 53.0539 22.8962 52.9562 22.89C52.8586 22.8839 52.7607 22.8975 52.6684 22.9301C52.5762 22.9627 52.4915 23.0136 52.4194 23.0798C52.3473 23.1459 52.2893 23.226 52.2489 23.3151C52.2085 23.4042 52.1866 23.5005 52.1843 23.5984C52.1821 23.6962 52.1997 23.7934 52.236 23.8843C52.2723 23.9752 52.3266 24.0577 52.3956 24.1271C52.4646 24.1965 52.5469 24.2512 52.6376 24.2879C52.8496 24.384 53.0558 24.5117 53.2526 24.6737C54.5106 25.7098 54.783 27.7487 53.8211 29.1535C53.7693 29.2269 53.7316 29.3092 53.7099 29.3963C53.7041 29.4199 53.6996 29.4438 53.6963 29.4678C53.6814 29.5699 53.6885 29.6741 53.7171 29.7732C53.7456 29.8724 53.795 29.9644 53.8619 30.043C53.9288 30.1216 54.0117 30.185 54.105 30.229C54.1983 30.2731 54.3 30.2967 54.4032 30.2984C54.525 30.3005 54.6454 30.2718 54.7533 30.2151C54.8612 30.1584 54.9531 30.0754 55.0205 29.9739C55.7491 28.9099 55.9938 27.6252 55.7966 26.42C58.2934 25.7047 59.953 23.3598 60.1107 20.7408C62.3498 19.6142 65.0025 20.4655 66.3201 22.8945C67.2696 24.6449 67.2132 26.7545 66.3655 28.4057C65.8697 28.1023 65.3492 27.8507 64.8075 27.6659C63.7032 27.2892 62.516 27.4186 61.45 27.9757C60.3839 28.5327 59.4203 29.4925 58.5894 30.7909C58.5657 30.8264 58.5452 30.864 58.5281 30.9032C58.0751 30.7539 57.5924 30.6794 57.0893 30.7046C56.7159 30.7234 56.3541 30.7928 56.0125 30.9077C55.922 30.9381 55.8385 30.986 55.7665 31.0487C55.6946 31.1114 55.6357 31.1877 55.5933 31.2731C55.5508 31.3586 55.5256 31.4516 55.519 31.5468C55.5125 31.642 55.5248 31.7375 55.5552 31.828C55.5856 31.9184 55.6335 32.002 55.6962 32.0739C55.7589 32.1459 55.8352 32.2047 55.9206 32.2472C56.0061 32.2897 56.0991 32.3149 56.1942 32.3214C56.2894 32.3279 56.385 32.3157 56.4754 32.2853C56.694 32.2118 56.923 32.1668 57.1619 32.1548C58.6906 32.0781 60.033 33.3807 60.1076 35.1708C60.113 35.3632 60.1945 35.5456 60.3343 35.678C60.4741 35.8103 60.6607 35.8817 60.8531 35.8766C60.9502 35.874 61.0457 35.8519 61.1341 35.8118C61.2225 35.7716 61.302 35.7141 61.3678 35.6427C61.4336 35.5713 61.4844 35.4874 61.5172 35.396C61.55 35.3046 61.5642 35.2076 61.5588 35.1106C61.4989 33.6721 60.8192 32.3962 59.8012 31.5908L59.8125 31.5737C60.5422 30.4334 61.3504 29.6671 62.1228 29.2635C62.8953 28.8599 63.6137 28.7937 64.3389 29.0411C65.9503 29.5907 67.3863 30.8097 68.2627 32.6097C70.0309 36.2413 68.7591 40.7706 65.4986 42.6802C63.955 43.5842 62.2616 43.7449 60.7033 43.2997C60.6862 42.7442 60.5555 42.1843 60.2948 41.6623C60.1566 41.3857 59.9895 41.1342 59.7978 40.9101C59.7369 40.8344 59.6614 40.7716 59.5759 40.7256C59.4903 40.6796 59.3963 40.6513 59.2996 40.6422C59.2029 40.6332 59.1053 40.6437 59.0127 40.673C58.92 40.7023 58.8342 40.75 58.7603 40.8131C58.6865 40.8762 58.626 40.9535 58.5825 41.0404C58.539 41.1272 58.5134 41.222 58.5072 41.3189C58.501 41.4159 58.5143 41.5131 58.5464 41.6049C58.5784 41.6966 58.6285 41.781 58.6938 41.853C58.8074 41.9859 58.9094 42.1387 58.9956 42.3114C59.5469 43.4152 59.1568 44.8167 58.199 45.3921C58.0638 45.4711 57.9577 45.5917 57.8966 45.736C57.8356 45.8802 57.8228 46.0404 57.8602 46.1925C57.8975 46.3446 57.9831 46.4806 58.1041 46.5801C58.2251 46.6796 58.375 46.7373 58.5315 46.7446C58.6776 46.7513 58.8224 46.7138 58.9468 46.6368C59.6828 46.1947 60.2035 45.5156 60.4798 44.743C61.3339 44.9643 62.2224 45.0443 63.1112 44.9563C64.0286 44.8655 64.9414 44.5936 65.8129 44.1507C65.8178 44.1626 65.8235 44.1739 65.8292 44.1853C65.8355 44.1977 65.8417 44.2102 65.8469 44.2233C66.1048 44.8718 66.2486 45.5904 66.2486 46.3498C66.2486 49.1619 64.2968 51.3919 61.8755 51.6C61.8663 51.5855 61.8579 51.5706 61.8495 51.5557C61.84 51.5389 61.8306 51.5221 61.8199 51.5058C61.5504 51.0942 61.2482 50.72 60.9201 50.3847C60.8108 50.273 60.6992 50.1655 60.5842 50.0625C59.2541 48.8703 57.565 48.2705 55.8718 48.3446C55.6748 47.3396 55.2486 46.3713 54.5851 45.5351C54.2793 45.1497 53.9361 44.8165 53.5684 44.5297C53.9452 43.5921 54.1178 42.5448 54.0302 41.4638C53.9869 40.9281 53.8825 40.4126 53.725 39.9251C53.6972 39.8326 53.6513 39.7465 53.5898 39.6719C53.5284 39.5974 53.4526 39.5358 53.3671 39.4909C53.2815 39.4459 53.1879 39.4185 53.0916 39.4103C52.9953 39.402 52.8983 39.413 52.8064 39.4427C52.7144 39.4724 52.6293 39.5201 52.556 39.5831C52.4827 39.6461 52.4227 39.723 52.3796 39.8095C52.3364 39.896 52.3109 39.9902 52.3047 40.0866C52.2984 40.183 52.3114 40.2797 52.343 40.3711C52.4659 40.7517 52.548 41.1566 52.5824 41.5807C52.8019 44.2929 50.9887 46.6193 48.6177 46.8502C48.4297 46.8652 48.2549 46.9527 48.1302 47.0943C48.0056 47.2359 47.9409 47.4204 47.9499 47.6088C47.9589 47.7972 48.0409 47.9747 48.1784 48.1038C48.316 48.2329 48.4983 48.3034 48.687 48.3003C48.7108 48.3 48.7347 48.2985 48.7584 48.2958C50.3717 48.1387 51.759 47.2872 52.7083 46.0468C52.7416 46.0033 52.7722 45.9575 52.8027 45.9118C52.821 45.8844 52.8392 45.857 52.8581 45.8301C52.8815 45.8505 52.9053 45.87 52.929 45.8896C52.9711 45.9243 53.0133 45.9589 53.0533 45.998C53.1911 46.1328 53.3227 46.2791 53.4481 46.4372Z" fill="#EC5E0E"/>
<path d="M95.2017 26.1884H103.909L111.295 44.1998H111.636L119.023 26.1884H127.73V55.2793H120.884V37.41H120.642L113.653 55.0946H109.278L102.29 37.3105H102.048V55.2793H95.2017V26.1884ZM142.315 55.6912C140.032 55.6912 138.063 55.2414 136.406 54.3418C134.758 53.4327 133.489 52.1401 132.599 50.464C131.718 48.7783 131.278 46.7755 131.278 44.4554C131.278 42.2016 131.723 40.2319 132.613 38.5463C133.503 36.8513 134.758 35.535 136.377 34.5975C137.996 33.6505 139.905 33.177 142.102 33.177C143.655 33.177 145.075 33.4185 146.363 33.9015C147.651 34.3844 148.763 35.0994 149.701 36.0463C150.638 36.9933 151.368 38.1628 151.888 39.5549C152.409 40.9374 152.67 42.5236 152.67 44.3134V46.0463H133.707V42.0123H146.207C146.197 41.2736 146.022 40.6155 145.681 40.0378C145.34 39.4602 144.871 39.0104 144.275 38.6884C143.688 38.3569 143.011 38.1912 142.244 38.1912C141.467 38.1912 140.771 38.3664 140.156 38.7168C139.54 39.0577 139.052 39.5265 138.692 40.123C138.333 40.7102 138.143 41.3778 138.124 42.1259V46.231C138.124 47.1212 138.299 47.9024 138.65 48.5748C139 49.2376 139.497 49.7537 140.141 50.123C140.785 50.4924 141.552 50.677 142.442 50.677C143.058 50.677 143.617 50.5918 144.119 50.4213C144.621 50.2509 145.051 49.9999 145.411 49.6685C145.771 49.3371 146.041 48.9299 146.221 48.4469L152.599 48.6316C152.334 50.0615 151.751 51.3068 150.852 52.3674C149.961 53.4185 148.792 54.2376 147.343 54.8248C145.894 55.4024 144.218 55.6912 142.315 55.6912ZM163.163 42.8361V55.2793H156.217V33.4611H162.822V37.4668H163.064C163.547 36.1316 164.371 35.0852 165.536 34.3276C166.7 33.5605 168.088 33.177 169.697 33.177C171.232 33.177 172.562 33.5227 173.689 34.214C174.825 34.8958 175.706 35.8522 176.331 37.0833C176.965 38.3049 177.278 39.7348 177.268 41.373V55.2793H170.322V42.7367C170.332 41.5246 170.024 40.5776 169.399 39.8958C168.784 39.214 167.927 38.873 166.828 38.873C166.099 38.873 165.455 39.034 164.896 39.356C164.347 39.6685 163.921 40.1183 163.618 40.7054C163.324 41.2926 163.173 42.0028 163.163 42.8361ZM193.884 33.4611V38.5748H180.12V33.4611H193.884ZM183.004 28.2338H189.95V48.4185C189.95 48.8446 190.016 49.1903 190.148 49.4554C190.29 49.7111 190.494 49.8958 190.759 50.0094C191.024 50.1136 191.342 50.1657 191.711 50.1657C191.976 50.1657 192.255 50.142 192.549 50.0946C192.852 50.0378 193.079 49.9905 193.231 49.9526L194.282 54.9668C193.951 55.0615 193.482 55.1799 192.876 55.3219C192.279 55.464 191.564 55.5539 190.731 55.5918C189.102 55.6676 187.705 55.4782 186.54 55.0236C185.385 54.5596 184.5 53.8399 183.884 52.8645C183.278 51.8891 182.985 50.6628 183.004 49.1855V28.2338ZM207.379 55.6912C205.087 55.6912 203.117 55.2225 201.469 54.285C199.831 53.338 198.567 52.0217 197.677 50.3361C196.796 48.641 196.356 46.6761 196.356 44.4412C196.356 42.1969 196.796 40.2319 197.677 38.5463C198.567 36.8513 199.831 35.535 201.469 34.5975C203.117 33.6505 205.087 33.177 207.379 33.177C209.67 33.177 211.635 33.6505 213.273 34.5975C214.921 35.535 216.185 36.8513 217.066 38.5463C217.956 40.2319 218.401 42.1969 218.401 44.4412C218.401 46.6761 217.956 48.641 217.066 50.3361C216.185 52.0217 214.921 53.338 213.273 54.285C211.635 55.2225 209.67 55.6912 207.379 55.6912ZM207.421 50.4498C208.254 50.4498 208.96 50.1941 209.538 49.6827C210.115 49.1713 210.556 48.4611 210.859 47.552C211.171 46.6429 211.327 45.5918 211.327 44.3986C211.327 43.1865 211.171 42.1259 210.859 41.2168C210.556 40.3077 210.115 39.5975 209.538 39.0861C208.96 38.5748 208.254 38.3191 207.421 38.3191C206.559 38.3191 205.83 38.5748 205.234 39.0861C204.647 39.5975 204.197 40.3077 203.884 41.2168C203.581 42.1259 203.43 43.1865 203.43 44.3986C203.43 45.5918 203.581 46.6429 203.884 47.552C204.197 48.4611 204.647 49.1713 205.234 49.6827C205.83 50.1941 206.559 50.4498 207.421 50.4498ZM221.96 55.2793V33.4611H228.707V37.4384H228.934C229.332 35.999 229.98 34.9289 230.88 34.2282C231.78 33.5179 232.826 33.1628 234.019 33.1628C234.341 33.1628 234.673 33.1865 235.013 33.2338C235.354 33.2717 235.672 33.3333 235.965 33.4185V39.4554C235.634 39.3418 235.198 39.2518 234.658 39.1855C234.128 39.1193 233.655 39.0861 233.238 39.0861C232.414 39.0861 231.671 39.2708 231.008 39.6401C230.354 39.9999 229.838 40.5066 229.46 41.16C229.09 41.8039 228.906 42.5615 228.906 43.4327V55.2793H221.96Z" fill="black"/>
<path d="M263.114 34.91C263.019 33.8683 262.598 33.0587 261.849 32.481C261.111 31.8939 260.055 31.6003 258.682 31.6003C257.773 31.6003 257.015 31.7187 256.409 31.9554C255.803 32.1922 255.348 32.5189 255.045 32.9355C254.742 33.3427 254.586 33.8115 254.577 34.3418C254.558 34.7774 254.643 35.1609 254.832 35.4924C255.031 35.8238 255.315 36.1174 255.685 36.373C256.063 36.6193 256.518 36.8371 257.048 37.0265C257.579 37.2158 258.175 37.3816 258.838 37.5236L261.338 38.0918C262.777 38.4043 264.046 38.821 265.145 39.3418C266.253 39.8626 267.181 40.4829 267.929 41.2026C268.687 41.9223 269.259 42.7509 269.648 43.6884C270.036 44.6259 270.235 45.677 270.244 46.8418C270.235 48.6789 269.771 50.2556 268.852 51.5719C267.934 52.8882 266.613 53.8967 264.889 54.5975C263.175 55.2982 261.106 55.6486 258.682 55.6486C256.248 55.6486 254.127 55.284 252.318 54.5549C250.509 53.8257 249.103 52.7177 248.099 51.231C247.096 49.7443 246.58 47.8645 246.551 45.5918H253.284C253.341 46.5293 253.592 47.3105 254.037 47.9355C254.482 48.5605 255.093 49.034 255.869 49.356C256.655 49.678 257.564 49.839 258.597 49.839C259.544 49.839 260.348 49.7111 261.011 49.4554C261.684 49.1998 262.2 48.8446 262.56 48.3901C262.92 47.9355 263.104 47.4147 263.114 46.8276C263.104 46.2783 262.934 45.8096 262.602 45.4213C262.271 45.0236 261.759 44.6827 261.068 44.3986C260.386 44.1051 259.515 43.8352 258.455 43.589L255.415 42.8787C252.896 42.3011 250.912 41.3683 249.463 40.0804C248.014 38.7831 247.295 37.0312 247.304 34.8248C247.295 33.0255 247.777 31.4488 248.753 30.0946C249.728 28.7405 251.078 27.6846 252.801 26.927C254.525 26.1694 256.49 25.7907 258.696 25.7907C260.95 25.7907 262.905 26.1742 264.562 26.9412C266.229 27.6988 267.522 28.7641 268.44 30.1373C269.359 31.5104 269.828 33.1013 269.847 34.91H263.114ZM273.795 63.4611V33.4611H280.67V37.1969H280.884C281.168 36.534 281.57 35.8948 282.091 35.2793C282.621 34.6638 283.294 34.1619 284.108 33.7736C284.932 33.3759 285.917 33.177 287.062 33.177C288.578 33.177 289.993 33.5748 291.31 34.3702C292.635 35.1657 293.705 36.392 294.52 38.0492C295.334 39.7064 295.741 41.8181 295.741 44.3844C295.741 46.856 295.348 48.9251 294.562 50.5918C293.786 52.2585 292.735 53.5085 291.409 54.3418C290.093 55.1751 288.63 55.5918 287.02 55.5918C285.921 55.5918 284.97 55.4119 284.165 55.052C283.36 54.6922 282.683 54.2187 282.134 53.6316C281.594 53.0444 281.177 52.4147 280.884 51.7424H280.741V63.4611H273.795ZM280.599 44.3702C280.599 45.5444 280.756 46.5672 281.068 47.4384C281.39 48.3096 281.849 48.9867 282.446 49.4696C283.052 49.9431 283.777 50.1799 284.619 50.1799C285.472 50.1799 286.196 49.9431 286.793 49.4696C287.389 48.9867 287.839 48.3096 288.142 47.4384C288.455 46.5672 288.611 45.5444 288.611 44.3702C288.611 43.196 288.455 42.178 288.142 41.3162C287.839 40.4545 287.389 39.7869 286.793 39.3134C286.205 38.8399 285.481 38.6032 284.619 38.6032C283.767 38.6032 283.043 38.8352 282.446 39.2992C281.849 39.7632 281.39 40.4261 281.068 41.2878C280.756 42.1496 280.599 43.177 280.599 44.3702ZM306.327 42.8361V55.2793H299.381V26.1884H306.1V37.4668H306.342C306.834 36.1221 307.639 35.071 308.756 34.3134C309.883 33.5558 311.261 33.177 312.89 33.177C314.424 33.177 315.759 33.5179 316.896 34.1998C318.032 34.8721 318.913 35.8238 319.538 37.0549C320.172 38.2859 320.485 39.7253 320.475 41.373V55.2793H313.529V42.7367C313.539 41.5246 313.236 40.5776 312.62 39.8958C312.004 39.214 311.138 38.873 310.021 38.873C309.291 38.873 308.647 39.034 308.089 39.356C307.54 39.6685 307.109 40.1183 306.796 40.7054C306.493 41.2926 306.337 42.0028 306.327 42.8361ZM335.01 55.6912C332.728 55.6912 330.758 55.2414 329.101 54.3418C327.453 53.4327 326.184 52.1401 325.294 50.464C324.413 48.7783 323.973 46.7755 323.973 44.4554C323.973 42.2016 324.418 40.2319 325.308 38.5463C326.198 36.8513 327.453 35.535 329.072 34.5975C330.692 33.6505 332.6 33.177 334.797 33.177C336.35 33.177 337.77 33.4185 339.058 33.9015C340.346 34.3844 341.459 35.0994 342.396 36.0463C343.334 36.9933 344.063 38.1628 344.584 39.5549C345.105 40.9374 345.365 42.5236 345.365 44.3134V46.0463H326.402V42.0123H338.902C338.893 41.2736 338.717 40.6155 338.376 40.0378C338.036 39.4602 337.567 39.0104 336.97 38.6884C336.383 38.3569 335.706 38.1912 334.939 38.1912C334.162 38.1912 333.466 38.3664 332.851 38.7168C332.235 39.0577 331.748 39.5265 331.388 40.123C331.028 40.7102 330.839 41.3778 330.82 42.1259V46.231C330.82 47.1212 330.995 47.9024 331.345 48.5748C331.696 49.2376 332.193 49.7537 332.837 50.123C333.481 50.4924 334.248 50.677 335.138 50.677C335.753 50.677 336.312 50.5918 336.814 50.4213C337.316 50.2509 337.747 49.9999 338.107 49.6685C338.466 49.3371 338.736 48.9299 338.916 48.4469L345.294 48.6316C345.029 50.0615 344.446 51.3068 343.547 52.3674C342.657 53.4185 341.487 54.2376 340.038 54.8248C338.589 55.4024 336.913 55.6912 335.01 55.6912ZM348.913 55.2793V33.4611H355.66V37.4384H355.887C356.285 35.999 356.933 34.9289 357.833 34.2282C358.733 33.5179 359.779 33.1628 360.972 33.1628C361.294 33.1628 361.626 33.1865 361.967 33.2338C362.308 33.2717 362.625 33.3333 362.918 33.4185V39.4554C362.587 39.3418 362.151 39.2518 361.612 39.1855C361.081 39.1193 360.608 39.0861 360.191 39.0861C359.367 39.0861 358.624 39.2708 357.961 39.6401C357.308 39.9999 356.791 40.5066 356.413 41.16C356.043 41.8039 355.859 42.5615 355.859 43.4327V55.2793H348.913ZM374.815 55.6912C372.532 55.6912 370.563 55.2414 368.906 54.3418C367.258 53.4327 365.989 52.1401 365.099 50.464C364.218 48.7783 363.778 46.7755 363.778 44.4554C363.778 42.2016 364.223 40.2319 365.113 38.5463C366.003 36.8513 367.258 35.535 368.877 34.5975C370.496 33.6505 372.405 33.177 374.602 33.177C376.155 33.177 377.575 33.4185 378.863 33.9015C380.151 34.3844 381.263 35.0994 382.201 36.0463C383.138 36.9933 383.868 38.1628 384.388 39.5549C384.909 40.9374 385.17 42.5236 385.17 44.3134V46.0463H366.207V42.0123H378.707C378.697 41.2736 378.522 40.6155 378.181 40.0378C377.84 39.4602 377.371 39.0104 376.775 38.6884C376.188 38.3569 375.511 38.1912 374.744 38.1912C373.967 38.1912 373.271 38.3664 372.656 38.7168C372.04 39.0577 371.552 39.5265 371.192 40.123C370.833 40.7102 370.643 41.3778 370.624 42.1259V46.231C370.624 47.1212 370.799 47.9024 371.15 48.5748C371.5 49.2376 371.997 49.7537 372.641 50.123C373.285 50.4924 374.052 50.677 374.942 50.677C375.558 50.677 376.117 50.5918 376.619 50.4213C377.121 50.2509 377.551 49.9999 377.911 49.6685C378.271 49.3371 378.541 48.9299 378.721 48.4469L385.099 48.6316C384.834 50.0615 384.251 51.3068 383.352 52.3674C382.461 53.4185 381.292 54.2376 379.843 54.8248C378.394 55.4024 376.718 55.6912 374.815 55.6912Z" fill="#EC5E0E"/>
</svg>
